<?xml version="1.0" encoding="utf-8" ?>
<svg baseProfile="tiny" height="100%" version="1.2" viewBox="0,0,500,500" width="100%" xmlns="http://www.w3.org/2000/svg" xmlns:ev="http://www.w3.org/2001/xml-events" xmlns:xlink="http://www.w3.org/1999/xlink"><defs /><circle cx="269.0" cy="258.0" fill="black" r="3" /><circle cx="267.0" cy="63.0" fill="black" r="3" /><circle cx="74.0" cy="63.0" fill="black" r="3" /><circle cx="74.0" cy="260.0" fill="black" r="3" /><circle cx="178.0" cy="68.0" fill="black" r="3" /><circle cx="175.0" cy="259.0" fill="black" r="3" /><circle cx="172.0" cy="160.0" fill="black" r="3" /><circle cx="273.0" cy="162.0" fill="black" r="3" /><circle cx="73.0" cy="162.0" fill="black" r="3" /><circle cx="153.0" cy="141.0" fill="black" r="3" /><circle cx="187.0" cy="142.0" fill="black" r="3" /><circle cx="187.0" cy="181.0" fill="black" r="3" /><circle cx="153.0" cy="182.0" fill="black" r="3" /><circle cx="192.0" cy="229.0" fill="black" r="3" /><circle cx="192.0" cy="94.0" fill="black" r="3" /><circle cx="149.0" cy="94.0" fill="black" r="3" /><circle cx="149.0" cy="229.0" fill="black" r="3" /><circle cx="161.0" cy="72.0" fill="black" r="3" /><line stroke="blue" stroke-width="2" x1="74.0" x2="267.0" y1="260.0" y2="63.0" /><line stroke="blue" stroke-width="2" x1="74.0" x2="74.0" y1="260.0" y2="63.0" /><line stroke="blue" stroke-width="2" x1="74.0" x2="267.0" y1="63.0" y2="63.0" /><line stroke="blue" stroke-width="2" x1="269.0" x2="267.0" y1="258.0" y2="63.0" /><line stroke="blue" stroke-width="2" x1="74.0" x2="269.0" y1="260.0" y2="258.0" /><line stroke="blue" stroke-width="2" x1="74.0" x2="269.0" y1="63.0" y2="258.0" /><line stroke="blue" stroke-width="2" x1="192.0" x2="187.0" y1="229.0" y2="181.0" /><line stroke="blue" stroke-width="2" x1="187.0" x2="192.0" y1="142.0" y2="94.0" /><line stroke="blue" stroke-width="2" x1="74.0" x2="149.0" y1="63.0" y2="94.0" /><line stroke="blue" stroke-width="2" x1="149.0" x2="161.0" y1="94.0" y2="72.0" /><line stroke="blue" stroke-width="2" x1="161.0" x2="178.0" y1="72.0" y2="68.0" /><line stroke="blue" stroke-width="2" x1="178.0" x2="192.0" y1="68.0" y2="94.0" /><line stroke="blue" stroke-width="2" x1="192.0" x2="267.0" y1="94.0" y2="63.0" /><line stroke="blue" stroke-width="2" x1="74.0" x2="149.0" y1="260.0" y2="229.0" /><line stroke="blue" stroke-width="2" x1="149.0" x2="175.0" y1="229.0" y2="259.0" /><line stroke="blue" stroke-width="2" x1="175.0" x2="192.0" y1="259.0" y2="229.0" /><line stroke="blue" stroke-width="2" x1="192.0" x2="269.0" y1="229.0" y2="258.0" /><line stroke="blue" stroke-width="2" x1="74.0" x2="73.0" y1="63.0" y2="162.0" /><line stroke="blue" stroke-width="2" x1="73.0" x2="74.0" y1="162.0" y2="260.0" /><line stroke="blue" stroke-width="2" x1="267.0" x2="273.0" y1="63.0" y2="162.0" /><line stroke="blue" stroke-width="2" x1="273.0" x2="269.0" y1="162.0" y2="258.0" /><path d="M74.0,63.0 Q68.0,263.0 269.0,258.0" fill="none" stroke="red" stroke-width="2" /><path d="M74.0,260.0 Q272.0,264.0 267.0,63.0" fill="none" stroke="red" stroke-width="2" /><path d="M172.0,160.0 Q170.0,161.0 187.0,142.0" fill="none" stroke="red" stroke-width="2" /></svg>