<?xml version="1.0" encoding="utf-8" ?>
<svg baseProfile="tiny" height="100%" version="1.2" viewBox="0,0,500,500" width="100%" xmlns="http://www.w3.org/2000/svg" xmlns:ev="http://www.w3.org/2001/xml-events" xmlns:xlink="http://www.w3.org/1999/xlink"><defs /><circle cx="185.0" cy="364.0" fill="black" r="3" /><circle cx="385.0" cy="164.0" fill="black" r="3" /><circle cx="290.0" cy="366.0" fill="black" r="3" /><circle cx="383.0" cy="269.0" fill="black" r="3" /><circle cx="90.0" cy="166.0" fill="black" r="3" /><circle cx="183.0" cy="69.0" fill="black" r="3" /><circle cx="90.0" cy="269.0" fill="black" r="3" /><circle cx="290.0" cy="69.0" fill="black" r="3" /><circle cx="285.0" cy="264.0" fill="black" r="3" /><circle cx="188.0" cy="171.0" fill="black" r="3" /><circle cx="188.0" cy="264.0" fill="black" r="3" /><circle cx="385.0" cy="364.0" fill="black" r="3" /><circle cx="383.0" cy="69.0" fill="black" r="3" /><circle cx="90.0" cy="69.0" fill="black" r="3" /><circle cx="88.0" cy="364.0" fill="black" r="3" /><circle cx="283.0" cy="169.0" fill="black" r="3" /><circle cx="337.0" cy="120.0" fill="black" r="3" /><circle cx="334.0" cy="318.0" fill="black" r="3" /><circle cx="139.0" cy="318.0" fill="black" r="3" /><circle cx="134.0" cy="118.0" fill="black" r="3" /><circle cx="237.0" cy="215.0" fill="black" r="3" /><line stroke="blue" stroke-width="2" x1="88.0" x2="383.0" y1="364.0" y2="69.0" /><line stroke="blue" stroke-width="2" x1="90.0" x2="385.0" y1="69.0" y2="364.0" /><line stroke="blue" stroke-width="2" x1="185.0" x2="183.0" y1="364.0" y2="69.0" /><line stroke="blue" stroke-width="2" x1="385.0" x2="383.0" y1="364.0" y2="69.0" /><line stroke="blue" stroke-width="2" x1="90.0" x2="385.0" y1="166.0" y2="164.0" /><line stroke="blue" stroke-width="2" x1="290.0" x2="290.0" y1="366.0" y2="69.0" /><line stroke="blue" stroke-width="2" x1="88.0" x2="385.0" y1="364.0" y2="364.0" /><line stroke="blue" stroke-width="2" x1="90.0" x2="383.0" y1="69.0" y2="69.0" /><line stroke="blue" stroke-width="2" x1="88.0" x2="90.0" y1="364.0" y2="69.0" /><line stroke="blue" stroke-width="2" x1="90.0" x2="383.0" y1="269.0" y2="269.0" /><line stroke="blue" stroke-width="2" x1="290.0" x2="385.0" y1="69.0" y2="164.0" /><line stroke="blue" stroke-width="2" x1="90.0" x2="183.0" y1="166.0" y2="69.0" /><line stroke="blue" stroke-width="2" x1="290.0" x2="383.0" y1="366.0" y2="269.0" /><line stroke="blue" stroke-width="2" x1="90.0" x2="185.0" y1="269.0" y2="364.0" /><line stroke="blue" stroke-width="2" x1="90.0" x2="183.0" y1="69.0" y2="69.0" /><line stroke="blue" stroke-width="2" x1="183.0" x2="290.0" y1="69.0" y2="69.0" /><line stroke="blue" stroke-width="2" x1="290.0" x2="383.0" y1="69.0" y2="69.0" /><line stroke="blue" stroke-width="2" x1="88.0" x2="185.0" y1="364.0" y2="364.0" /><line stroke="blue" stroke-width="2" x1="185.0" x2="290.0" y1="364.0" y2="366.0" /><line stroke="blue" stroke-width="2" x1="290.0" x2="385.0" y1="366.0" y2="364.0" /><line stroke="blue" stroke-width="2" x1="90.0" x2="134.0" y1="69.0" y2="118.0" /><line stroke="blue" stroke-width="2" x1="134.0" x2="90.0" y1="118.0" y2="166.0" /><line stroke="blue" stroke-width="2" x1="90.0" x2="90.0" y1="166.0" y2="269.0" /><line stroke="blue" stroke-width="2" x1="90.0" x2="88.0" y1="269.0" y2="364.0" /><line stroke="blue" stroke-width="2" x1="383.0" x2="337.0" y1="69.0" y2="120.0" /><line stroke="blue" stroke-width="2" x1="337.0" x2="385.0" y1="120.0" y2="164.0" /><line stroke="blue" stroke-width="2" x1="385.0" x2="383.0" y1="164.0" y2="269.0" /><line stroke="blue" stroke-width="2" x1="383.0" x2="385.0" y1="269.0" y2="364.0" /></svg>