<?xml version="1.0" encoding="utf-8" ?>
<svg baseProfile="tiny" height="100%" version="1.2" width="100%" xmlns="http://www.w3.org/2000/svg" xmlns:ev="http://www.w3.org/2001/xml-events" xmlns:xlink="http://www.w3.org/1999/xlink"><defs /><circle cx="253.0" cy="242.0" fill="black" r="3" /><circle cx="251.0" cy="47.0" fill="black" r="3" /><circle cx="58.0" cy="47.0" fill="black" r="3" /><circle cx="58.0" cy="244.0" fill="black" r="3" /><circle cx="61.0" cy="138.0" fill="black" r="3" /><circle cx="162.0" cy="52.0" fill="black" r="3" /><circle cx="159.0" cy="243.0" fill="black" r="3" /><circle cx="247.0" cy="152.0" fill="black" r="3" /><circle cx="156.0" cy="144.0" fill="black" r="3" /><circle cx="134.0" cy="128.0" fill="black" r="3" /><circle cx="171.0" cy="126.0" fill="black" r="3" /><circle cx="175.0" cy="163.0" fill="black" r="3" /><circle cx="137.0" cy="166.0" fill="black" r="3" /><circle cx="210.0" cy="169.0" fill="black" r="3" /><circle cx="176.0" cy="213.0" fill="black" r="3" /><circle cx="176.0" cy="178.0" fill="black" r="3" /><circle cx="176.0" cy="78.0" fill="black" r="3" /><circle cx="133.0" cy="78.0" fill="black" r="3" /><circle cx="133.0" cy="213.0" fill="black" r="3" /><circle cx="66.0" cy="156.0" fill="black" r="3" /><circle cx="145.0" cy="56.0" fill="black" r="3" /><line stroke="blue" stroke-width="2" x1="58.0" x2="251.0" y1="244.0" y2="47.0" /><line stroke="blue" stroke-width="2" x1="58.0" x2="251.0" y1="47.0" y2="47.0" /><line stroke="blue" stroke-width="2" x1="58.0" x2="58.0" y1="244.0" y2="47.0" /><line stroke="blue" stroke-width="2" x1="58.0" x2="253.0" y1="244.0" y2="242.0" /><line stroke="blue" stroke-width="2" x1="58.0" x2="253.0" y1="47.0" y2="242.0" /><line stroke="blue" stroke-width="2" x1="253.0" x2="251.0" y1="242.0" y2="47.0" /><line stroke="blue" stroke-width="2" x1="171.0" x2="176.0" y1="126.0" y2="78.0" /><line stroke="blue" stroke-width="2" x1="175.0" x2="210.0" y1="163.0" y2="169.0" /><line stroke="blue" stroke-width="2" x1="134.0" x2="175.0" y1="128.0" y2="163.0" /><line stroke="blue" stroke-width="2" x1="175.0" x2="176.0" y1="163.0" y2="213.0" /><line stroke="blue" stroke-width="2" x1="159.0" x2="176.0" y1="243.0" y2="213.0" /><line stroke="blue" stroke-width="2" x1="66.0" x2="137.0" y1="156.0" y2="166.0" /><line stroke="blue" stroke-width="2" x1="133.0" x2="134.0" y1="78.0" y2="128.0" /><line stroke="blue" stroke-width="2" x1="162.0" x2="176.0" y1="52.0" y2="78.0" /><line stroke="blue" stroke-width="2" x1="133.0" x2="162.0" y1="78.0" y2="52.0" /><line stroke="blue" stroke-width="2" x1="137.0" x2="171.0" y1="166.0" y2="126.0" /><line stroke="blue" stroke-width="2" x1="133.0" x2="159.0" y1="213.0" y2="243.0" /><line stroke="blue" stroke-width="2" x1="61.0" x2="66.0" y1="138.0" y2="156.0" /><line stroke="blue" stroke-width="2" x1="58.0" x2="145.0" y1="47.0" y2="56.0" /><line stroke="blue" stroke-width="2" x1="145.0" x2="162.0" y1="56.0" y2="52.0" /><line stroke="blue" stroke-width="2" x1="162.0" x2="251.0" y1="52.0" y2="47.0" /><line stroke="blue" stroke-width="2" x1="58.0" x2="159.0" y1="244.0" y2="243.0" /><line stroke="blue" stroke-width="2" x1="159.0" x2="253.0" y1="243.0" y2="242.0" /><line stroke="blue" stroke-width="2" x1="58.0" x2="61.0" y1="47.0" y2="138.0" /><line stroke="blue" stroke-width="2" x1="66.0" x2="58.0" y1="156.0" y2="244.0" /><line stroke="blue" stroke-width="2" x1="251.0" x2="247.0" y1="47.0" y2="152.0" /><line stroke="blue" stroke-width="2" x1="247.0" x2="253.0" y1="152.0" y2="242.0" /><path d="M58.0,47.0 Q52.0,247.0 253.0,242.0" fill="none" stroke="red" stroke-width="2" /><path d="M58.0,244.0 Q256.0,248.0 251.0,47.0" fill="none" stroke="red" stroke-width="2" /><path d="M156.0,144.0 Q154.0,145.0 171.0,126.0" fill="none" stroke="red" stroke-width="2" /></svg>