<?xml version="1.0" encoding="utf-8" ?>
<svg baseProfile="tiny" height="100%" version="1.2" viewBox="0,0,500,500" width="100%" xmlns="http://www.w3.org/2000/svg" xmlns:ev="http://www.w3.org/2001/xml-events" xmlns:xlink="http://www.w3.org/1999/xlink"><defs /><circle cx="53.0" cy="33.0" fill="black" r="3" /><circle cx="35.0" cy="61.0" fill="black" r="3" /><circle cx="89.0" cy="43.0" fill="black" r="3" /><circle cx="107.0" cy="22.0" fill="black" r="3" /><circle cx="32.0" cy="127.0" fill="black" r="3" /><circle cx="39.0" cy="93.0" fill="black" r="3" /><circle cx="110.0" cy="98.0" fill="black" r="3" /><circle cx="204.0" cy="67.0" fill="black" r="3" /><circle cx="82.0" cy="127.0" fill="black" r="3" /><circle cx="79.0" cy="103.0" fill="black" r="3" /><circle cx="137.0" cy="29.0" fill="black" r="3" /><circle cx="130.0" cy="139.0" fill="black" r="3" /><circle cx="164.0" cy="90.0" fill="black" r="3" /><circle cx="71.0" cy="73.0" fill="black" r="3" /><circle cx="161.0" cy="72.0" fill="black" r="3" /><circle cx="187.0" cy="55.0" fill="black" r="3" /><circle cx="201.0" cy="88.0" fill="black" r="3" /><circle cx="156.0" cy="39.0" fill="black" r="3" /><circle cx="134.0" cy="58.0" fill="black" r="3" /><circle cx="184.0" cy="150.0" fill="black" r="3" /><circle cx="93.0" cy="169.0" fill="black" r="3" /><circle cx="196.0" cy="118.0" fill="black" r="3" /><circle cx="44.0" cy="163.0" fill="black" r="3" /><circle cx="166.0" cy="177.0" fill="black" r="3" /><circle cx="122.0" cy="190.0" fill="black" r="3" /><circle cx="172.0" cy="60.0" fill="black" r="3" /><circle cx="175.0" cy="113.0" fill="black" r="3" /><circle cx="147.0" cy="181.0" fill="black" r="3" /><circle cx="143.0" cy="155.0" fill="black" r="3" /><circle cx="179.0" cy="92.0" fill="black" r="3" /><circle cx="56.0" cy="140.0" fill="black" r="3" /><circle cx="114.0" cy="117.0" fill="black" r="3" /><circle cx="75.0" cy="12.0" fill="black" r="3" /><circle cx="61.0" cy="170.0" fill="black" r="3" /><circle cx="34.0" cy="147.0" fill="black" r="3" /><circle cx="123.0" cy="169.0" fill="black" r="3" /><circle cx="95.0" cy="190.0" fill="black" r="3" /><circle cx="81.0" cy="148.0" fill="black" r="3" /><circle cx="204.0" cy="103.0" fill="black" r="3" /><circle cx="17.0" cy="56.0" fill="black" r="3" /><circle cx="74.0" cy="178.0" fill="black" r="3" /><circle cx="129.0" cy="88.0" fill="black" r="3" /><circle cx="109.0" cy="75.0" fill="black" r="3" /><circle cx="7.0" cy="92.0" fill="black" r="3" /><circle cx="137.0" cy="13.0" fill="black" r="3" /><circle cx="6.0" cy="127.0" fill="black" r="3" /><circle cx="6.0" cy="109.0" fill="black" r="3" /><circle cx="11.0" cy="73.0" fill="black" r="3" /><circle cx="30.0" cy="41.0" fill="black" r="3" /><circle cx="219.0" cy="108.0" fill="black" r="3" /><circle cx="160.0" cy="149.0" fill="black" r="3" /><circle cx="177.0" cy="29.0" fill="black" r="3" /><circle cx="19.0" cy="162.0" fill="black" r="3" /><circle cx="112.0" cy="4.0" fill="black" r="3" /><circle cx="218.0" cy="125.0" fill="black" r="3" /><circle cx="31.0" cy="179.0" fill="black" r="3" /><circle cx="217.0" cy="89.0" fill="black" r="3" /><circle cx="10.0" cy="146.0" fill="black" r="3" /><circle cx="191.0" cy="38.0" fill="black" r="3" /><circle cx="157.0" cy="204.0" fill="black" r="3" /><circle cx="80.0" cy="208.0" fill="black" r="3" /><circle cx="220.0" cy="145.0" fill="black" r="3" /><circle cx="61.0" cy="200.0" fill="black" r="3" /><circle cx="201.0" cy="167.0" fill="black" r="3" /><circle cx="9.0" cy="13.0" fill="black" r="3" /><line stroke="blue" stroke-width="2" x1="19.0" x2="34.0" y1="162.0" y2="147.0" /><line stroke="blue" stroke-width="2" x1="10.0" x2="137.0" y1="146.0" y2="13.0" /><line stroke="blue" stroke-width="2" x1="6.0" x2="89.0" y1="127.0" y2="43.0" /><line stroke="blue" stroke-width="2" x1="134.0" x2="156.0" y1="58.0" y2="39.0" /><line stroke="blue" stroke-width="2" x1="56.0" x2="204.0" y1="140.0" y2="67.0" /><line stroke="blue" stroke-width="2" x1="32.0" x2="177.0" y1="127.0" y2="29.0" /><line stroke="blue" stroke-width="2" x1="7.0" x2="177.0" y1="92.0" y2="29.0" /><line stroke="blue" stroke-width="2" x1="75.0" x2="80.0" y1="12.0" y2="208.0" /><line stroke="blue" stroke-width="2" x1="129.0" x2="191.0" y1="88.0" y2="38.0" /><line stroke="blue" stroke-width="2" x1="19.0" x2="204.0" y1="162.0" y2="67.0" /><line stroke="blue" stroke-width="2" x1="80.0" x2="204.0" y1="208.0" y2="67.0" /><line stroke="blue" stroke-width="2" x1="164.0" x2="191.0" y1="90.0" y2="38.0" /><line stroke="blue" stroke-width="2" x1="10.0" x2="34.0" y1="146.0" y2="147.0" /><line stroke="blue" stroke-width="2" x1="114.0" x2="147.0" y1="117.0" y2="181.0" /><line stroke="blue" stroke-width="2" x1="56.0" x2="191.0" y1="140.0" y2="38.0" /><line stroke="blue" stroke-width="2" x1="19.0" x2="134.0" y1="162.0" y2="58.0" /><line stroke="blue" stroke-width="2" x1="89.0" x2="137.0" y1="43.0" y2="13.0" /><line stroke="blue" stroke-width="2" x1="80.0" x2="123.0" y1="208.0" y2="169.0" /><line stroke="blue" stroke-width="2" x1="147.0" x2="191.0" y1="181.0" y2="38.0" /><line stroke="blue" stroke-width="2" x1="129.0" x2="156.0" y1="88.0" y2="39.0" /><line stroke="blue" stroke-width="2" x1="19.0" x2="160.0" y1="162.0" y2="149.0" /><line stroke="blue" stroke-width="2" x1="6.0" x2="39.0" y1="109.0" y2="93.0" /><line stroke="blue" stroke-width="2" x1="137.0" x2="184.0" y1="13.0" y2="150.0" /><line stroke="blue" stroke-width="2" x1="19.0" x2="112.0" y1="162.0" y2="4.0" /><line stroke="blue" stroke-width="2" x1="6.0" x2="164.0" y1="109.0" y2="90.0" /><line stroke="blue" stroke-width="2" x1="11.0" x2="129.0" y1="73.0" y2="88.0" /><line stroke="blue" stroke-width="2" x1="130.0" x2="184.0" y1="139.0" y2="150.0" /><line stroke="blue" stroke-width="2" x1="79.0" x2="177.0" y1="103.0" y2="29.0" /><line stroke="blue" stroke-width="2" x1="32.0" x2="191.0" y1="127.0" y2="38.0" /><line stroke="blue" stroke-width="2" x1="30.0" x2="107.0" y1="41.0" y2="22.0" /><line stroke="blue" stroke-width="2" x1="123.0" x2="175.0" y1="169.0" y2="113.0" /><line stroke="blue" stroke-width="2" x1="31.0" x2="191.0" y1="179.0" y2="38.0" /><line stroke="blue" stroke-width="2" x1="10.0" x2="32.0" y1="146.0" y2="127.0" /><line stroke="blue" stroke-width="2" x1="31.0" x2="143.0" y1="179.0" y2="155.0" /><line stroke="blue" stroke-width="2" x1="80.0" x2="130.0" y1="208.0" y2="139.0" /><line stroke="blue" stroke-width="2" x1="30.0" x2="137.0" y1="41.0" y2="13.0" /><line stroke="blue" stroke-width="2" x1="31.0" x2="129.0" y1="179.0" y2="88.0" /><line stroke="blue" stroke-width="2" x1="30.0" x2="109.0" y1="41.0" y2="75.0" /><line stroke="blue" stroke-width="2" x1="134.0" x2="201.0" y1="58.0" y2="88.0" /><line stroke="blue" stroke-width="2" x1="6.0" x2="110.0" y1="109.0" y2="98.0" /><line stroke="blue" stroke-width="2" x1="61.0" x2="79.0" y1="200.0" y2="103.0" /><line stroke="blue" stroke-width="2" x1="109.0" x2="177.0" y1="75.0" y2="29.0" /><line stroke="blue" stroke-width="2" x1="17.0" x2="109.0" y1="56.0" y2="75.0" /><line stroke="blue" stroke-width="2" x1="61.0" x2="82.0" y1="170.0" y2="127.0" /><line stroke="blue" stroke-width="2" x1="74.0" x2="191.0" y1="178.0" y2="38.0" /><line stroke="blue" stroke-width="2" x1="95.0" x2="112.0" y1="190.0" y2="4.0" /><line stroke="blue" stroke-width="2" x1="11.0" x2="114.0" y1="73.0" y2="117.0" /><line stroke="blue" stroke-width="2" x1="122.0" x2="187.0" y1="190.0" y2="55.0" /><line stroke="blue" stroke-width="2" x1="166.0" x2="160.0" y1="177.0" y2="149.0" /><line stroke="blue" stroke-width="2" x1="31.0" x2="32.0" y1="179.0" y2="127.0" /><line stroke="blue" stroke-width="2" x1="44.0" x2="204.0" y1="163.0" y2="67.0" /><line stroke="blue" stroke-width="2" x1="56.0" x2="75.0" y1="140.0" y2="12.0" /><line stroke="blue" stroke-width="2" x1="75.0" x2="204.0" y1="12.0" y2="67.0" /><line stroke="blue" stroke-width="2" x1="93.0" x2="217.0" y1="169.0" y2="89.0" /><line stroke="blue" stroke-width="2" x1="10.0" x2="44.0" y1="146.0" y2="163.0" /><line stroke="blue" stroke-width="2" x1="19.0" x2="44.0" y1="162.0" y2="163.0" /><line stroke="blue" stroke-width="2" x1="71.0" x2="89.0" y1="73.0" y2="43.0" /><line stroke="blue" stroke-width="2" x1="10.0" x2="39.0" y1="146.0" y2="93.0" /><line stroke="blue" stroke-width="2" x1="17.0" x2="177.0" y1="56.0" y2="29.0" /><line stroke="blue" stroke-width="2" x1="114.0" x2="187.0" y1="117.0" y2="55.0" /><line stroke="blue" stroke-width="2" x1="19.0" x2="79.0" y1="162.0" y2="103.0" /><line stroke="blue" stroke-width="2" x1="11.0" x2="82.0" y1="73.0" y2="127.0" /><line stroke="blue" stroke-width="2" x1="75.0" x2="196.0" y1="12.0" y2="118.0" /><line stroke="blue" stroke-width="2" x1="147.0" x2="177.0" y1="181.0" y2="29.0" /><line stroke="blue" stroke-width="2" x1="17.0" x2="196.0" y1="56.0" y2="118.0" /><line stroke="blue" stroke-width="2" x1="114.0" x2="122.0" y1="117.0" y2="190.0" /><line stroke="blue" stroke-width="2" x1="166.0" x2="204.0" y1="177.0" y2="67.0" /><line stroke="blue" stroke-width="2" x1="179.0" x2="204.0" y1="92.0" y2="67.0" /><line stroke="blue" stroke-width="2" x1="130.0" x2="122.0" y1="139.0" y2="190.0" /><line stroke="blue" stroke-width="2" x1="74.0" x2="110.0" y1="178.0" y2="98.0" /><line stroke="blue" stroke-width="2" x1="71.0" x2="177.0" y1="73.0" y2="29.0" /><line stroke="blue" stroke-width="2" x1="56.0" x2="110.0" y1="140.0" y2="98.0" /><line stroke="blue" stroke-width="2" x1="143.0" x2="184.0" y1="155.0" y2="150.0" /><line stroke="blue" stroke-width="2" x1="130.0" x2="204.0" y1="139.0" y2="67.0" /><line stroke="blue" stroke-width="2" x1="134.0" x2="177.0" y1="58.0" y2="29.0" /><line stroke="blue" stroke-width="2" x1="109.0" x2="122.0" y1="75.0" y2="190.0" /><line stroke="blue" stroke-width="2" x1="75.0" x2="172.0" y1="12.0" y2="60.0" /><line stroke="blue" stroke-width="2" x1="19.0" x2="175.0" y1="162.0" y2="113.0" /><line stroke="blue" stroke-width="2" x1="39.0" x2="71.0" y1="93.0" y2="73.0" /><line stroke="blue" stroke-width="2" x1="95.0" x2="166.0" y1="190.0" y2="177.0" /><line stroke="blue" stroke-width="2" x1="17.0" x2="134.0" y1="56.0" y2="58.0" /><line stroke="blue" stroke-width="2" x1="6.0" x2="82.0" y1="127.0" y2="127.0" /><line stroke="blue" stroke-width="2" x1="30.0" x2="187.0" y1="41.0" y2="55.0" /><line stroke="blue" stroke-width="2" x1="56.0" x2="147.0" y1="140.0" y2="181.0" /><line stroke="blue" stroke-width="2" x1="30.0" x2="156.0" y1="41.0" y2="39.0" /><line stroke="blue" stroke-width="2" x1="164.0" x2="166.0" y1="90.0" y2="177.0" /><line stroke="blue" stroke-width="2" x1="53.0" x2="177.0" y1="33.0" y2="29.0" /><line stroke="blue" stroke-width="2" x1="7.0" x2="129.0" y1="92.0" y2="88.0" /><line stroke="blue" stroke-width="2" x1="61.0" x2="160.0" y1="200.0" y2="149.0" /><line stroke="blue" stroke-width="2" x1="10.0" x2="122.0" y1="146.0" y2="190.0" /><line stroke="blue" stroke-width="2" x1="160.0" x2="177.0" y1="149.0" y2="29.0" /><line stroke="blue" stroke-width="2" x1="61.0" x2="166.0" y1="170.0" y2="177.0" /><line stroke="blue" stroke-width="2" x1="6.0" x2="75.0" y1="127.0" y2="12.0" /><line stroke="blue" stroke-width="2" x1="31.0" x2="75.0" y1="179.0" y2="12.0" /><line stroke="blue" stroke-width="2" x1="82.0" x2="129.0" y1="127.0" y2="88.0" /><line stroke="blue" stroke-width="2" x1="112.0" x2="161.0" y1="4.0" y2="72.0" /><line stroke="blue" stroke-width="2" x1="166.0" x2="175.0" y1="177.0" y2="113.0" /><line stroke="blue" stroke-width="2" x1="11.0" x2="31.0" y1="73.0" y2="179.0" /><line stroke="blue" stroke-width="2" x1="134.0" x2="137.0" y1="58.0" y2="29.0" /><line stroke="blue" stroke-width="2" x1="89.0" x2="177.0" y1="43.0" y2="29.0" /><line stroke="blue" stroke-width="2" x1="30.0" x2="114.0" y1="41.0" y2="117.0" /><line stroke="blue" stroke-width="2" x1="175.0" x2="204.0" y1="113.0" y2="67.0" /><line stroke="blue" stroke-width="2" x1="39.0" x2="177.0" y1="93.0" y2="29.0" /><line stroke="blue" stroke-width="2" x1="137.0" x2="204.0" y1="13.0" y2="67.0" /><line stroke="blue" stroke-width="2" x1="31.0" x2="82.0" y1="179.0" y2="127.0" /><line stroke="blue" stroke-width="2" x1="184.0" x2="204.0" y1="150.0" y2="103.0" /><line stroke="blue" stroke-width="2" x1="79.0" x2="187.0" y1="103.0" y2="55.0" /><line stroke="blue" stroke-width="2" x1="56.0" x2="114.0" y1="140.0" y2="117.0" /><line stroke="blue" stroke-width="2" x1="134.0" x2="191.0" y1="58.0" y2="38.0" /><line stroke="blue" stroke-width="2" x1="17.0" x2="71.0" y1="56.0" y2="73.0" /><line stroke="blue" stroke-width="2" x1="114.0" x2="129.0" y1="117.0" y2="88.0" /><line stroke="blue" stroke-width="2" x1="19.0" x2="56.0" y1="162.0" y2="140.0" /><line stroke="blue" stroke-width="2" x1="130.0" x2="147.0" y1="139.0" y2="181.0" /><line stroke="blue" stroke-width="2" x1="147.0" x2="175.0" y1="181.0" y2="113.0" /><line stroke="blue" stroke-width="2" x1="35.0" x2="75.0" y1="61.0" y2="12.0" /><line stroke="blue" stroke-width="2" x1="93.0" x2="161.0" y1="169.0" y2="72.0" /><line stroke="blue" stroke-width="2" x1="74.0" x2="130.0" y1="178.0" y2="139.0" /><line stroke="blue" stroke-width="2" x1="109.0" x2="129.0" y1="75.0" y2="88.0" /><line stroke="blue" stroke-width="2" x1="93.0" x2="160.0" y1="169.0" y2="149.0" /><line stroke="blue" stroke-width="2" x1="11.0" x2="71.0" y1="73.0" y2="73.0" /><line stroke="blue" stroke-width="2" x1="10.0" x2="79.0" y1="146.0" y2="103.0" /><line stroke="blue" stroke-width="2" x1="134.0" x2="187.0" y1="58.0" y2="55.0" /><line stroke="blue" stroke-width="2" x1="31.0" x2="39.0" y1="179.0" y2="93.0" /><line stroke="blue" stroke-width="2" x1="6.0" x2="112.0" y1="109.0" y2="4.0" /><line stroke="blue" stroke-width="2" x1="19.0" x2="53.0" y1="162.0" y2="33.0" /><line stroke="blue" stroke-width="2" x1="123.0" x2="166.0" y1="169.0" y2="177.0" /><line stroke="blue" stroke-width="2" x1="129.0" x2="177.0" y1="88.0" y2="29.0" /><line stroke="blue" stroke-width="2" x1="80.0" x2="114.0" y1="208.0" y2="117.0" /><line stroke="blue" stroke-width="2" x1="53.0" x2="156.0" y1="33.0" y2="39.0" /><line stroke="blue" stroke-width="2" x1="164.0" x2="204.0" y1="90.0" y2="67.0" /><line stroke="blue" stroke-width="2" x1="129.0" x2="196.0" y1="88.0" y2="118.0" /><line stroke="blue" stroke-width="2" x1="7.0" x2="81.0" y1="92.0" y2="148.0" /><line stroke="blue" stroke-width="2" x1="31.0" x2="44.0" y1="179.0" y2="163.0" /><line stroke="blue" stroke-width="2" x1="137.0" x2="177.0" y1="29.0" y2="29.0" /><line stroke="blue" stroke-width="2" x1="156.0" x2="204.0" y1="39.0" y2="67.0" /><line stroke="blue" stroke-width="2" x1="11.0" x2="122.0" y1="73.0" y2="190.0" /><line stroke="blue" stroke-width="2" x1="79.0" x2="129.0" y1="103.0" y2="88.0" /><line stroke="blue" stroke-width="2" x1="164.0" x2="204.0" y1="90.0" y2="103.0" /><line stroke="blue" stroke-width="2" x1="53.0" x2="89.0" y1="33.0" y2="43.0" /><line stroke="blue" stroke-width="2" x1="175.0" x2="201.0" y1="113.0" y2="88.0" /><line stroke="blue" stroke-width="2" x1="107.0" x2="204.0" y1="22.0" y2="67.0" /><line stroke="blue" stroke-width="2" x1="79.0" x2="107.0" y1="103.0" y2="22.0" /><line stroke="blue" stroke-width="2" x1="184.0" x2="204.0" y1="150.0" y2="67.0" /><line stroke="blue" stroke-width="2" x1="19.0" x2="109.0" y1="162.0" y2="75.0" /><line stroke="blue" stroke-width="2" x1="53.0" x2="107.0" y1="33.0" y2="22.0" /><line stroke="blue" stroke-width="2" x1="93.0" x2="130.0" y1="169.0" y2="139.0" /><line stroke="blue" stroke-width="2" x1="123.0" x2="191.0" y1="169.0" y2="38.0" /><line stroke="blue" stroke-width="2" x1="109.0" x2="137.0" y1="75.0" y2="13.0" /><line stroke="blue" stroke-width="2" x1="123.0" x2="143.0" y1="169.0" y2="155.0" /><line stroke="blue" stroke-width="2" x1="89.0" x2="134.0" y1="43.0" y2="58.0" /><line stroke="blue" stroke-width="2" x1="114.0" x2="161.0" y1="117.0" y2="72.0" /><line stroke="blue" stroke-width="2" x1="175.0" x2="177.0" y1="113.0" y2="29.0" /><line stroke="blue" stroke-width="2" x1="175.0" x2="196.0" y1="113.0" y2="118.0" /><line stroke="blue" stroke-width="2" x1="6.0" x2="34.0" y1="127.0" y2="147.0" /><line stroke="blue" stroke-width="2" x1="61.0" x2="143.0" y1="200.0" y2="155.0" /><line stroke="blue" stroke-width="2" x1="166.0" x2="204.0" y1="177.0" y2="103.0" /><line stroke="blue" stroke-width="2" x1="137.0" x2="177.0" y1="13.0" y2="29.0" /><line stroke="blue" stroke-width="2" x1="114.0" x2="204.0" y1="117.0" y2="67.0" /><line stroke="blue" stroke-width="2" x1="32.0" x2="35.0" y1="127.0" y2="61.0" /><line stroke="blue" stroke-width="2" x1="6.0" x2="53.0" y1="109.0" y2="33.0" /><line stroke="blue" stroke-width="2" x1="56.0" x2="112.0" y1="140.0" y2="4.0" /><line stroke="blue" stroke-width="2" x1="164.0" x2="184.0" y1="90.0" y2="150.0" /><line stroke="blue" stroke-width="2" x1="32.0" x2="89.0" y1="127.0" y2="43.0" /><line stroke="blue" stroke-width="2" x1="61.0" x2="81.0" y1="200.0" y2="148.0" /><line stroke="blue" stroke-width="2" x1="61.0" x2="122.0" y1="170.0" y2="190.0" /><line stroke="blue" stroke-width="2" x1="74.0" x2="147.0" y1="178.0" y2="181.0" /><line stroke="blue" stroke-width="2" x1="79.0" x2="71.0" y1="103.0" y2="73.0" /><line stroke="blue" stroke-width="2" x1="61.0" x2="123.0" y1="200.0" y2="169.0" /><line stroke="blue" stroke-width="2" x1="81.0" x2="130.0" y1="148.0" y2="139.0" /><line stroke="blue" stroke-width="2" x1="11.0" x2="75.0" y1="73.0" y2="12.0" /><line stroke="blue" stroke-width="2" x1="39.0" x2="204.0" y1="93.0" y2="67.0" /><line stroke="blue" stroke-width="2" x1="31.0" x2="61.0" y1="179.0" y2="170.0" /><line stroke="blue" stroke-width="2" x1="75.0" x2="137.0" y1="12.0" y2="29.0" /><line stroke="blue" stroke-width="2" x1="11.0" x2="39.0" y1="73.0" y2="93.0" /><line stroke="blue" stroke-width="2" x1="160.0" x2="201.0" y1="149.0" y2="88.0" /><line stroke="blue" stroke-width="2" x1="177.0" x2="179.0" y1="29.0" y2="92.0" /><line stroke="blue" stroke-width="2" x1="89.0" x2="112.0" y1="43.0" y2="4.0" /><line stroke="blue" stroke-width="2" x1="32.0" x2="61.0" y1="127.0" y2="200.0" /><line stroke="blue" stroke-width="2" x1="35.0" x2="137.0" y1="61.0" y2="29.0" /><line stroke="blue" stroke-width="2" x1="31.0" x2="74.0" y1="179.0" y2="178.0" /><line stroke="blue" stroke-width="2" x1="9.0" x2="75.0" y1="13.0" y2="12.0" /><line stroke="blue" stroke-width="2" x1="75.0" x2="107.0" y1="12.0" y2="22.0" /><line stroke="blue" stroke-width="2" x1="107.0" x2="112.0" y1="22.0" y2="4.0" /><line stroke="blue" stroke-width="2" x1="112.0" x2="137.0" y1="4.0" y2="13.0" /><line stroke="blue" stroke-width="2" x1="61.0" x2="80.0" y1="200.0" y2="208.0" /><line stroke="blue" stroke-width="2" x1="80.0" x2="95.0" y1="208.0" y2="190.0" /><line stroke="blue" stroke-width="2" x1="95.0" x2="122.0" y1="190.0" y2="190.0" /><line stroke="blue" stroke-width="2" x1="122.0" x2="157.0" y1="190.0" y2="204.0" /><line stroke="blue" stroke-width="2" x1="9.0" x2="17.0" y1="13.0" y2="56.0" /><line stroke="blue" stroke-width="2" x1="17.0" x2="11.0" y1="56.0" y2="73.0" /><line stroke="blue" stroke-width="2" x1="11.0" x2="7.0" y1="73.0" y2="92.0" /><line stroke="blue" stroke-width="2" x1="7.0" x2="6.0" y1="92.0" y2="109.0" /><line stroke="blue" stroke-width="2" x1="6.0" x2="6.0" y1="109.0" y2="127.0" /><line stroke="blue" stroke-width="2" x1="6.0" x2="10.0" y1="127.0" y2="146.0" /><line stroke="blue" stroke-width="2" x1="10.0" x2="19.0" y1="146.0" y2="162.0" /><line stroke="blue" stroke-width="2" x1="204.0" x2="201.0" y1="67.0" y2="88.0" /><line stroke="blue" stroke-width="2" x1="201.0" x2="217.0" y1="88.0" y2="89.0" /><line stroke="blue" stroke-width="2" x1="217.0" x2="204.0" y1="89.0" y2="103.0" /><line stroke="blue" stroke-width="2" x1="204.0" x2="219.0" y1="103.0" y2="108.0" /><line stroke="blue" stroke-width="2" x1="219.0" x2="218.0" y1="108.0" y2="125.0" /><line stroke="blue" stroke-width="2" x1="218.0" x2="220.0" y1="125.0" y2="145.0" /><line stroke="blue" stroke-width="2" x1="220.0" x2="201.0" y1="145.0" y2="167.0" /><path d="M201.0,167.0 Q211.0,215.0 157.0,204.0" fill="none" stroke="red" stroke-width="2" /><path d="M31.0,179.0 Q13.0,202.0 19.0,162.0" fill="none" stroke="red" stroke-width="2" /><path d="M95.0,190.0 Q95.0,204.0 80.0,208.0" fill="none" stroke="red" stroke-width="2" /><path d="M123.0,169.0 Q119.0,153.0 130.0,139.0" fill="none" stroke="red" stroke-width="2" /><path d="M81.0,148.0 Q77.0,141.0 82.0,127.0" fill="none" stroke="red" stroke-width="2" /><path d="M160.0,149.0 Q156.0,132.0 143.0,155.0" fill="none" stroke="red" stroke-width="2" /><path d="M164.0,90.0 Q169.0,93.0 179.0,92.0" fill="none" stroke="red" stroke-width="2" /><path d="M71.0,73.0 Q71.0,62.0 89.0,43.0" fill="none" stroke="red" stroke-width="2" /><path d="M110.0,98.0 Q113.0,98.0 129.0,88.0" fill="none" stroke="red" stroke-width="2" /><path d="M137.0,13.0 Q140.0,20.0 137.0,29.0" fill="none" stroke="red" stroke-width="2" /></svg>