<?xml version="1.0" encoding="utf-8" ?>
<svg baseProfile="tiny" height="100%" version="1.2" viewBox="0,0,500,500" width="100%" xmlns="http://www.w3.org/2000/svg" xmlns:ev="http://www.w3.org/2001/xml-events" xmlns:xlink="http://www.w3.org/1999/xlink"><defs /><circle cx="54.0" cy="176.0" fill="black" r="3" /><circle cx="168.0" cy="52.0" fill="black" r="3" /><circle cx="30.0" cy="85.0" fill="black" r="3" /><circle cx="103.0" cy="120.0" fill="black" r="3" /><circle cx="97.0" cy="54.0" fill="black" r="3" /><circle cx="69.0" cy="135.0" fill="black" r="3" /><circle cx="59.0" cy="96.0" fill="black" r="3" /><circle cx="117.0" cy="182.0" fill="black" r="3" /><circle cx="82.0" cy="164.0" fill="black" r="3" /><circle cx="120.0" cy="145.0" fill="black" r="3" /><circle cx="137.0" cy="58.0" fill="black" r="3" /><circle cx="184.0" cy="73.0" fill="black" r="3" /><circle cx="199.0" cy="103.0" fill="black" r="3" /><circle cx="172.0" cy="159.0" fill="black" r="3" /><circle cx="168.0" cy="95.0" fill="black" r="3" /><circle cx="162.0" cy="139.0" fill="black" r="3" /><circle cx="38.0" cy="124.0" fill="black" r="3" /><circle cx="52.0" cy="61.0" fill="black" r="3" /><circle cx="187.0" cy="92.0" fill="black" r="3" /><circle cx="98.0" cy="79.0" fill="black" r="3" /><circle cx="137.0" cy="94.0" fill="black" r="3" /><circle cx="109.0" cy="97.0" fill="black" r="3" /><circle cx="32.0" cy="185.0" fill="black" r="3" /><circle cx="161.0" cy="114.0" fill="black" r="3" /><circle cx="185.0" cy="123.0" fill="black" r="3" /><circle cx="135.0" cy="32.0" fill="black" r="3" /><circle cx="69.0" cy="42.0" fill="black" r="3" /><circle cx="106.0" cy="208.0" fill="black" r="3" /><circle cx="153.0" cy="67.0" fill="black" r="3" /><circle cx="145.0" cy="164.0" fill="black" r="3" /><circle cx="122.0" cy="74.0" fill="black" r="3" /><circle cx="45.0" cy="39.0" fill="black" r="3" /><circle cx="152.0" cy="189.0" fill="black" r="3" /><circle cx="131.0" cy="195.0" fill="black" r="3" /><circle cx="93.0" cy="188.0" fill="black" r="3" /><circle cx="204.0" cy="138.0" fill="black" r="3" /><circle cx="16.0" cy="107.0" fill="black" r="3" /><circle cx="110.0" cy="15.0" fill="black" r="3" /><circle cx="86.0" cy="23.0" fill="black" r="3" /><circle cx="208.0" cy="119.0" fill="black" r="3" /><circle cx="194.0" cy="44.0" fill="black" r="3" /><circle cx="178.0" cy="177.0" fill="black" r="3" /><circle cx="128.0" cy="11.0" fill="black" r="3" /><circle cx="27.0" cy="166.0" fill="black" r="3" /><circle cx="10.0" cy="87.0" fill="black" r="3" /><circle cx="27.0" cy="63.0" fill="black" r="3" /><circle cx="203.0" cy="73.0" fill="black" r="3" /><circle cx="22.0" cy="134.0" fill="black" r="3" /><circle cx="60.0" cy="27.0" fill="black" r="3" /><circle cx="221.0" cy="98.0" fill="black" r="3" /><circle cx="198.0" cy="168.0" fill="black" r="3" /><circle cx="53.0" cy="122.0" fill="black" r="3" /><circle cx="154.0" cy="23.0" fill="black" r="3" /><circle cx="180.0" cy="34.0" fill="black" r="3" /><circle cx="119.0" cy="109.0" fill="black" r="3" /><circle cx="34.0" cy="146.0" fill="black" r="3" /><line stroke="blue" stroke-width="2" x1="86.0" x2="204.0" y1="23.0" y2="138.0" /><line stroke="blue" stroke-width="2" x1="27.0" x2="152.0" y1="63.0" y2="189.0" /><line stroke="blue" stroke-width="2" x1="59.0" x2="203.0" y1="96.0" y2="73.0" /><line stroke="blue" stroke-width="2" x1="54.0" x2="98.0" y1="176.0" y2="79.0" /><line stroke="blue" stroke-width="2" x1="110.0" x2="204.0" y1="15.0" y2="138.0" /><line stroke="blue" stroke-width="2" x1="137.0" x2="154.0" y1="94.0" y2="23.0" /><line stroke="blue" stroke-width="2" x1="34.0" x2="135.0" y1="146.0" y2="32.0" /><line stroke="blue" stroke-width="2" x1="103.0" x2="172.0" y1="120.0" y2="159.0" /><line stroke="blue" stroke-width="2" x1="103.0" x2="168.0" y1="120.0" y2="95.0" /><line stroke="blue" stroke-width="2" x1="69.0" x2="120.0" y1="42.0" y2="145.0" /><line stroke="blue" stroke-width="2" x1="97.0" x2="203.0" y1="54.0" y2="73.0" /><line stroke="blue" stroke-width="2" x1="27.0" x2="69.0" y1="63.0" y2="135.0" /><line stroke="blue" stroke-width="2" x1="82.0" x2="168.0" y1="164.0" y2="95.0" /><line stroke="blue" stroke-width="2" x1="93.0" x2="168.0" y1="188.0" y2="52.0" /><line stroke="blue" stroke-width="2" x1="120.0" x2="203.0" y1="145.0" y2="73.0" /><line stroke="blue" stroke-width="2" x1="120.0" x2="162.0" y1="145.0" y2="139.0" /><line stroke="blue" stroke-width="2" x1="22.0" x2="98.0" y1="134.0" y2="79.0" /><line stroke="blue" stroke-width="2" x1="54.0" x2="120.0" y1="176.0" y2="145.0" /><line stroke="blue" stroke-width="2" x1="32.0" x2="82.0" y1="185.0" y2="164.0" /><line stroke="blue" stroke-width="2" x1="106.0" x2="199.0" y1="208.0" y2="103.0" /><line stroke="blue" stroke-width="2" x1="98.0" x2="135.0" y1="79.0" y2="32.0" /><line stroke="blue" stroke-width="2" x1="69.0" x2="54.0" y1="135.0" y2="176.0" /><line stroke="blue" stroke-width="2" x1="32.0" x2="122.0" y1="185.0" y2="74.0" /><line stroke="blue" stroke-width="2" x1="120.0" x2="152.0" y1="145.0" y2="189.0" /><line stroke="blue" stroke-width="2" x1="120.0" x2="161.0" y1="145.0" y2="114.0" /><line stroke="blue" stroke-width="2" x1="154.0" x2="152.0" y1="23.0" y2="189.0" /><line stroke="blue" stroke-width="2" x1="103.0" x2="204.0" y1="120.0" y2="138.0" /><line stroke="blue" stroke-width="2" x1="86.0" x2="103.0" y1="23.0" y2="120.0" /><line stroke="blue" stroke-width="2" x1="38.0" x2="59.0" y1="124.0" y2="96.0" /><line stroke="blue" stroke-width="2" x1="98.0" x2="154.0" y1="79.0" y2="23.0" /><line stroke="blue" stroke-width="2" x1="52.0" x2="203.0" y1="61.0" y2="73.0" /><line stroke="blue" stroke-width="2" x1="27.0" x2="135.0" y1="63.0" y2="32.0" /><line stroke="blue" stroke-width="2" x1="69.0" x2="98.0" y1="42.0" y2="79.0" /><line stroke="blue" stroke-width="2" x1="109.0" x2="187.0" y1="97.0" y2="92.0" /><line stroke="blue" stroke-width="2" x1="137.0" x2="135.0" y1="94.0" y2="32.0" /><line stroke="blue" stroke-width="2" x1="27.0" x2="106.0" y1="63.0" y2="208.0" /><line stroke="blue" stroke-width="2" x1="59.0" x2="109.0" y1="96.0" y2="97.0" /><line stroke="blue" stroke-width="2" x1="120.0" x2="187.0" y1="145.0" y2="92.0" /><line stroke="blue" stroke-width="2" x1="145.0" x2="161.0" y1="164.0" y2="114.0" /><line stroke="blue" stroke-width="2" x1="38.0" x2="161.0" y1="124.0" y2="114.0" /><line stroke="blue" stroke-width="2" x1="103.0" x2="137.0" y1="120.0" y2="94.0" /><line stroke="blue" stroke-width="2" x1="54.0" x2="109.0" y1="176.0" y2="97.0" /><line stroke="blue" stroke-width="2" x1="98.0" x2="168.0" y1="79.0" y2="52.0" /><line stroke="blue" stroke-width="2" x1="97.0" x2="154.0" y1="54.0" y2="23.0" /><line stroke="blue" stroke-width="2" x1="82.0" x2="204.0" y1="164.0" y2="138.0" /><line stroke="blue" stroke-width="2" x1="69.0" x2="154.0" y1="135.0" y2="23.0" /><line stroke="blue" stroke-width="2" x1="161.0" x2="184.0" y1="114.0" y2="73.0" /><line stroke="blue" stroke-width="2" x1="145.0" x2="184.0" y1="164.0" y2="73.0" /><line stroke="blue" stroke-width="2" x1="117.0" x2="208.0" y1="182.0" y2="119.0" /><line stroke="blue" stroke-width="2" x1="45.0" x2="109.0" y1="39.0" y2="97.0" /><line stroke="blue" stroke-width="2" x1="59.0" x2="93.0" y1="96.0" y2="188.0" /><line stroke="blue" stroke-width="2" x1="59.0" x2="135.0" y1="96.0" y2="32.0" /><line stroke="blue" stroke-width="2" x1="109.0" x2="199.0" y1="97.0" y2="103.0" /><line stroke="blue" stroke-width="2" x1="38.0" x2="30.0" y1="124.0" y2="85.0" /><line stroke="blue" stroke-width="2" x1="59.0" x2="54.0" y1="96.0" y2="176.0" /><line stroke="blue" stroke-width="2" x1="30.0" x2="59.0" y1="85.0" y2="96.0" /><line stroke="blue" stroke-width="2" x1="131.0" x2="185.0" y1="195.0" y2="123.0" /><line stroke="blue" stroke-width="2" x1="168.0" x2="187.0" y1="95.0" y2="92.0" /><line stroke="blue" stroke-width="2" x1="154.0" x2="168.0" y1="23.0" y2="95.0" /><line stroke="blue" stroke-width="2" x1="54.0" x2="106.0" y1="176.0" y2="208.0" /><line stroke="blue" stroke-width="2" x1="27.0" x2="153.0" y1="63.0" y2="67.0" /><line stroke="blue" stroke-width="2" x1="162.0" x2="204.0" y1="139.0" y2="138.0" /><line stroke="blue" stroke-width="2" x1="69.0" x2="93.0" y1="135.0" y2="188.0" /><line stroke="blue" stroke-width="2" x1="52.0" x2="110.0" y1="61.0" y2="15.0" /><line stroke="blue" stroke-width="2" x1="98.0" x2="86.0" y1="79.0" y2="23.0" /><line stroke="blue" stroke-width="2" x1="117.0" x2="161.0" y1="182.0" y2="114.0" /><line stroke="blue" stroke-width="2" x1="137.0" x2="168.0" y1="94.0" y2="52.0" /><line stroke="blue" stroke-width="2" x1="69.0" x2="103.0" y1="42.0" y2="120.0" /><line stroke="blue" stroke-width="2" x1="38.0" x2="45.0" y1="124.0" y2="39.0" /><line stroke="blue" stroke-width="2" x1="54.0" x2="82.0" y1="176.0" y2="164.0" /><line stroke="blue" stroke-width="2" x1="52.0" x2="59.0" y1="61.0" y2="96.0" /><line stroke="blue" stroke-width="2" x1="185.0" x2="203.0" y1="123.0" y2="73.0" /><line stroke="blue" stroke-width="2" x1="145.0" x2="172.0" y1="164.0" y2="159.0" /><line stroke="blue" stroke-width="2" x1="69.0" x2="117.0" y1="135.0" y2="182.0" /><line stroke="blue" stroke-width="2" x1="54.0" x2="53.0" y1="176.0" y2="122.0" /><line stroke="blue" stroke-width="2" x1="82.0" x2="162.0" y1="164.0" y2="139.0" /><line stroke="blue" stroke-width="2" x1="34.0" x2="45.0" y1="146.0" y2="39.0" /><line stroke="blue" stroke-width="2" x1="82.0" x2="86.0" y1="164.0" y2="23.0" /><line stroke="blue" stroke-width="2" x1="110.0" x2="162.0" y1="15.0" y2="139.0" /><line stroke="blue" stroke-width="2" x1="120.0" x2="185.0" y1="145.0" y2="123.0" /><line stroke="blue" stroke-width="2" x1="109.0" x2="168.0" y1="97.0" y2="52.0" /><line stroke="blue" stroke-width="2" x1="34.0" x2="162.0" y1="146.0" y2="139.0" /><line stroke="blue" stroke-width="2" x1="27.0" x2="98.0" y1="63.0" y2="79.0" /><line stroke="blue" stroke-width="2" x1="145.0" x2="162.0" y1="164.0" y2="139.0" /><line stroke="blue" stroke-width="2" x1="122.0" x2="185.0" y1="74.0" y2="123.0" /><line stroke="blue" stroke-width="2" x1="52.0" x2="86.0" y1="61.0" y2="23.0" /><line stroke="blue" stroke-width="2" x1="168.0" x2="204.0" y1="95.0" y2="138.0" /><line stroke="blue" stroke-width="2" x1="22.0" x2="59.0" y1="134.0" y2="96.0" /><line stroke="blue" stroke-width="2" x1="97.0" x2="109.0" y1="54.0" y2="97.0" /><line stroke="blue" stroke-width="2" x1="119.0" x2="162.0" y1="109.0" y2="139.0" /><line stroke="blue" stroke-width="2" x1="137.0" x2="185.0" y1="94.0" y2="123.0" /><line stroke="blue" stroke-width="2" x1="69.0" x2="86.0" y1="135.0" y2="23.0" /><line stroke="blue" stroke-width="2" x1="34.0" x2="30.0" y1="146.0" y2="85.0" /><line stroke="blue" stroke-width="2" x1="93.0" x2="119.0" y1="188.0" y2="109.0" /><line stroke="blue" stroke-width="2" x1="22.0" x2="103.0" y1="134.0" y2="120.0" /><line stroke="blue" stroke-width="2" x1="120.0" x2="137.0" y1="145.0" y2="94.0" /><line stroke="blue" stroke-width="2" x1="69.0" x2="135.0" y1="135.0" y2="32.0" /><line stroke="blue" stroke-width="2" x1="120.0" x2="119.0" y1="145.0" y2="109.0" /><line stroke="blue" stroke-width="2" x1="38.0" x2="106.0" y1="124.0" y2="208.0" /><line stroke="blue" stroke-width="2" x1="82.0" x2="106.0" y1="164.0" y2="208.0" /><line stroke="blue" stroke-width="2" x1="93.0" x2="120.0" y1="188.0" y2="145.0" /><line stroke="blue" stroke-width="2" x1="153.0" x2="203.0" y1="67.0" y2="73.0" /><line stroke="blue" stroke-width="2" x1="69.0" x2="103.0" y1="135.0" y2="120.0" /><line stroke="blue" stroke-width="2" x1="32.0" x2="54.0" y1="185.0" y2="176.0" /><line stroke="blue" stroke-width="2" x1="97.0" x2="137.0" y1="54.0" y2="58.0" /><line stroke="blue" stroke-width="2" x1="154.0" x2="153.0" y1="23.0" y2="67.0" /><line stroke="blue" stroke-width="2" x1="82.0" x2="187.0" y1="164.0" y2="92.0" /><line stroke="blue" stroke-width="2" x1="103.0" x2="145.0" y1="120.0" y2="164.0" /><line stroke="blue" stroke-width="2" x1="117.0" x2="145.0" y1="182.0" y2="164.0" /><line stroke="blue" stroke-width="2" x1="98.0" x2="137.0" y1="79.0" y2="94.0" /><line stroke="blue" stroke-width="2" x1="30.0" x2="97.0" y1="85.0" y2="54.0" /><line stroke="blue" stroke-width="2" x1="52.0" x2="122.0" y1="61.0" y2="74.0" /><line stroke="blue" stroke-width="2" x1="30.0" x2="69.0" y1="85.0" y2="42.0" /><line stroke="blue" stroke-width="2" x1="131.0" x2="199.0" y1="195.0" y2="103.0" /><line stroke="blue" stroke-width="2" x1="69.0" x2="97.0" y1="42.0" y2="54.0" /><line stroke="blue" stroke-width="2" x1="38.0" x2="98.0" y1="124.0" y2="79.0" /><line stroke="blue" stroke-width="2" x1="54.0" x2="103.0" y1="176.0" y2="120.0" /><line stroke="blue" stroke-width="2" x1="110.0" x2="168.0" y1="15.0" y2="52.0" /><line stroke="blue" stroke-width="2" x1="162.0" x2="199.0" y1="139.0" y2="103.0" /><line stroke="blue" stroke-width="2" x1="59.0" x2="184.0" y1="96.0" y2="73.0" /><line stroke="blue" stroke-width="2" x1="161.0" x2="203.0" y1="114.0" y2="73.0" /><line stroke="blue" stroke-width="2" x1="117.0" x2="185.0" y1="182.0" y2="123.0" /><line stroke="blue" stroke-width="2" x1="32.0" x2="93.0" y1="185.0" y2="188.0" /><line stroke="blue" stroke-width="2" x1="137.0" x2="203.0" y1="94.0" y2="73.0" /><line stroke="blue" stroke-width="2" x1="30.0" x2="52.0" y1="85.0" y2="61.0" /><line stroke="blue" stroke-width="2" x1="69.0" x2="119.0" y1="135.0" y2="109.0" /><line stroke="blue" stroke-width="2" x1="86.0" x2="153.0" y1="23.0" y2="67.0" /><line stroke="blue" stroke-width="2" x1="30.0" x2="53.0" y1="85.0" y2="122.0" /><line stroke="blue" stroke-width="2" x1="59.0" x2="69.0" y1="96.0" y2="135.0" /><line stroke="blue" stroke-width="2" x1="60.0" x2="86.0" y1="27.0" y2="23.0" /><line stroke="blue" stroke-width="2" x1="86.0" x2="110.0" y1="23.0" y2="15.0" /><line stroke="blue" stroke-width="2" x1="110.0" x2="128.0" y1="15.0" y2="11.0" /><line stroke="blue" stroke-width="2" x1="128.0" x2="135.0" y1="11.0" y2="32.0" /><line stroke="blue" stroke-width="2" x1="135.0" x2="154.0" y1="32.0" y2="23.0" /><line stroke="blue" stroke-width="2" x1="93.0" x2="106.0" y1="188.0" y2="208.0" /><line stroke="blue" stroke-width="2" x1="106.0" x2="131.0" y1="208.0" y2="195.0" /><line stroke="blue" stroke-width="2" x1="131.0" x2="152.0" y1="195.0" y2="189.0" /><line stroke="blue" stroke-width="2" x1="27.0" x2="30.0" y1="63.0" y2="85.0" /><line stroke="blue" stroke-width="2" x1="30.0" x2="10.0" y1="85.0" y2="87.0" /><line stroke="blue" stroke-width="2" x1="10.0" x2="16.0" y1="87.0" y2="107.0" /><line stroke="blue" stroke-width="2" x1="16.0" x2="22.0" y1="107.0" y2="134.0" /><line stroke="blue" stroke-width="2" x1="22.0" x2="27.0" y1="134.0" y2="166.0" /><line stroke="blue" stroke-width="2" x1="27.0" x2="32.0" y1="166.0" y2="185.0" /><line stroke="blue" stroke-width="2" x1="203.0" x2="221.0" y1="73.0" y2="98.0" /><line stroke="blue" stroke-width="2" x1="221.0" x2="199.0" y1="98.0" y2="103.0" /><line stroke="blue" stroke-width="2" x1="199.0" x2="208.0" y1="103.0" y2="119.0" /><line stroke="blue" stroke-width="2" x1="208.0" x2="204.0" y1="119.0" y2="138.0" /><path d="M45.0,39.0 Q0.0,220.0 198.0,168.0" fill="none" stroke="red" stroke-width="2" /><path d="M32.0,185.0 Q227.0,220.0 194.0,44.0" fill="none" stroke="red" stroke-width="2" /><path d="M54.0,176.0 Q58.0,178.0 32.0,185.0" fill="none" stroke="red" stroke-width="2" /><path d="M82.0,164.0 Q88.0,154.0 69.0,135.0" fill="none" stroke="red" stroke-width="2" /><path d="M145.0,164.0 Q139.0,152.0 120.0,145.0" fill="none" stroke="red" stroke-width="2" /><path d="M185.0,123.0 Q172.0,122.0 161.0,114.0" fill="none" stroke="red" stroke-width="2" /><path d="M119.0,109.0 Q127.0,114.0 137.0,94.0" fill="none" stroke="red" stroke-width="2" /><path d="M53.0,122.0 Q55.0,118.0 38.0,124.0" fill="none" stroke="red" stroke-width="2" /><path d="M103.0,120.0 Q101.0,108.0 109.0,97.0" fill="none" stroke="red" stroke-width="2" /><path d="M122.0,74.0 Q117.0,85.0 109.0,97.0" fill="none" stroke="red" stroke-width="2" /><path d="M184.0,73.0 Q173.0,79.0 168.0,95.0" fill="none" stroke="red" stroke-width="2" /><path d="M52.0,61.0 Q59.0,73.0 59.0,96.0" fill="none" stroke="red" stroke-width="2" /><path d="M137.0,58.0 Q140.0,50.0 135.0,32.0" fill="none" stroke="red" stroke-width="2" /><path d="M97.0,54.0 Q96.0,47.0 86.0,23.0" fill="none" stroke="red" stroke-width="2" /></svg>