<?xml version="1.0" encoding="utf-8" ?>
<svg baseProfile="tiny" height="100%" version="1.2" viewBox="0,0,500,500" width="100%" xmlns="http://www.w3.org/2000/svg" xmlns:ev="http://www.w3.org/2001/xml-events" xmlns:xlink="http://www.w3.org/1999/xlink"><defs /><circle cx="139.0" cy="101.0" fill="black" r="3" /><circle cx="68.0" cy="131.0" fill="black" r="3" /><circle cx="113.0" cy="157.0" fill="black" r="3" /><circle cx="138.0" cy="64.0" fill="black" r="3" /><circle cx="91.0" cy="140.0" fill="black" r="3" /><circle cx="132.0" cy="146.0" fill="black" r="3" /><circle cx="171.0" cy="104.0" fill="black" r="3" /><circle cx="63.0" cy="106.0" fill="black" r="3" /><circle cx="94.0" cy="72.0" fill="black" r="3" /><circle cx="81.0" cy="196.0" fill="black" r="3" /><circle cx="150.0" cy="197.0" fill="black" r="3" /><circle cx="101.0" cy="109.0" fill="black" r="3" /><circle cx="207.0" cy="116.0" fill="black" r="3" /><circle cx="78.0" cy="20.0" fill="black" r="3" /><circle cx="176.0" cy="168.0" fill="black" r="3" /><circle cx="163.0" cy="21.0" fill="black" r="3" /><circle cx="46.0" cy="184.0" fill="black" r="3" /><circle cx="172.0" cy="193.0" fill="black" r="3" /><circle cx="37.0" cy="60.0" fill="black" r="3" /><circle cx="62.0" cy="195.0" fill="black" r="3" /><circle cx="146.0" cy="22.0" fill="black" r="3" /><circle cx="58.0" cy="24.0" fill="black" r="3" /><circle cx="23.0" cy="119.0" fill="black" r="3" /><circle cx="164.0" cy="36.0" fill="black" r="3" /><circle cx="186.0" cy="62.0" fill="black" r="3" /><circle cx="77.0" cy="115.0" fill="black" r="3" /><circle cx="210.0" cy="97.0" fill="black" r="3" /><circle cx="17.0" cy="95.0" fill="black" r="3" /><circle cx="199.0" cy="86.0" fill="black" r="3" /><circle cx="117.0" cy="26.0" fill="black" r="3" /><circle cx="197.0" cy="150.0" fill="black" r="3" /><circle cx="30.0" cy="147.0" fill="black" r="3" /><circle cx="119.0" cy="198.0" fill="black" r="3" /><circle cx="68.0" cy="209.0" fill="black" r="3" /><circle cx="76.0" cy="97.0" fill="black" r="3" /><circle cx="45.0" cy="92.0" fill="black" r="3" /><circle cx="188.0" cy="118.0" fill="black" r="3" /><circle cx="142.0" cy="165.0" fill="black" r="3" /><circle cx="221.0" cy="109.0" fill="black" r="3" /><circle cx="42.0" cy="124.0" fill="black" r="3" /><circle cx="61.0" cy="47.0" fill="black" r="3" /><circle cx="160.0" cy="162.0" fill="black" r="3" /><circle cx="6.0" cy="112.0" fill="black" r="3" /><circle cx="85.0" cy="157.0" fill="black" r="3" /><circle cx="109.0" cy="79.0" fill="black" r="3" /><circle cx="148.0" cy="49.0" fill="black" r="3" /><circle cx="69.0" cy="169.0" fill="black" r="3" /><circle cx="97.0" cy="188.0" fill="black" r="3" /><circle cx="86.0" cy="56.0" fill="black" r="3" /><circle cx="166.0" cy="53.0" fill="black" r="3" /><circle cx="54.0" cy="158.0" fill="black" r="3" /><circle cx="90.0" cy="41.0" fill="black" r="3" /><circle cx="60.0" cy="81.0" fill="black" r="3" /><circle cx="195.0" cy="133.0" fill="black" r="3" /><circle cx="154.0" cy="177.0" fill="black" r="3" /><circle cx="114.0" cy="46.0" fill="black" r="3" /><circle cx="82.0" cy="180.0" fill="black" r="3" /><circle cx="11.0" cy="20.0" fill="black" r="3" /><circle cx="213.0" cy="215.0" fill="black" r="3" /><circle cx="32.0" cy="106.0" fill="black" r="3" /><circle cx="15.0" cy="184.0" fill="black" r="3" /><circle cx="215.0" cy="131.0" fill="black" r="3" /><circle cx="29.0" cy="201.0" fill="black" r="3" /><line stroke="blue" stroke-width="2" x1="58.0" x2="207.0" y1="24.0" y2="116.0" /><line stroke="blue" stroke-width="2" x1="97.0" x2="166.0" y1="188.0" y2="53.0" /><line stroke="blue" stroke-width="2" x1="78.0" x2="119.0" y1="20.0" y2="198.0" /><line stroke="blue" stroke-width="2" x1="6.0" x2="210.0" y1="112.0" y2="97.0" /><line stroke="blue" stroke-width="2" x1="63.0" x2="210.0" y1="106.0" y2="97.0" /><line stroke="blue" stroke-width="2" x1="114.0" x2="171.0" y1="46.0" y2="104.0" /><line stroke="blue" stroke-width="2" x1="139.0" x2="164.0" y1="101.0" y2="36.0" /><line stroke="blue" stroke-width="2" x1="58.0" x2="197.0" y1="24.0" y2="150.0" /><line stroke="blue" stroke-width="2" x1="62.0" x2="163.0" y1="195.0" y2="21.0" /><line stroke="blue" stroke-width="2" x1="91.0" x2="163.0" y1="140.0" y2="21.0" /><line stroke="blue" stroke-width="2" x1="146.0" x2="172.0" y1="22.0" y2="193.0" /><line stroke="blue" stroke-width="2" x1="32.0" x2="101.0" y1="106.0" y2="109.0" /><line stroke="blue" stroke-width="2" x1="132.0" x2="138.0" y1="146.0" y2="64.0" /><line stroke="blue" stroke-width="2" x1="113.0" x2="199.0" y1="157.0" y2="86.0" /><line stroke="blue" stroke-width="2" x1="60.0" x2="142.0" y1="81.0" y2="165.0" /><line stroke="blue" stroke-width="2" x1="109.0" x2="163.0" y1="79.0" y2="21.0" /><line stroke="blue" stroke-width="2" x1="68.0" x2="76.0" y1="209.0" y2="97.0" /><line stroke="blue" stroke-width="2" x1="139.0" x2="207.0" y1="101.0" y2="116.0" /><line stroke="blue" stroke-width="2" x1="60.0" x2="176.0" y1="81.0" y2="168.0" /><line stroke="blue" stroke-width="2" x1="42.0" x2="101.0" y1="124.0" y2="109.0" /><line stroke="blue" stroke-width="2" x1="54.0" x2="210.0" y1="158.0" y2="97.0" /><line stroke="blue" stroke-width="2" x1="30.0" x2="176.0" y1="147.0" y2="168.0" /><line stroke="blue" stroke-width="2" x1="23.0" x2="160.0" y1="119.0" y2="162.0" /><line stroke="blue" stroke-width="2" x1="46.0" x2="199.0" y1="184.0" y2="86.0" /><line stroke="blue" stroke-width="2" x1="91.0" x2="150.0" y1="140.0" y2="197.0" /><line stroke="blue" stroke-width="2" x1="94.0" x2="166.0" y1="72.0" y2="53.0" /><line stroke="blue" stroke-width="2" x1="62.0" x2="54.0" y1="195.0" y2="158.0" /><line stroke="blue" stroke-width="2" x1="58.0" x2="61.0" y1="24.0" y2="47.0" /><line stroke="blue" stroke-width="2" x1="78.0" x2="101.0" y1="20.0" y2="109.0" /><line stroke="blue" stroke-width="2" x1="42.0" x2="113.0" y1="124.0" y2="157.0" /><line stroke="blue" stroke-width="2" x1="109.0" x2="213.0" y1="79.0" y2="215.0" /><line stroke="blue" stroke-width="2" x1="60.0" x2="150.0" y1="81.0" y2="197.0" /><line stroke="blue" stroke-width="2" x1="60.0" x2="172.0" y1="81.0" y2="193.0" /><line stroke="blue" stroke-width="2" x1="30.0" x2="197.0" y1="147.0" y2="150.0" /><line stroke="blue" stroke-width="2" x1="77.0" x2="221.0" y1="115.0" y2="109.0" /><line stroke="blue" stroke-width="2" x1="76.0" x2="81.0" y1="97.0" y2="196.0" /><line stroke="blue" stroke-width="2" x1="132.0" x2="172.0" y1="146.0" y2="193.0" /><line stroke="blue" stroke-width="2" x1="68.0" x2="172.0" y1="131.0" y2="193.0" /><line stroke="blue" stroke-width="2" x1="62.0" x2="101.0" y1="195.0" y2="109.0" /><line stroke="blue" stroke-width="2" x1="58.0" x2="109.0" y1="24.0" y2="79.0" /><line stroke="blue" stroke-width="2" x1="60.0" x2="221.0" y1="81.0" y2="109.0" /><line stroke="blue" stroke-width="2" x1="6.0" x2="109.0" y1="112.0" y2="79.0" /><line stroke="blue" stroke-width="2" x1="86.0" x2="138.0" y1="56.0" y2="64.0" /><line stroke="blue" stroke-width="2" x1="30.0" x2="172.0" y1="147.0" y2="193.0" /><line stroke="blue" stroke-width="2" x1="60.0" x2="166.0" y1="81.0" y2="53.0" /><line stroke="blue" stroke-width="2" x1="63.0" x2="119.0" y1="106.0" y2="198.0" /><line stroke="blue" stroke-width="2" x1="101.0" x2="199.0" y1="109.0" y2="86.0" /><line stroke="blue" stroke-width="2" x1="113.0" x2="142.0" y1="157.0" y2="165.0" /><line stroke="blue" stroke-width="2" x1="97.0" x2="138.0" y1="188.0" y2="64.0" /><line stroke="blue" stroke-width="2" x1="30.0" x2="60.0" y1="147.0" y2="81.0" /><line stroke="blue" stroke-width="2" x1="23.0" x2="42.0" y1="119.0" y2="124.0" /><line stroke="blue" stroke-width="2" x1="119.0" x2="160.0" y1="198.0" y2="162.0" /><line stroke="blue" stroke-width="2" x1="42.0" x2="138.0" y1="124.0" y2="64.0" /><line stroke="blue" stroke-width="2" x1="132.0" x2="210.0" y1="146.0" y2="97.0" /><line stroke="blue" stroke-width="2" x1="138.0" x2="166.0" y1="64.0" y2="53.0" /><line stroke="blue" stroke-width="2" x1="176.0" x2="172.0" y1="168.0" y2="193.0" /><line stroke="blue" stroke-width="2" x1="17.0" x2="171.0" y1="95.0" y2="104.0" /><line stroke="blue" stroke-width="2" x1="85.0" x2="186.0" y1="157.0" y2="62.0" /><line stroke="blue" stroke-width="2" x1="142.0" x2="160.0" y1="165.0" y2="162.0" /><line stroke="blue" stroke-width="2" x1="109.0" x2="207.0" y1="79.0" y2="116.0" /><line stroke="blue" stroke-width="2" x1="91.0" x2="210.0" y1="140.0" y2="97.0" /><line stroke="blue" stroke-width="2" x1="68.0" x2="94.0" y1="209.0" y2="72.0" /><line stroke="blue" stroke-width="2" x1="17.0" x2="101.0" y1="95.0" y2="109.0" /><line stroke="blue" stroke-width="2" x1="68.0" x2="113.0" y1="131.0" y2="157.0" /><line stroke="blue" stroke-width="2" x1="62.0" x2="188.0" y1="195.0" y2="118.0" /><line stroke="blue" stroke-width="2" x1="37.0" x2="90.0" y1="60.0" y2="41.0" /><line stroke="blue" stroke-width="2" x1="23.0" x2="68.0" y1="119.0" y2="209.0" /><line stroke="blue" stroke-width="2" x1="139.0" x2="176.0" y1="101.0" y2="168.0" /><line stroke="blue" stroke-width="2" x1="46.0" x2="138.0" y1="184.0" y2="64.0" /><line stroke="blue" stroke-width="2" x1="119.0" x2="142.0" y1="198.0" y2="165.0" /><line stroke="blue" stroke-width="2" x1="150.0" x2="197.0" y1="197.0" y2="150.0" /><line stroke="blue" stroke-width="2" x1="61.0" x2="117.0" y1="47.0" y2="26.0" /><line stroke="blue" stroke-width="2" x1="139.0" x2="171.0" y1="101.0" y2="104.0" /><line stroke="blue" stroke-width="2" x1="132.0" x2="150.0" y1="146.0" y2="197.0" /><line stroke="blue" stroke-width="2" x1="97.0" x2="113.0" y1="188.0" y2="157.0" /><line stroke="blue" stroke-width="2" x1="138.0" x2="164.0" y1="64.0" y2="36.0" /><line stroke="blue" stroke-width="2" x1="46.0" x2="54.0" y1="184.0" y2="158.0" /><line stroke="blue" stroke-width="2" x1="146.0" x2="166.0" y1="22.0" y2="53.0" /><line stroke="blue" stroke-width="2" x1="61.0" x2="199.0" y1="47.0" y2="86.0" /><line stroke="blue" stroke-width="2" x1="63.0" x2="188.0" y1="106.0" y2="118.0" /><line stroke="blue" stroke-width="2" x1="119.0" x2="188.0" y1="198.0" y2="118.0" /><line stroke="blue" stroke-width="2" x1="17.0" x2="172.0" y1="95.0" y2="193.0" /><line stroke="blue" stroke-width="2" x1="32.0" x2="91.0" y1="106.0" y2="140.0" /><line stroke="blue" stroke-width="2" x1="139.0" x2="172.0" y1="101.0" y2="193.0" /><line stroke="blue" stroke-width="2" x1="58.0" x2="90.0" y1="24.0" y2="41.0" /><line stroke="blue" stroke-width="2" x1="188.0" x2="210.0" y1="118.0" y2="97.0" /><line stroke="blue" stroke-width="2" x1="58.0" x2="94.0" y1="24.0" y2="72.0" /><line stroke="blue" stroke-width="2" x1="61.0" x2="186.0" y1="47.0" y2="62.0" /><line stroke="blue" stroke-width="2" x1="6.0" x2="42.0" y1="112.0" y2="124.0" /><line stroke="blue" stroke-width="2" x1="76.0" x2="101.0" y1="97.0" y2="109.0" /><line stroke="blue" stroke-width="2" x1="69.0" x2="101.0" y1="169.0" y2="109.0" /><line stroke="blue" stroke-width="2" x1="132.0" x2="197.0" y1="146.0" y2="150.0" /><line stroke="blue" stroke-width="2" x1="113.0" x2="172.0" y1="157.0" y2="193.0" /><line stroke="blue" stroke-width="2" x1="69.0" x2="85.0" y1="169.0" y2="157.0" /><line stroke="blue" stroke-width="2" x1="94.0" x2="171.0" y1="72.0" y2="104.0" /><line stroke="blue" stroke-width="2" x1="45.0" x2="132.0" y1="92.0" y2="146.0" /><line stroke="blue" stroke-width="2" x1="148.0" x2="163.0" y1="49.0" y2="21.0" /><line stroke="blue" stroke-width="2" x1="85.0" x2="86.0" y1="157.0" y2="56.0" /><line stroke="blue" stroke-width="2" x1="85.0" x2="150.0" y1="157.0" y2="197.0" /><line stroke="blue" stroke-width="2" x1="77.0" x2="139.0" y1="115.0" y2="101.0" /><line stroke="blue" stroke-width="2" x1="77.0" x2="160.0" y1="115.0" y2="162.0" /><line stroke="blue" stroke-width="2" x1="148.0" x2="164.0" y1="49.0" y2="36.0" /><line stroke="blue" stroke-width="2" x1="60.0" x2="63.0" y1="81.0" y2="106.0" /><line stroke="blue" stroke-width="2" x1="46.0" x2="81.0" y1="184.0" y2="196.0" /><line stroke="blue" stroke-width="2" x1="30.0" x2="45.0" y1="147.0" y2="92.0" /><line stroke="blue" stroke-width="2" x1="138.0" x2="171.0" y1="64.0" y2="104.0" /><line stroke="blue" stroke-width="2" x1="86.0" x2="78.0" y1="56.0" y2="20.0" /><line stroke="blue" stroke-width="2" x1="68.0" x2="171.0" y1="209.0" y2="104.0" /><line stroke="blue" stroke-width="2" x1="94.0" x2="101.0" y1="72.0" y2="109.0" /><line stroke="blue" stroke-width="2" x1="199.0" x2="207.0" y1="86.0" y2="116.0" /><line stroke="blue" stroke-width="2" x1="171.0" x2="207.0" y1="104.0" y2="116.0" /><line stroke="blue" stroke-width="2" x1="32.0" x2="94.0" y1="106.0" y2="72.0" /><line stroke="blue" stroke-width="2" x1="54.0" x2="85.0" y1="158.0" y2="157.0" /><line stroke="blue" stroke-width="2" x1="62.0" x2="81.0" y1="195.0" y2="196.0" /><line stroke="blue" stroke-width="2" x1="138.0" x2="163.0" y1="64.0" y2="21.0" /><line stroke="blue" stroke-width="2" x1="132.0" x2="139.0" y1="146.0" y2="101.0" /><line stroke="blue" stroke-width="2" x1="132.0" x2="171.0" y1="146.0" y2="104.0" /><line stroke="blue" stroke-width="2" x1="82.0" x2="188.0" y1="180.0" y2="118.0" /><line stroke="blue" stroke-width="2" x1="42.0" x2="85.0" y1="124.0" y2="157.0" /><line stroke="blue" stroke-width="2" x1="139.0" x2="148.0" y1="101.0" y2="49.0" /><line stroke="blue" stroke-width="2" x1="113.0" x2="188.0" y1="157.0" y2="118.0" /><line stroke="blue" stroke-width="2" x1="86.0" x2="139.0" y1="56.0" y2="101.0" /><line stroke="blue" stroke-width="2" x1="32.0" x2="119.0" y1="106.0" y2="198.0" /><line stroke="blue" stroke-width="2" x1="142.0" x2="172.0" y1="165.0" y2="193.0" /><line stroke="blue" stroke-width="2" x1="30.0" x2="81.0" y1="147.0" y2="196.0" /><line stroke="blue" stroke-width="2" x1="90.0" x2="117.0" y1="41.0" y2="26.0" /><line stroke="blue" stroke-width="2" x1="42.0" x2="150.0" y1="124.0" y2="197.0" /><line stroke="blue" stroke-width="2" x1="101.0" x2="163.0" y1="109.0" y2="21.0" /><line stroke="blue" stroke-width="2" x1="42.0" x2="60.0" y1="124.0" y2="81.0" /><line stroke="blue" stroke-width="2" x1="97.0" x2="150.0" y1="188.0" y2="197.0" /><line stroke="blue" stroke-width="2" x1="15.0" x2="29.0" y1="184.0" y2="201.0" /><line stroke="blue" stroke-width="2" x1="109.0" x2="164.0" y1="79.0" y2="36.0" /><line stroke="blue" stroke-width="2" x1="46.0" x2="68.0" y1="184.0" y2="209.0" /><line stroke="blue" stroke-width="2" x1="163.0" x2="166.0" y1="21.0" y2="53.0" /><line stroke="blue" stroke-width="2" x1="171.0" x2="210.0" y1="104.0" y2="97.0" /><line stroke="blue" stroke-width="2" x1="42.0" x2="68.0" y1="124.0" y2="131.0" /><line stroke="blue" stroke-width="2" x1="32.0" x2="76.0" y1="106.0" y2="97.0" /><line stroke="blue" stroke-width="2" x1="78.0" x2="94.0" y1="20.0" y2="72.0" /><line stroke="blue" stroke-width="2" x1="132.0" x2="199.0" y1="146.0" y2="86.0" /><line stroke="blue" stroke-width="2" x1="11.0" x2="58.0" y1="20.0" y2="24.0" /><line stroke="blue" stroke-width="2" x1="58.0" x2="78.0" y1="24.0" y2="20.0" /><line stroke="blue" stroke-width="2" x1="78.0" x2="90.0" y1="20.0" y2="41.0" /><line stroke="blue" stroke-width="2" x1="117.0" x2="146.0" y1="26.0" y2="22.0" /><line stroke="blue" stroke-width="2" x1="146.0" x2="163.0" y1="22.0" y2="21.0" /><line stroke="blue" stroke-width="2" x1="163.0" x2="164.0" y1="21.0" y2="36.0" /><line stroke="blue" stroke-width="2" x1="29.0" x2="62.0" y1="201.0" y2="195.0" /><line stroke="blue" stroke-width="2" x1="62.0" x2="68.0" y1="195.0" y2="209.0" /><line stroke="blue" stroke-width="2" x1="68.0" x2="81.0" y1="209.0" y2="196.0" /><line stroke="blue" stroke-width="2" x1="81.0" x2="119.0" y1="196.0" y2="198.0" /><line stroke="blue" stroke-width="2" x1="119.0" x2="150.0" y1="198.0" y2="197.0" /><line stroke="blue" stroke-width="2" x1="150.0" x2="213.0" y1="197.0" y2="215.0" /><line stroke="blue" stroke-width="2" x1="11.0" x2="17.0" y1="20.0" y2="95.0" /><line stroke="blue" stroke-width="2" x1="17.0" x2="6.0" y1="95.0" y2="112.0" /><line stroke="blue" stroke-width="2" x1="6.0" x2="23.0" y1="112.0" y2="119.0" /><line stroke="blue" stroke-width="2" x1="23.0" x2="15.0" y1="119.0" y2="184.0" /><line stroke="blue" stroke-width="2" x1="199.0" x2="210.0" y1="86.0" y2="97.0" /><line stroke="blue" stroke-width="2" x1="210.0" x2="221.0" y1="97.0" y2="109.0" /><line stroke="blue" stroke-width="2" x1="221.0" x2="207.0" y1="109.0" y2="116.0" /><line stroke="blue" stroke-width="2" x1="207.0" x2="215.0" y1="116.0" y2="131.0" /><line stroke="blue" stroke-width="2" x1="215.0" x2="213.0" y1="131.0" y2="215.0" /><path d="M221.0,109.0 Q210.0,87.0 199.0,86.0" fill="none" stroke="red" stroke-width="2" /><path d="M210.0,97.0 Q192.0,83.0 171.0,104.0" fill="none" stroke="red" stroke-width="2" /><path d="M199.0,86.0 Q179.0,100.0 139.0,101.0" fill="none" stroke="red" stroke-width="2" /><path d="M171.0,104.0 Q138.0,105.0 171.0,104.0" fill="none" stroke="red" stroke-width="2" /><path d="M139.0,101.0 Q155.0,109.0 139.0,101.0" fill="none" stroke="red" stroke-width="2" /><path d="M171.0,104.0 Q140.0,114.0 139.0,101.0" fill="none" stroke="red" stroke-width="2" /><path d="M139.0,101.0 Q152.0,120.0 171.0,104.0" fill="none" stroke="red" stroke-width="2" /><path d="M139.0,101.0 Q174.0,107.0 215.0,131.0" fill="none" stroke="red" stroke-width="2" /><path d="M78.0,20.0 Q54.0,33.0 58.0,24.0" fill="none" stroke="red" stroke-width="2" /><path d="M58.0,24.0 Q61.0,35.0 61.0,47.0" fill="none" stroke="red" stroke-width="2" /><path d="M58.0,24.0 Q58.0,40.0 58.0,24.0" fill="none" stroke="red" stroke-width="2" /><path d="M61.0,47.0 Q50.0,36.0 86.0,56.0" fill="none" stroke="red" stroke-width="2" /><path d="M58.0,24.0 Q87.0,61.0 78.0,20.0" fill="none" stroke="red" stroke-width="2" /><path d="M163.0,21.0 Q155.0,19.0 146.0,22.0" fill="none" stroke="red" stroke-width="2" /><path d="M163.0,21.0 Q142.0,24.0 148.0,49.0" fill="none" stroke="red" stroke-width="2" /><path d="M146.0,22.0 Q146.0,41.0 138.0,64.0" fill="none" stroke="red" stroke-width="2" /><path d="M148.0,49.0 Q141.0,57.0 166.0,53.0" fill="none" stroke="red" stroke-width="2" /><path d="M138.0,64.0 Q174.0,44.0 164.0,36.0" fill="none" stroke="red" stroke-width="2" /><path d="M166.0,53.0 Q179.0,35.0 164.0,36.0" fill="none" stroke="red" stroke-width="2" /><path d="M164.0,36.0 Q169.0,36.0 164.0,36.0" fill="none" stroke="red" stroke-width="2" /><path d="M164.0,36.0 Q177.0,33.0 164.0,36.0" fill="none" stroke="red" stroke-width="2" /><path d="M113.0,157.0 Q111.0,169.0 97.0,188.0" fill="none" stroke="red" stroke-width="2" /><path d="M54.0,158.0 Q50.0,146.0 30.0,147.0" fill="none" stroke="red" stroke-width="2" /><path d="M160.0,162.0 Q159.0,137.0 132.0,146.0" fill="none" stroke="red" stroke-width="2" /><path d="M195.0,133.0 Q178.0,134.0 188.0,118.0" fill="none" stroke="red" stroke-width="2" /><path d="M42.0,124.0 Q51.0,129.0 68.0,131.0" fill="none" stroke="red" stroke-width="2" /><path d="M101.0,109.0 Q115.0,104.0 139.0,101.0" fill="none" stroke="red" stroke-width="2" /><path d="M186.0,62.0 Q171.0,72.0 166.0,53.0" fill="none" stroke="red" stroke-width="2" /><path d="M60.0,81.0 Q60.0,74.0 45.0,92.0" fill="none" stroke="red" stroke-width="2" /><path d="M114.0,46.0 Q110.0,56.0 94.0,72.0" fill="none" stroke="red" stroke-width="2" /><path d="M114.0,46.0 Q108.0,39.0 117.0,26.0" fill="none" stroke="red" stroke-width="2" /><path d="M117.0,26.0 Q116.0,27.0 114.0,46.0" fill="none" stroke="red" stroke-width="2" /></svg>