<?xml version="1.0" encoding="utf-8" ?>
<svg baseProfile="tiny" height="100%" version="1.2" viewBox="0,0,500,500" width="100%" xmlns="http://www.w3.org/2000/svg" xmlns:ev="http://www.w3.org/2001/xml-events" xmlns:xlink="http://www.w3.org/1999/xlink"><defs /><circle cx="353" cy="253" fill="black" r="3" /><circle cx="485" cy="311" fill="black" r="3" /><circle cx="220" cy="201" fill="black" r="3" /><circle cx="382" cy="392" fill="black" r="3" /><circle cx="401" cy="301" fill="black" r="3" /><circle cx="416" cy="79" fill="black" r="3" /><circle cx="313" cy="280" fill="black" r="3" /><circle cx="352" cy="71" fill="black" r="3" /><circle cx="473" cy="139" fill="black" r="3" /><circle cx="289" cy="41" fill="black" r="3" /><circle cx="314" cy="77" fill="black" r="3" /><circle cx="427" cy="385" fill="black" r="3" /><circle cx="428" cy="460" fill="black" r="3" /><circle cx="343" cy="374" fill="black" r="3" /><circle cx="481" cy="75" fill="black" r="3" /><circle cx="532" cy="332" fill="black" r="3" /><circle cx="152" cy="371" fill="black" r="3" /><circle cx="386" cy="443" fill="black" r="3" /><circle cx="412" cy="248" fill="black" r="3" /><circle cx="472" cy="109" fill="black" r="3" /><circle cx="609" cy="329" fill="black" r="3" /><circle cx="223" cy="349" fill="black" r="3" /><circle cx="257" cy="145" fill="black" r="3" /><circle cx="323" cy="463" fill="black" r="3" /><circle cx="376" cy="89" fill="black" r="3" /><circle cx="427" cy="317" fill="black" r="3" /><circle cx="547" cy="161" fill="black" r="3" /><circle cx="433" cy="167" fill="black" r="3" /><circle cx="182" cy="190" fill="black" r="3" /><circle cx="555" cy="263" fill="black" r="3" /><circle cx="580" cy="280" fill="black" r="3" /><circle cx="151" cy="322" fill="black" r="3" /><circle cx="343" cy="157" fill="black" r="3" /><circle cx="172" cy="257" fill="black" r="3" /><circle cx="187" cy="230" fill="black" r="3" /><circle cx="207" cy="403" fill="black" r="3" /><circle cx="293" cy="100" fill="black" r="3" /><circle cx="386" cy="349" fill="black" r="3" /><circle cx="436" cy="110" fill="black" r="3" /><circle cx="514" cy="265" fill="black" r="3" /><circle cx="547" cy="368" fill="black" r="3" /><circle cx="604" cy="188" fill="black" r="3" /><circle cx="121" cy="356" fill="black" r="3" /><circle cx="181" cy="304" fill="black" r="3" /><circle cx="230" cy="158" fill="black" r="3" /><circle cx="248" cy="284" fill="black" r="3" /><circle cx="250" cy="465" fill="black" r="3" /><circle cx="283" cy="311" fill="black" r="3" /><circle cx="355" cy="465" fill="black" r="3" /><circle cx="389" cy="475" fill="black" r="3" /><circle cx="439" cy="265" fill="black" r="3" /><circle cx="453" cy="49" fill="black" r="3" /><circle cx="489" cy="463" fill="black" r="3" /><circle cx="515" cy="413" fill="black" r="3" /><circle cx="616" cy="361" fill="black" r="3" /><circle cx="182" cy="160" fill="black" r="3" /><circle cx="232" cy="235" fill="black" r="3" /><circle cx="292" cy="140" fill="black" r="3" /><circle cx="331" cy="406" fill="black" r="3" /><circle cx="502" cy="125" fill="black" r="3" /><circle cx="518" cy="230" fill="black" r="3" /><circle cx="549" cy="410" fill="black" r="3" /><circle cx="566" cy="194" fill="black" r="3" /><circle cx="203" cy="259" fill="black" r="3" /><circle cx="359" cy="301" fill="black" r="3" /><circle cx="451" cy="337" fill="black" r="3" /><circle cx="455" cy="303" fill="black" r="3" /><circle cx="248" cy="106" fill="black" r="3" /><circle cx="116" cy="280" fill="black" r="3" /><circle cx="212" cy="464" fill="black" r="3" /><circle cx="259" cy="181" fill="black" r="3" /><circle cx="269" cy="235" fill="black" r="3" /><circle cx="284" cy="472" fill="black" r="3" /><circle cx="310" cy="335" fill="black" r="3" /><circle cx="505" cy="170" fill="black" r="3" /><circle cx="557" cy="305" fill="black" r="3" /><circle cx="574" cy="224" fill="black" r="3" /><circle cx="148" cy="179" fill="black" r="3" /><circle cx="232" cy="79" fill="black" r="3" /><circle cx="259" cy="392" fill="black" r="3" /><circle cx="327" cy="110" fill="black" r="3" /><circle cx="376" cy="229" fill="black" r="3" /><circle cx="463" cy="491" fill="black" r="3" /><circle cx="577" cy="355" fill="black" r="3" /><circle cx="277" cy="71" fill="black" r="3" /><circle cx="254" cy="352" fill="black" r="3" /><circle cx="299" cy="224" fill="black" r="3" /><circle cx="382" cy="265" fill="black" r="3" /><circle cx="184" cy="344" fill="black" r="3" /><circle cx="386" cy="141" fill="black" r="3" /><circle cx="532" cy="123" fill="black" r="3" /><circle cx="146" cy="230" fill="black" r="3" /><circle cx="242" cy="422" fill="black" r="3" /><circle cx="338" cy="515" fill="black" r="3" /><circle cx="461" cy="403" fill="black" r="3" /><circle cx="499" cy="359" fill="black" r="3" /><circle cx="579" cy="153" fill="black" r="3" /><circle cx="166" cy="442" fill="black" r="3" /><circle cx="299" cy="499" fill="black" r="3" /><circle cx="452" cy="203" fill="black" r="3" /><circle cx="454" cy="443" fill="black" r="3" /><circle cx="487" cy="209" fill="black" r="3" /><circle cx="523" cy="196" fill="black" r="3" /><circle cx="266" cy="499" fill="black" r="3" /><circle cx="459" cy="233" fill="black" r="3" /><circle cx="473" cy="178" fill="black" r="3" /><circle cx="296" cy="175" fill="black" r="3" /><circle cx="44" cy="386" fill="black" r="3" /><circle cx="109" cy="325" fill="black" r="3" /><circle cx="203" cy="505" fill="black" r="3" /><circle cx="301" cy="413" fill="black" r="3" /><circle cx="355" cy="125" fill="black" r="3" /><circle cx="356" cy="431" fill="black" r="3" /><circle cx="379" cy="179" fill="black" r="3" /><circle cx="451" cy="79" fill="black" r="3" /><circle cx="319" cy="46" fill="black" r="3" /><circle cx="573" cy="387" fill="black" r="3" /><circle cx="368" cy="506" fill="black" r="3" /><circle cx="425" cy="529" fill="black" r="3" /><circle cx="119" cy="389" fill="black" r="3" /><circle cx="211" cy="109" fill="black" r="3" /><circle cx="289" cy="385" fill="black" r="3" /><circle cx="527" cy="293" fill="black" r="3" /><circle cx="122" cy="424" fill="black" r="3" /><circle cx="345" cy="220" fill="black" r="3" /><circle cx="214" cy="301" fill="black" r="3" /><circle cx="380" cy="58" fill="black" r="3" /><circle cx="409" cy="418" fill="black" r="3" /><circle cx="531" cy="465" fill="black" r="3" /><circle cx="299" cy="445" fill="black" r="3" /><circle cx="77" cy="317" fill="black" r="3" /><circle cx="111" cy="183" fill="black" r="3" /><circle cx="164" cy="403" fill="black" r="3" /><circle cx="195" cy="430" fill="black" r="3" /><circle cx="272" cy="428" fill="black" r="3" /><circle cx="346" cy="187" fill="black" r="3" /><circle cx="469" cy="361" fill="black" r="3" /><circle cx="417" cy="26" fill="black" r="3" /><circle cx="476" cy="266" fill="black" r="3" /><circle cx="484" cy="526" fill="black" r="3" /><circle cx="521" cy="503" fill="black" r="3" /><circle cx="231" cy="527" fill="black" r="3" /><circle cx="45" cy="525" fill="black" r="3" /><circle cx="89" cy="362" fill="black" r="3" /><circle cx="118" cy="247" fill="black" r="3" /><circle cx="43" cy="37" fill="black" r="3" /><circle cx="115" cy="148" fill="black" r="3" /><circle cx="166" cy="21" fill="black" r="3" /><circle cx="485" cy="422" fill="black" r="3" /><circle cx="331" cy="311" fill="black" r="3" /><circle cx="86" cy="278" fill="black" r="3" /><circle cx="178" cy="64" fill="black" r="3" /><circle cx="244" cy="317" fill="black" r="3" /><circle cx="604" cy="425" fill="black" r="3" /><circle cx="401" cy="109" fill="black" r="3" /><circle cx="230" cy="490" fill="black" r="3" /><circle cx="85" cy="248" fill="black" r="3" /><circle cx="452" cy="19" fill="black" r="3" /><circle cx="502" cy="29" fill="black" r="3" /><circle cx="627" cy="134" fill="black" r="3" /><circle cx="247" cy="50" fill="black" r="3" /><circle cx="40" cy="485" fill="black" r="3" /><circle cx="406" cy="205" fill="black" r="3" /><circle cx="421" cy="137" fill="black" r="3" /><circle cx="700" cy="67" fill="black" r="3" /><circle cx="118" cy="458" fill="black" r="3" /><circle cx="149" cy="290" fill="black" r="3" /><circle cx="189" cy="130" fill="black" r="3" /><circle cx="118" cy="500" fill="black" r="3" /><circle cx="256" cy="21" fill="black" r="3" /><circle cx="296" cy="530" fill="black" r="3" /><circle cx="681" cy="97" fill="black" r="3" /><circle cx="647" cy="311" fill="black" r="3" /><circle cx="351" cy="21" fill="black" r="3" /><circle cx="417" cy="356" fill="black" r="3" /><circle cx="51" cy="437" fill="black" r="3" /><circle cx="82" cy="22" fill="black" r="3" /><circle cx="86" cy="415" fill="black" r="3" /><circle cx="95" cy="95" fill="black" r="3" /><circle cx="109" cy="213" fill="black" r="3" /><circle cx="19" cy="433" fill="black" r="3" /><circle cx="343" cy="343" fill="black" r="3" /><circle cx="61" cy="350" fill="black" r="3" /><circle cx="147" cy="537" fill="black" r="3" /><circle cx="596" cy="254" fill="black" r="3" /><circle cx="47" cy="315" fill="black" r="3" /><circle cx="179" cy="539" fill="black" r="3" /><circle cx="205" cy="373" fill="black" r="3" /><circle cx="278" cy="265" fill="black" r="3" /><circle cx="610" cy="395" fill="black" r="3" /><circle cx="671" cy="286" fill="black" r="3" /><circle cx="143" cy="89" fill="black" r="3" /><circle cx="554" cy="487" fill="black" r="3" /><circle cx="215" cy="49" fill="black" r="3" /><circle cx="49" cy="86" fill="black" r="3" /><circle cx="705" cy="400" fill="black" r="3" /><circle cx="263" cy="541" fill="black" r="3" /><circle cx="533" cy="532" fill="black" r="3" /><circle cx="589" cy="457" fill="black" r="3" /><circle cx="710" cy="109" fill="black" r="3" /><circle cx="175" cy="476" fill="black" r="3" /><circle cx="161" cy="117" fill="black" r="3" /><circle cx="641" cy="406" fill="black" r="3" /><circle cx="489" cy="388" fill="black" r="3" /><circle cx="122" cy="111" fill="black" r="3" /><circle cx="679" cy="139" fill="black" r="3" /><circle cx="679" cy="196" fill="black" r="3" /><circle cx="550" cy="37" fill="black" r="3" /><circle cx="376" cy="536" fill="black" r="3" /><circle cx="607" cy="58" fill="black" r="3" /><circle cx="291" cy="9" fill="black" r="3" /><circle cx="613" cy="475" fill="black" r="3" /><circle cx="88" cy="472" fill="black" r="3" /><circle cx="619" cy="218" fill="black" r="3" /><circle cx="646" cy="182" fill="black" r="3" /><circle cx="653" cy="255" fill="black" r="3" /><circle cx="683" cy="509" fill="black" r="3" /><circle cx="321" cy="250" fill="black" r="3" /><circle cx="41" cy="266" fill="black" r="3" /><circle cx="616" cy="101" fill="black" r="3" /><circle cx="70" cy="55" fill="black" r="3" /><circle cx="430" cy="493" fill="black" r="3" /><circle cx="643" cy="61" fill="black" r="3" /><circle cx="667" cy="383" fill="black" r="3" /><circle cx="19" cy="367" fill="black" r="3" /><circle cx="17" cy="212" fill="black" r="3" /><circle cx="563" cy="515" fill="black" r="3" /><circle cx="587" cy="25" fill="black" r="3" /><circle cx="659" cy="472" fill="black" r="3" /><circle cx="381" cy="25" fill="black" r="3" /><circle cx="607" cy="536" fill="black" r="3" /><circle cx="17" cy="296" fill="black" r="3" /><circle cx="517" cy="56" fill="black" r="3" /><circle cx="653" cy="109" fill="black" r="3" /><circle cx="709" cy="148" fill="black" r="3" /><circle cx="689" cy="22" fill="black" r="3" /><circle cx="695" cy="439" fill="black" r="3" /><circle cx="701" cy="290" fill="black" r="3" /><circle cx="572" cy="123" fill="black" r="3" /><circle cx="321" cy="4" fill="black" r="3" /><circle cx="628" cy="447" fill="black" r="3" /><circle cx="17" cy="541" fill="black" r="3" /><circle cx="398" cy="513" fill="black" r="3" /><circle cx="82" cy="149" fill="black" r="3" /><circle cx="67" cy="190" fill="black" r="3" /><circle cx="701" cy="361" fill="black" r="3" /><circle cx="227" cy="13" fill="black" r="3" /><circle cx="603" cy="505" fill="black" r="3" /><circle cx="709" cy="218" fill="black" r="3" /><circle cx="11" cy="397" fill="black" r="3" /><circle cx="719" cy="37" fill="black" r="3" /><circle cx="525" cy="88" fill="black" r="3" /><circle cx="19" cy="113" fill="black" r="3" /><circle cx="8" cy="70" fill="black" r="3" /><circle cx="73" cy="513" fill="black" r="3" /><circle cx="565" cy="63" fill="black" r="3" /><circle cx="103" cy="531" fill="black" r="3" /><circle cx="19" cy="15" fill="black" r="3" /><circle cx="533" cy="8" fill="black" r="3" /><circle cx="13" cy="254" fill="black" r="3" /><circle cx="453" cy="543" fill="black" r="3" /><circle cx="37" cy="163" fill="black" r="3" /><circle cx="107" cy="39" fill="black" r="3" /><circle cx="700" cy="543" fill="black" r="3" /><circle cx="635" cy="507" fill="black" r="3" /><circle cx="14" cy="464" fill="black" r="3" /><circle cx="2" cy="184" fill="black" r="3" /><circle cx="677" cy="325" fill="black" r="3" /><circle cx="689" cy="254" fill="black" r="3" /><circle cx="661" cy="33" fill="black" r="3" /><circle cx="616" cy="279" fill="black" r="3" /><circle cx="197" cy="23" fill="black" r="3" /><circle cx="553" cy="442" fill="black" r="3" /><circle cx="635" cy="549" fill="black" r="3" /></svg>