<?xml version="1.0" encoding="utf-8" ?>
<svg baseProfile="tiny" height="100%" version="1.2" viewBox="0,0,500,500" width="100%" xmlns="http://www.w3.org/2000/svg" xmlns:ev="http://www.w3.org/2001/xml-events" xmlns:xlink="http://www.w3.org/1999/xlink"><defs /><circle cx="435.0" cy="165.0" fill="black" r="3" /><circle cx="283.0" cy="310.0" fill="black" r="3" /><circle cx="416.0" cy="79.0" fill="black" r="3" /><circle cx="277.0" cy="223.0" fill="black" r="3" /><circle cx="257.0" cy="145.0" fill="black" r="3" /><circle cx="404.0" cy="478.0" fill="black" r="3" /><circle cx="349.0" cy="80.0" fill="black" r="3" /><circle cx="146.0" cy="333.0" fill="black" r="3" /><circle cx="278.0" cy="103.0" fill="black" r="3" /><circle cx="451.0" cy="125.0" fill="black" r="3" /><circle cx="512.0" cy="157.0" fill="black" r="3" /><circle cx="287.0" cy="485.0" fill="black" r="3" /><circle cx="176.0" cy="304.0" fill="black" r="3" /><circle cx="541.0" cy="383.0" fill="black" r="3" /><circle cx="177.0" cy="188.0" fill="black" r="3" /><circle cx="227.0" cy="239.0" fill="black" r="3" /><circle cx="239.0" cy="424.0" fill="black" r="3" /><circle cx="308.0" cy="46.0" fill="black" r="3" /><circle cx="368.0" cy="443.0" fill="black" r="3" /><circle cx="416.0" cy="250.0" fill="black" r="3" /><circle cx="536.0" cy="191.0" fill="black" r="3" /><circle cx="256.0" cy="469.0" fill="black" r="3" /><circle cx="311.0" cy="94.0" fill="black" r="3" /><circle cx="355.0" cy="257.0" fill="black" r="3" /><circle cx="357.0" cy="109.0" fill="black" r="3" /><circle cx="447.0" cy="495.0" fill="black" r="3" /><circle cx="481.0" cy="75.0" fill="black" r="3" /><circle cx="484.0" cy="139.0" fill="black" r="3" /><circle cx="553.0" cy="266.0" fill="black" r="3" /><circle cx="604.0" cy="188.0" fill="black" r="3" /><circle cx="323.0" cy="463.0" fill="black" r="3" /><circle cx="239.0" cy="117.0" fill="black" r="3" /><circle cx="259.0" cy="181.0" fill="black" r="3" /><circle cx="461.0" cy="50.0" fill="black" r="3" /><circle cx="535.0" cy="338.0" fill="black" r="3" /><circle cx="386.0" cy="141.0" fill="black" r="3" /><circle cx="481.0" cy="224.0" fill="black" r="3" /><circle cx="193.0" cy="338.0" fill="black" r="3" /><circle cx="214.0" cy="272.0" fill="black" r="3" /><circle cx="473.0" cy="479.0" fill="black" r="3" /><circle cx="500.0" cy="111.0" fill="black" r="3" /><circle cx="253.0" cy="274.0" fill="black" r="3" /><circle cx="376.0" cy="229.0" fill="black" r="3" /><circle cx="487.0" cy="421.0" fill="black" r="3" /><circle cx="524.0" cy="285.0" fill="black" r="3" /><circle cx="577.0" cy="307.0" fill="black" r="3" /><circle cx="152.0" cy="371.0" fill="black" r="3" /><circle cx="220.0" cy="143.0" fill="black" r="3" /><circle cx="334.0" cy="227.0" fill="black" r="3" /><circle cx="352.0" cy="163.0" fill="black" r="3" /><circle cx="388.0" cy="269.0" fill="black" r="3" /><circle cx="451.0" cy="86.0" fill="black" r="3" /><circle cx="559.0" cy="214.0" fill="black" r="3" /><circle cx="583.0" cy="268.0" fill="black" r="3" /><circle cx="386.0" cy="61.0" fill="black" r="3" /><circle cx="176.0" cy="224.0" fill="black" r="3" /><circle cx="207.0" cy="403.0" fill="black" r="3" /><circle cx="305.0" cy="152.0" fill="black" r="3" /><circle cx="339.0" cy="369.0" fill="black" r="3" /><circle cx="405.0" cy="109.0" fill="black" r="3" /><circle cx="584.0" cy="152.0" fill="black" r="3" /><circle cx="607.0" cy="352.0" fill="black" r="3" /><circle cx="393.0" cy="393.0" fill="black" r="3" /><circle cx="425.0" cy="283.0" fill="black" r="3" /><circle cx="535.0" cy="413.0" fill="black" r="3" /><circle cx="427.0" cy="373.0" fill="black" r="3" /><circle cx="244.0" cy="375.0" fill="black" r="3" /><circle cx="483.0" cy="182.0" fill="black" r="3" /><circle cx="523.0" cy="230.0" fill="black" r="3" /><circle cx="547.0" cy="160.0" fill="black" r="3" /><circle cx="574.0" cy="374.0" fill="black" r="3" /><circle cx="427.0" cy="437.0" fill="black" r="3" /><circle cx="488.0" cy="317.0" fill="black" r="3" /><circle cx="535.0" cy="133.0" fill="black" r="3" /><circle cx="274.0" cy="50.0" fill="black" r="3" /><circle cx="280.0" cy="424.0" fill="black" r="3" /><circle cx="502.0" cy="467.0" fill="black" r="3" /><circle cx="218.0" cy="195.0" fill="black" r="3" /><circle cx="361.0" cy="488.0" fill="black" r="3" /><circle cx="386.0" cy="349.0" fill="black" r="3" /><circle cx="457.0" cy="293.0" fill="black" r="3" /><circle cx="206.0" cy="308.0" fill="black" r="3" /><circle cx="287.0" cy="391.0" fill="black" r="3" /><circle cx="329.0" cy="429.0" fill="black" r="3" /><circle cx="500.0" cy="371.0" fill="black" r="3" /><circle cx="547.0" cy="310.0" fill="black" r="3" /><circle cx="574.0" cy="187.0" fill="black" r="3" /><circle cx="461.0" cy="395.0" fill="black" r="3" /><circle cx="221.0" cy="352.0" fill="black" r="3" /><circle cx="296.0" cy="251.0" fill="black" r="3" /><circle cx="307.0" cy="290.0" fill="black" r="3" /><circle cx="469.0" cy="362.0" fill="black" r="3" /><circle cx="493.0" cy="503.0" fill="black" r="3" /><circle cx="603.0" cy="321.0" fill="black" r="3" /><circle cx="182.0" cy="375.0" fill="black" r="3" /><circle cx="472.0" cy="449.0" fill="black" r="3" /><circle cx="175.0" cy="272.0" fill="black" r="3" /><circle cx="249.0" cy="332.0" fill="black" r="3" /><circle cx="190.0" cy="155.0" fill="black" r="3" /><circle cx="304.0" cy="200.0" fill="black" r="3" /><circle cx="431.0" cy="214.0" fill="black" r="3" /><circle cx="451.0" cy="337.0" fill="black" r="3" /><circle cx="328.0" cy="122.0" fill="black" r="3" /><circle cx="583.0" cy="237.0" fill="black" r="3" /><circle cx="400.0" cy="301.0" fill="black" r="3" /><circle cx="310.0" cy="337.0" fill="black" r="3" /><circle cx="361.0" cy="317.0" fill="black" r="3" /><circle cx="447.0" cy="250.0" fill="black" r="3" /><circle cx="484.0" cy="268.0" fill="black" r="3" /><circle cx="415.0" cy="331.0" fill="black" r="3" /><circle cx="454.0" cy="194.0" fill="black" r="3" /><circle cx="391.0" cy="188.0" fill="black" r="3" /><circle cx="154.0" cy="166.0" fill="black" r="3" /><circle cx="329.0" cy="507.0" fill="black" r="3" /><circle cx="353.0" cy="401.0" fill="black" r="3" /><circle cx="337.0" cy="281.0" fill="black" r="3" /><circle cx="512.0" cy="437.0" fill="black" r="3" /><circle cx="508.0" cy="203.0" fill="black" r="3" /><circle cx="430.0" cy="51.0" fill="black" r="3" /><circle cx="345.0" cy="196.0" fill="black" r="3" /><circle cx="301.0" cy="524.0" fill="black" r="3" /><circle cx="429.0" cy="407.0" fill="black" r="3" /><circle cx="469.0" cy="526.0" fill="black" r="3" /><circle cx="398.0" cy="424.0" fill="black" r="3" /><circle cx="265.0" cy="506.0" fill="black" r="3" /><circle cx="615.0" cy="159.0" fill="black" r="3" /><circle cx="409.0" cy="509.0" fill="black" r="3" /><circle cx="574.0" cy="407.0" fill="black" r="3" /><circle cx="419.0" cy="136.0" fill="black" r="3" /><circle cx="605.0" cy="382.0" fill="black" r="3" /><circle cx="241.0" cy="81.0" fill="black" r="3" /><circle cx="164.0" cy="410.0" fill="black" r="3" /><circle cx="289.0" cy="359.0" fill="black" r="3" /><circle cx="341.0" cy="45.0" fill="black" r="3" /><circle cx="508.0" cy="41.0" fill="black" r="3" /><circle cx="214.0" cy="442.0" fill="black" r="3" /></svg>