<?xml version="1.0" encoding="utf-8" ?>
<svg baseProfile="tiny" height="100%" version="1.2" viewBox="0,0,500,500" width="100%" xmlns="http://www.w3.org/2000/svg" xmlns:ev="http://www.w3.org/2001/xml-events" xmlns:xlink="http://www.w3.org/1999/xlink"><defs /><circle cx="435" cy="165" fill="black" r="3" /><circle cx="283" cy="310" fill="black" r="3" /><circle cx="416" cy="79" fill="black" r="3" /><circle cx="277" cy="223" fill="black" r="3" /><circle cx="257" cy="145" fill="black" r="3" /><circle cx="404" cy="478" fill="black" r="3" /><circle cx="349" cy="80" fill="black" r="3" /><circle cx="146" cy="333" fill="black" r="3" /><circle cx="278" cy="103" fill="black" r="3" /><circle cx="451" cy="125" fill="black" r="3" /><circle cx="512" cy="157" fill="black" r="3" /><circle cx="287" cy="485" fill="black" r="3" /><circle cx="176" cy="304" fill="black" r="3" /><circle cx="541" cy="383" fill="black" r="3" /><circle cx="177" cy="188" fill="black" r="3" /><circle cx="227" cy="239" fill="black" r="3" /><circle cx="239" cy="424" fill="black" r="3" /><circle cx="308" cy="46" fill="black" r="3" /><circle cx="368" cy="443" fill="black" r="3" /><circle cx="416" cy="250" fill="black" r="3" /><circle cx="536" cy="191" fill="black" r="3" /><circle cx="256" cy="469" fill="black" r="3" /><circle cx="311" cy="94" fill="black" r="3" /><circle cx="355" cy="257" fill="black" r="3" /><circle cx="357" cy="109" fill="black" r="3" /><circle cx="447" cy="495" fill="black" r="3" /><circle cx="481" cy="75" fill="black" r="3" /><circle cx="484" cy="139" fill="black" r="3" /><circle cx="553" cy="266" fill="black" r="3" /><circle cx="604" cy="188" fill="black" r="3" /><circle cx="323" cy="463" fill="black" r="3" /><circle cx="239" cy="117" fill="black" r="3" /><circle cx="259" cy="181" fill="black" r="3" /><circle cx="461" cy="50" fill="black" r="3" /><circle cx="535" cy="338" fill="black" r="3" /><circle cx="386" cy="141" fill="black" r="3" /><circle cx="481" cy="224" fill="black" r="3" /><circle cx="193" cy="338" fill="black" r="3" /><circle cx="214" cy="272" fill="black" r="3" /><circle cx="473" cy="479" fill="black" r="3" /><circle cx="500" cy="111" fill="black" r="3" /><circle cx="253" cy="274" fill="black" r="3" /><circle cx="376" cy="229" fill="black" r="3" /><circle cx="487" cy="421" fill="black" r="3" /><circle cx="524" cy="285" fill="black" r="3" /><circle cx="577" cy="307" fill="black" r="3" /><circle cx="152" cy="371" fill="black" r="3" /><circle cx="220" cy="143" fill="black" r="3" /><circle cx="334" cy="227" fill="black" r="3" /><circle cx="352" cy="163" fill="black" r="3" /><circle cx="388" cy="269" fill="black" r="3" /><circle cx="451" cy="86" fill="black" r="3" /><circle cx="559" cy="214" fill="black" r="3" /><circle cx="583" cy="268" fill="black" r="3" /><circle cx="386" cy="61" fill="black" r="3" /><circle cx="176" cy="224" fill="black" r="3" /><circle cx="207" cy="403" fill="black" r="3" /><circle cx="305" cy="152" fill="black" r="3" /><circle cx="339" cy="369" fill="black" r="3" /><circle cx="405" cy="109" fill="black" r="3" /><circle cx="584" cy="152" fill="black" r="3" /><circle cx="607" cy="352" fill="black" r="3" /><circle cx="393" cy="393" fill="black" r="3" /><circle cx="425" cy="283" fill="black" r="3" /><circle cx="535" cy="413" fill="black" r="3" /><circle cx="427" cy="373" fill="black" r="3" /><circle cx="244" cy="375" fill="black" r="3" /><circle cx="483" cy="182" fill="black" r="3" /><circle cx="523" cy="230" fill="black" r="3" /><circle cx="547" cy="160" fill="black" r="3" /><circle cx="574" cy="374" fill="black" r="3" /><circle cx="427" cy="437" fill="black" r="3" /><circle cx="488" cy="317" fill="black" r="3" /><circle cx="535" cy="133" fill="black" r="3" /><circle cx="274" cy="50" fill="black" r="3" /><circle cx="280" cy="424" fill="black" r="3" /><circle cx="502" cy="467" fill="black" r="3" /><circle cx="218" cy="195" fill="black" r="3" /><circle cx="361" cy="488" fill="black" r="3" /><circle cx="386" cy="349" fill="black" r="3" /><circle cx="457" cy="293" fill="black" r="3" /><circle cx="206" cy="308" fill="black" r="3" /><circle cx="287" cy="391" fill="black" r="3" /><circle cx="329" cy="429" fill="black" r="3" /><circle cx="500" cy="371" fill="black" r="3" /><circle cx="547" cy="310" fill="black" r="3" /><circle cx="574" cy="187" fill="black" r="3" /><circle cx="461" cy="395" fill="black" r="3" /><circle cx="221" cy="352" fill="black" r="3" /><circle cx="296" cy="251" fill="black" r="3" /><circle cx="307" cy="290" fill="black" r="3" /><circle cx="469" cy="362" fill="black" r="3" /><circle cx="493" cy="503" fill="black" r="3" /><circle cx="603" cy="321" fill="black" r="3" /><circle cx="182" cy="375" fill="black" r="3" /><circle cx="472" cy="449" fill="black" r="3" /><circle cx="175" cy="272" fill="black" r="3" /><circle cx="249" cy="332" fill="black" r="3" /><circle cx="190" cy="155" fill="black" r="3" /><circle cx="304" cy="200" fill="black" r="3" /><circle cx="431" cy="214" fill="black" r="3" /><circle cx="451" cy="337" fill="black" r="3" /><circle cx="328" cy="122" fill="black" r="3" /><circle cx="583" cy="237" fill="black" r="3" /><circle cx="400" cy="301" fill="black" r="3" /><circle cx="310" cy="337" fill="black" r="3" /><circle cx="361" cy="317" fill="black" r="3" /><circle cx="447" cy="250" fill="black" r="3" /><circle cx="484" cy="268" fill="black" r="3" /><circle cx="415" cy="331" fill="black" r="3" /><circle cx="454" cy="194" fill="black" r="3" /><circle cx="391" cy="188" fill="black" r="3" /><circle cx="154" cy="166" fill="black" r="3" /><circle cx="329" cy="507" fill="black" r="3" /><circle cx="353" cy="401" fill="black" r="3" /><circle cx="337" cy="281" fill="black" r="3" /><circle cx="512" cy="437" fill="black" r="3" /><circle cx="508" cy="203" fill="black" r="3" /><circle cx="430" cy="51" fill="black" r="3" /><circle cx="345" cy="196" fill="black" r="3" /><circle cx="301" cy="524" fill="black" r="3" /><circle cx="429" cy="407" fill="black" r="3" /><circle cx="469" cy="526" fill="black" r="3" /><circle cx="398" cy="424" fill="black" r="3" /><circle cx="265" cy="506" fill="black" r="3" /><circle cx="615" cy="159" fill="black" r="3" /><circle cx="409" cy="509" fill="black" r="3" /><circle cx="574" cy="407" fill="black" r="3" /><circle cx="419" cy="136" fill="black" r="3" /><circle cx="605" cy="382" fill="black" r="3" /><circle cx="241" cy="81" fill="black" r="3" /><circle cx="164" cy="410" fill="black" r="3" /><circle cx="289" cy="359" fill="black" r="3" /><circle cx="341" cy="45" fill="black" r="3" /><circle cx="508" cy="41" fill="black" r="3" /><circle cx="214" cy="442" fill="black" r="3" /><line stroke="black" stroke-width="2" x1="583.0" x2="416.0" y1="268.0" y2="79.0" /><line stroke="black" stroke-width="2" x1="416.0" x2="574.0" y1="79.0" y2="187.0" /><line stroke="black" stroke-width="2" x1="574.0" x2="431.0" y1="187.0" y2="214.0" /><line stroke="black" stroke-width="2" x1="431.0" x2="182.0" y1="214.0" y2="375.0" /><line stroke="black" stroke-width="2" x1="182.0" x2="152.0" y1="375.0" y2="371.0" /><line stroke="black" stroke-width="2" x1="152.0" x2="451.0" y1="371.0" y2="125.0" /><line stroke="black" stroke-width="2" x1="451.0" x2="253.0" y1="125.0" y2="274.0" /><line stroke="black" stroke-width="2" x1="253.0" x2="577.0" y1="274.0" y2="307.0" /><line stroke="black" stroke-width="2" x1="577.0" x2="615.0" y1="307.0" y2="159.0" /><line stroke="black" stroke-width="2" x1="615.0" x2="328.0" y1="159.0" y2="122.0" /><line stroke="black" stroke-width="2" x1="328.0" x2="512.0" y1="122.0" y2="437.0" /><line stroke="black" stroke-width="2" x1="512.0" x2="386.0" y1="437.0" y2="141.0" /><line stroke="black" stroke-width="2" x1="386.0" x2="574.0" y1="141.0" y2="407.0" /><line stroke="black" stroke-width="2" x1="574.0" x2="484.0" y1="407.0" y2="139.0" /><line stroke="black" stroke-width="2" x1="484.0" x2="583.0" y1="139.0" y2="268.0" /></svg>