<?xml version="1.0" encoding="utf-8" ?>
<svg baseProfile="tiny" height="100%" version="1.2" viewBox="0,0,500,500" width="100%" xmlns="http://www.w3.org/2000/svg" xmlns:ev="http://www.w3.org/2001/xml-events" xmlns:xlink="http://www.w3.org/1999/xlink"><defs /><circle cx="81" cy="310" fill="black" r="3" /><circle cx="406" cy="242" fill="black" r="3" /><circle cx="87" cy="377" fill="black" r="3" /><circle cx="205" cy="122" fill="black" r="3" /><circle cx="319" cy="368" fill="black" r="3" /><circle cx="373" cy="367" fill="black" r="3" /><circle cx="417" cy="309" fill="black" r="3" /><circle cx="519" cy="353" fill="black" r="3" /><circle cx="331" cy="172" fill="black" r="3" /><circle cx="577" cy="325" fill="black" r="3" /><circle cx="287" cy="349" fill="black" r="3" /><circle cx="242" cy="314" fill="black" r="3" /><circle cx="334" cy="122" fill="black" r="3" /><circle cx="509" cy="278" fill="black" r="3" /><circle cx="121" cy="217" fill="black" r="3" /><circle cx="220" cy="272" fill="black" r="3" /><circle cx="446" cy="286" fill="black" r="3" /><circle cx="454" cy="424" fill="black" r="3" /><circle cx="481" cy="152" fill="black" r="3" /><circle cx="32" cy="401" fill="black" r="3" /><circle cx="290" cy="406" fill="black" r="3" /><circle cx="511" cy="178" fill="black" r="3" /><circle cx="299" cy="225" fill="black" r="3" /><circle cx="322" cy="409" fill="black" r="3" /><circle cx="142" cy="255" fill="black" r="3" /><circle cx="187" cy="290" fill="black" r="3" /><circle cx="221" cy="513" fill="black" r="3" /><circle cx="231" cy="212" fill="black" r="3" /><circle cx="250" cy="253" fill="black" r="3" /><circle cx="251" cy="91" fill="black" r="3" /><circle cx="277" cy="301" fill="black" r="3" /><circle cx="302" cy="455" fill="black" r="3" /><circle cx="454" cy="355" fill="black" r="3" /><circle cx="548" cy="308" fill="black" r="3" /><circle cx="23" cy="263" fill="black" r="3" /><circle cx="158" cy="397" fill="black" r="3" /><circle cx="361" cy="323" fill="black" r="3" /><circle cx="485" cy="409" fill="black" r="3" /><circle cx="44" cy="317" fill="black" r="3" /><circle cx="298" cy="269" fill="black" r="3" /><circle cx="319" cy="329" fill="black" r="3" /><circle cx="356" cy="244" fill="black" r="3" /><circle cx="405" cy="459" fill="black" r="3" /><circle cx="413" cy="493" fill="black" r="3" /><circle cx="412" cy="277" fill="black" r="3" /><circle cx="43" cy="191" fill="black" r="3" /><circle cx="70" cy="407" fill="black" r="3" /><circle cx="107" cy="273" fill="black" r="3" /><circle cx="254" cy="371" fill="black" r="3" /><circle cx="361" cy="188" fill="black" r="3" /><circle cx="385" cy="296" fill="black" r="3" /><circle cx="422" cy="551" fill="black" r="3" /><circle cx="329" cy="263" fill="black" r="3" /><circle cx="171" cy="475" fill="black" r="3" /><circle cx="193" cy="196" fill="black" r="3" /><circle cx="79" cy="190" fill="black" r="3" /><circle cx="129" cy="369" fill="black" r="3" /><circle cx="224" cy="169" fill="black" r="3" /><circle cx="257" cy="193" fill="black" r="3" /><circle cx="304" cy="107" fill="black" r="3" /><circle cx="487" cy="119" fill="black" r="3" /><circle cx="545" cy="212" fill="black" r="3" /><circle cx="229" cy="559" fill="black" r="3" /><circle cx="545" cy="491" fill="black" r="3" /><circle cx="568" cy="380" fill="black" r="3" /><circle cx="71" cy="35" fill="black" r="3" /><circle cx="112" cy="323" fill="black" r="3" /><circle cx="193" cy="579" fill="black" r="3" /><circle cx="205" cy="323" fill="black" r="3" /><circle cx="232" cy="139" fill="black" r="3" /><circle cx="250" cy="591" fill="black" r="3" /><circle cx="376" cy="86" fill="black" r="3" /><circle cx="409" cy="189" fill="black" r="3" /><circle cx="479" cy="250" fill="black" r="3" /><circle cx="394" cy="334" fill="black" r="3" /><circle cx="499" cy="307" fill="black" r="3" /><circle cx="41" cy="161" fill="black" r="3" /><circle cx="52" cy="83" fill="black" r="3" /><circle cx="92" cy="235" fill="black" r="3" /><circle cx="137" cy="295" fill="black" r="3" /><circle cx="173" cy="424" fill="black" r="3" /><circle cx="182" cy="351" fill="black" r="3" /><circle cx="224" cy="435" fill="black" r="3" /><circle cx="307" cy="299" fill="black" r="3" /><circle cx="341" cy="296" fill="black" r="3" /><circle cx="358" cy="445" fill="black" r="3" /><circle cx="371" cy="139" fill="black" r="3" /><circle cx="383" cy="602" fill="black" r="3" /><circle cx="403" cy="374" fill="black" r="3" /><circle cx="237" cy="405" fill="black" r="3" /><circle cx="424" cy="91" fill="black" r="3" /><circle cx="111" cy="79" fill="black" r="3" /><circle cx="274" cy="503" fill="black" r="3" /><circle cx="295" cy="176" fill="black" r="3" /><circle cx="339" cy="34" fill="black" r="3" /><circle cx="344" cy="349" fill="black" r="3" /><circle cx="440" cy="578" fill="black" r="3" /><circle cx="491" cy="374" fill="black" r="3" /><circle cx="321" cy="592" fill="black" r="3" /><circle cx="479" cy="449" fill="black" r="3" /><circle cx="191" cy="254" fill="black" r="3" /><circle cx="52" cy="361" fill="black" r="3" /><circle cx="352" cy="413" fill="black" r="3" /><circle cx="376" cy="218" fill="black" r="3" /><circle cx="442" cy="164" fill="black" r="3" /><circle cx="452" cy="389" fill="black" r="3" /><circle cx="488" cy="205" fill="black" r="3" /><circle cx="527" cy="113" fill="black" r="3" /><circle cx="524" cy="400" fill="black" r="3" /><circle cx="67" cy="140" fill="black" r="3" /><circle cx="89" cy="110" fill="black" r="3" /><circle cx="178" cy="139" fill="black" r="3" /><circle cx="191" cy="549" fill="black" r="3" /><circle cx="224" cy="352" fill="black" r="3" /><circle cx="260" cy="466" fill="black" r="3" /><circle cx="329" cy="80" fill="black" r="3" /><circle cx="401" cy="578" fill="black" r="3" /><circle cx="440" cy="460" fill="black" r="3" /><circle cx="458" cy="207" fill="black" r="3" /><circle cx="373" cy="487" fill="black" r="3" /><circle cx="425" cy="218" fill="black" r="3" /><circle cx="29" cy="110" fill="black" r="3" /><circle cx="201" cy="376" fill="black" r="3" /><circle cx="344" cy="523" fill="black" r="3" /><circle cx="427" cy="409" fill="black" r="3" /><circle cx="446" cy="249" fill="black" r="3" /><circle cx="197" cy="460" fill="black" r="3" /><circle cx="121" cy="173" fill="black" r="3" /><circle cx="146" cy="436" fill="black" r="3" /><circle cx="265" cy="226" fill="black" r="3" /><circle cx="332" cy="224" fill="black" r="3" /><circle cx="392" cy="113" fill="black" r="3" /><circle cx="425" cy="124" fill="black" r="3" /><circle cx="443" cy="323" fill="black" r="3" /><circle cx="106" cy="430" fill="black" r="3" /><circle cx="111" cy="476" fill="black" r="3" /><circle cx="170" cy="232" fill="black" r="3" /><circle cx="254" cy="22" fill="black" r="3" /><circle cx="323" cy="494" fill="black" r="3" /><circle cx="513" cy="232" fill="black" r="3" /><circle cx="551" cy="355" fill="black" r="3" /><circle cx="17" cy="374" fill="black" r="3" /><circle cx="279" cy="537" fill="black" r="3" /><circle cx="82" cy="65" fill="black" r="3" /><circle cx="143" cy="35" fill="black" r="3" /><circle cx="224" cy="605" fill="black" r="3" /><circle cx="305" cy="145" fill="black" r="3" /><circle cx="544" cy="266" fill="black" r="3" /><circle cx="170" cy="315" fill="black" r="3" /><circle cx="278" cy="572" fill="black" r="3" /><circle cx="392" cy="529" fill="black" r="3" /><circle cx="430" cy="521" fill="black" r="3" /><circle cx="25" cy="344" fill="black" r="3" /><circle cx="110" cy="49" fill="black" r="3" /><circle cx="257" cy="159" fill="black" r="3" /><circle cx="352" cy="601" fill="black" r="3" /><circle cx="481" cy="481" fill="black" r="3" /><circle cx="133" cy="538" fill="black" r="3" /><circle cx="155" cy="167" fill="black" r="3" /><circle cx="383" cy="425" fill="black" r="3" /><circle cx="397" cy="161" fill="black" r="3" /><circle cx="531" cy="433" fill="black" r="3" /><circle cx="567" cy="417" fill="black" r="3" /><circle cx="112" cy="395" fill="black" r="3" /><circle cx="19" cy="79" fill="black" r="3" /><circle cx="268" cy="117" fill="black" r="3" /><circle cx="515" cy="464" fill="black" r="3" /><circle cx="391" cy="32" fill="black" r="3" /><circle cx="574" cy="273" fill="black" r="3" /><circle cx="145" cy="127" fill="black" r="3" /><circle cx="530" cy="152" fill="black" r="3" /><circle cx="71" cy="281" fill="black" r="3" /><circle cx="76" cy="341" fill="black" r="3" /><circle cx="191" cy="74" fill="black" r="3" /><circle cx="463" cy="598" fill="black" r="3" /><circle cx="617" cy="297" fill="black" r="3" /><circle cx="427" cy="609" fill="black" r="3" /><circle cx="46" cy="17" fill="black" r="3" /><circle cx="203" cy="410" fill="black" r="3" /><circle cx="305" cy="62" fill="black" r="3" /><circle cx="374" cy="565" fill="black" r="3" /><circle cx="475" cy="326" fill="black" r="3" /><circle cx="95" cy="155" fill="black" r="3" /><circle cx="315" cy="544" fill="black" r="3" /><circle cx="82" cy="488" fill="black" r="3" /><circle cx="380" cy="266" fill="black" r="3" /><circle cx="409" cy="63" fill="black" r="3" /><circle cx="199" cy="493" fill="black" r="3" /><circle cx="141" cy="471" fill="black" r="3" /><circle cx="50" cy="431" fill="black" r="3" /><circle cx="57" cy="243" fill="black" r="3" /><circle cx="106" cy="13" fill="black" r="3" /><circle cx="151" cy="512" fill="black" r="3" /><circle cx="268" cy="65" fill="black" r="3" /><circle cx="520" cy="80" fill="black" r="3" /><circle cx="19" cy="211" fill="black" r="3" /><circle cx="158" cy="557" fill="black" r="3" /><circle cx="17" cy="139" fill="black" r="3" /><circle cx="151" cy="346" fill="black" r="3" /><circle cx="141" cy="86" fill="black" r="3" /><circle cx="273" cy="433" fill="black" r="3" /><circle cx="45" cy="52" fill="black" r="3" /><circle cx="290" cy="604" fill="black" r="3" /><circle cx="165" cy="597" fill="black" r="3" /><circle cx="167" cy="105" fill="black" r="3" /><circle cx="229" cy="46" fill="black" r="3" /><circle cx="422" cy="350" fill="black" r="3" /><circle cx="184" cy="519" fill="black" r="3" /><circle cx="191" cy="39" fill="black" r="3" /><circle cx="365" cy="52" fill="black" r="3" /><circle cx="335" cy="466" fill="black" r="3" /><circle cx="454" cy="115" fill="black" r="3" /><circle cx="568" cy="184" fill="black" r="3" /><circle cx="308" cy="17" fill="black" r="3" /><circle cx="22" cy="296" fill="black" r="3" /><circle cx="152" cy="203" fill="black" r="3" /><circle cx="227" cy="467" fill="black" r="3" /><circle cx="115" cy="131" fill="black" r="3" /><circle cx="218" cy="239" fill="black" r="3" /><circle cx="250" cy="284" fill="black" r="3" /><circle cx="346" cy="381" fill="black" r="3" /><circle cx="105" cy="524" fill="black" r="3" /><circle cx="427" cy="19" fill="black" r="3" /><circle cx="344" cy="554" fill="black" r="3" /><circle cx="124" cy="579" fill="black" r="3" /><circle cx="56" cy="464" fill="black" r="3" /><circle cx="220" cy="13" fill="black" r="3" /><circle cx="479" cy="53" fill="black" r="3" /><circle cx="86" cy="455" fill="black" r="3" /><circle cx="556" cy="103" fill="black" r="3" /><circle cx="193" cy="610" fill="black" r="3" /><circle cx="247" cy="531" fill="black" r="3" /><circle cx="519" cy="585" fill="black" r="3" /><circle cx="580" cy="500" fill="black" r="3" /><circle cx="364" cy="9" fill="black" r="3" /><circle cx="455" cy="541" fill="black" r="3" /><circle cx="595" cy="556" fill="black" r="3" /><circle cx="551" cy="460" fill="black" r="3" /><circle cx="244" cy="493" fill="black" r="3" /><circle cx="544" cy="58" fill="black" r="3" /><circle cx="593" cy="71" fill="black" r="3" /><circle cx="493" cy="609" fill="black" r="3" /><circle cx="559" cy="239" fill="black" r="3" /><circle cx="97" cy="555" fill="black" r="3" /><circle cx="53" cy="526" fill="black" r="3" /><circle cx="191" cy="2" fill="black" r="3" /><circle cx="129" cy="609" fill="black" r="3" /><circle cx="490" cy="550" fill="black" r="3" /><circle cx="575" cy="611" fill="black" r="3" /><circle cx="514" cy="499" fill="black" r="3" /><circle cx="21" cy="34" fill="black" r="3" /></svg>