<?xml version="1.0" encoding="utf-8" ?>
<svg baseProfile="tiny" height="100%" version="1.2" viewBox="0,0,500,500" width="100%" xmlns="http://www.w3.org/2000/svg" xmlns:ev="http://www.w3.org/2001/xml-events" xmlns:xlink="http://www.w3.org/1999/xlink"><defs /><circle cx="223" cy="565" fill="black" r="3" /><circle cx="416" cy="146" fill="black" r="3" /><circle cx="320" cy="334" fill="black" r="3" /><circle cx="338" cy="248" fill="black" r="3" /><circle cx="352" cy="289" fill="black" r="3" /><circle cx="218" cy="478" fill="black" r="3" /><circle cx="278" cy="289" fill="black" r="3" /><circle cx="122" cy="334" fill="black" r="3" /><circle cx="227" cy="445" fill="black" r="3" /><circle cx="285" cy="339" fill="black" r="3" /><circle cx="416" cy="435" fill="black" r="3" /><circle cx="95" cy="411" fill="black" r="3" /><circle cx="244" cy="249" fill="black" r="3" /><circle cx="387" cy="363" fill="black" r="3" /><circle cx="526" cy="293" fill="black" r="3" /><circle cx="127" cy="273" fill="black" r="3" /><circle cx="436" cy="220" fill="black" r="3" /><circle cx="206" cy="231" fill="black" r="3" /><circle cx="261" cy="459" fill="black" r="3" /><circle cx="290" cy="208" fill="black" r="3" /><circle cx="301" cy="268" fill="black" r="3" /><circle cx="377" cy="179" fill="black" r="3" /><circle cx="100" cy="297" fill="black" r="3" /><circle cx="319" cy="292" fill="black" r="3" /><circle cx="461" cy="539" fill="black" r="3" /><circle cx="251" cy="356" fill="black" r="3" /><circle cx="367" cy="493" fill="black" r="3" /><circle cx="397" cy="466" fill="black" r="3" /><circle cx="406" cy="115" fill="black" r="3" /><circle cx="485" cy="289" fill="black" r="3" /><circle cx="193" cy="435" fill="black" r="3" /><circle cx="172" cy="470" fill="black" r="3" /><circle cx="218" cy="98" fill="black" r="3" /><circle cx="263" cy="187" fill="black" r="3" /><circle cx="441" cy="406" fill="black" r="3" /><circle cx="484" cy="433" fill="black" r="3" /><circle cx="567" cy="315" fill="black" r="3" /><circle cx="125" cy="241" fill="black" r="3" /><circle cx="281" cy="371" fill="black" r="3" /><circle cx="117" cy="370" fill="black" r="3" /><circle cx="159" cy="286" fill="black" r="3" /><circle cx="190" cy="529" fill="black" r="3" /><circle cx="347" cy="359" fill="black" r="3" /><circle cx="370" cy="259" fill="black" r="3" /><circle cx="380" cy="311" fill="black" r="3" /><circle cx="428" cy="463" fill="black" r="3" /><circle cx="452" cy="97" fill="black" r="3" /><circle cx="76" cy="331" fill="black" r="3" /><circle cx="89" cy="263" fill="black" r="3" /><circle cx="176" cy="125" fill="black" r="3" /><circle cx="290" cy="91" fill="black" r="3" /><circle cx="373" cy="104" fill="black" r="3" /><circle cx="401" cy="289" fill="black" r="3" /><circle cx="445" cy="250" fill="black" r="3" /><circle cx="496" cy="326" fill="black" r="3" /><circle cx="521" cy="347" fill="black" r="3" /><circle cx="524" cy="190" fill="black" r="3" /><circle cx="227" cy="305" fill="black" r="3" /><circle cx="141" cy="405" fill="black" r="3" /><circle cx="142" cy="439" fill="black" r="3" /><circle cx="149" cy="317" fill="black" r="3" /><circle cx="277" cy="431" fill="black" r="3" /><circle cx="313" cy="161" fill="black" r="3" /><circle cx="319" cy="484" fill="black" r="3" /><circle cx="353" cy="326" fill="black" r="3" /><circle cx="374" cy="226" fill="black" r="3" /><circle cx="425" cy="530" fill="black" r="3" /><circle cx="447" cy="136" fill="black" r="3" /><circle cx="481" cy="494" fill="black" r="3" /><circle cx="496" cy="238" fill="black" r="3" /><circle cx="529" cy="254" fill="black" r="3" /><circle cx="417" cy="315" fill="black" r="3" /><circle cx="255" cy="409" fill="black" r="3" /><circle cx="278" cy="245" fill="black" r="3" /><circle cx="298" cy="512" fill="black" r="3" /><circle cx="323" cy="535" fill="black" r="3" /><circle cx="383" cy="405" fill="black" r="3" /><circle cx="451" cy="356" fill="black" r="3" /><circle cx="587" cy="273" fill="black" r="3" /><circle cx="376" cy="443" fill="black" r="3" /><circle cx="142" cy="518" fill="black" r="3" /><circle cx="171" cy="95" fill="black" r="3" /><circle cx="236" cy="133" fill="black" r="3" /><circle cx="244" cy="161" fill="black" r="3" /><circle cx="259" cy="221" fill="black" r="3" /><circle cx="280" cy="488" fill="black" r="3" /><circle cx="327" cy="61" fill="black" r="3" /><circle cx="341" cy="200" fill="black" r="3" /><circle cx="345" cy="163" fill="black" r="3" /><circle cx="406" cy="247" fill="black" r="3" /><circle cx="484" cy="172" fill="black" r="3" /><circle cx="112" cy="206" fill="black" r="3" /><circle cx="154" cy="370" fill="black" r="3" /><circle cx="201" cy="70" fill="black" r="3" /><circle cx="220" cy="529" fill="black" r="3" /><circle cx="296" cy="122" fill="black" r="3" /><circle cx="418" cy="377" fill="black" r="3" /><circle cx="500" cy="382" fill="black" r="3" /><circle cx="177" cy="346" fill="black" r="3" /><circle cx="245" cy="490" fill="black" r="3" /><circle cx="320" cy="430" fill="black" r="3" /><circle cx="347" cy="469" fill="black" r="3" /><circle cx="424" cy="81" fill="black" r="3" /><circle cx="458" cy="463" fill="black" r="3" /><circle cx="189" cy="375" fill="black" r="3" /><circle cx="353" cy="416" fill="black" r="3" /><circle cx="523" cy="422" fill="black" r="3" /><circle cx="203" cy="283" fill="black" r="3" /><circle cx="488" cy="98" fill="black" r="3" /><circle cx="218" cy="367" fill="black" r="3" /><circle cx="274" cy="155" fill="black" r="3" /><circle cx="333" cy="386" fill="black" r="3" /><circle cx="398" cy="502" fill="black" r="3" /><circle cx="428" cy="181" fill="black" r="3" /><circle cx="442" cy="502" fill="black" r="3" /><circle cx="161" cy="253" fill="black" r="3" /><circle cx="187" cy="161" fill="black" r="3" /><circle cx="311" cy="233" fill="black" r="3" /><circle cx="208" cy="189" fill="black" r="3" /><circle cx="220" cy="398" fill="black" r="3" /><circle cx="454" cy="291" fill="black" r="3" /><circle cx="559" cy="263" fill="black" r="3" /><circle cx="105" cy="176" fill="black" r="3" /><circle cx="256" cy="315" fill="black" r="3" /><circle cx="266" cy="113" fill="black" r="3" /><circle cx="37" cy="320" fill="black" r="3" /><circle cx="151" cy="217" fill="black" r="3" /><circle cx="167" cy="550" fill="black" r="3" /><circle cx="476" cy="209" fill="black" r="3" /><circle cx="44" cy="277" fill="black" r="3" /><circle cx="154" cy="163" fill="black" r="3" /><circle cx="257" cy="521" fill="black" r="3" /><circle cx="461" cy="56" fill="black" r="3" /><circle cx="465" cy="328" fill="black" r="3" /><circle cx="357" cy="523" fill="black" r="3" /><circle cx="304" cy="395" fill="black" r="3" /><circle cx="511" cy="463" fill="black" r="3" /><circle cx="585" cy="340" fill="black" r="3" /><circle cx="494" cy="525" fill="black" r="3" /><circle cx="343" cy="124" fill="black" r="3" /><circle cx="471" cy="405" fill="black" r="3" /><circle cx="555" cy="345" fill="black" r="3" /><circle cx="385" cy="149" fill="black" r="3" /><circle cx="175" cy="500" fill="black" r="3" /><circle cx="224" cy="335" fill="black" r="3" /><circle cx="260" cy="77" fill="black" r="3" /><circle cx="532" cy="376" fill="black" r="3" /><circle cx="62" cy="301" fill="black" r="3" /><circle cx="485" cy="142" fill="black" r="3" /><circle cx="339" cy="88" fill="black" r="3" /><circle cx="193" cy="313" fill="black" r="3" /><circle cx="296" cy="458" fill="black" r="3" /><circle cx="427" cy="562" fill="black" r="3" /><circle cx="235" cy="57" fill="black" r="3" /><circle cx="550" cy="227" fill="black" r="3" /><circle cx="603" cy="305" fill="black" r="3" /><circle cx="206" cy="128" fill="black" r="3" /><circle cx="175" cy="404" fill="black" r="3" /><circle cx="377" cy="74" fill="black" r="3" /><circle cx="62" cy="249" fill="black" r="3" /><circle cx="346" cy="560" fill="black" r="3" /><circle cx="287" cy="58" fill="black" r="3" /><circle cx="560" cy="398" fill="black" r="3" /><circle cx="525" cy="157" fill="black" r="3" /><circle cx="473" cy="260" fill="black" r="3" /><circle cx="311" cy="566" fill="black" r="3" /><circle cx="289" cy="541" fill="black" r="3" /><circle cx="413" cy="345" fill="black" r="3" /><circle cx="127" cy="139" fill="black" r="3" /><circle cx="17" cy="296" fill="black" r="3" /><circle cx="85" cy="367" fill="black" r="3" /><circle cx="401" cy="205" fill="black" r="3" /><circle cx="429" cy="40" fill="black" r="3" /><circle cx="553" cy="429" fill="black" r="3" /><circle cx="191" cy="577" fill="black" r="3" /><circle cx="51" cy="347" fill="black" r="3" /><circle cx="76" cy="442" fill="black" r="3" /><circle cx="587" cy="371" fill="black" r="3" /><circle cx="395" cy="532" fill="black" r="3" /><circle cx="248" cy="281" fill="black" r="3" /><circle cx="455" cy="572" fill="black" r="3" /><circle cx="145" cy="112" fill="black" r="3" /><circle cx="88" cy="81" fill="black" r="3" /><circle cx="494" cy="557" fill="black" r="3" /><circle cx="117" cy="455" fill="black" r="3" /><circle cx="8" cy="470" fill="black" r="3" /><circle cx="217" cy="596" fill="black" r="3" /><circle cx="341" cy="31" fill="black" r="3" /><circle cx="74" cy="177" fill="black" r="3" /><circle cx="129" cy="545" fill="black" r="3" /><circle cx="46" cy="586" fill="black" r="3" /><circle cx="49" cy="71" fill="black" r="3" /><circle cx="253" cy="572" fill="black" r="3" /><circle cx="31" cy="523" fill="black" r="3" /><circle cx="517" cy="503" fill="black" r="3" /><circle cx="171" cy="61" fill="black" r="3" /><line stroke="black" stroke-width="2" x1="511.0" x2="296.0" y1="463.0" y2="458.0" /><line stroke="black" stroke-width="2" x1="296.0" x2="177.0" y1="458.0" y2="346.0" /><line stroke="black" stroke-width="2" x1="177.0" x2="154.0" y1="346.0" y2="163.0" /><line stroke="black" stroke-width="2" x1="154.0" x2="424.0" y1="163.0" y2="81.0" /><line stroke="black" stroke-width="2" x1="424.0" x2="95.0" y1="81.0" y2="411.0" /><line stroke="black" stroke-width="2" x1="95.0" x2="585.0" y1="411.0" y2="340.0" /><line stroke="black" stroke-width="2" x1="585.0" x2="445.0" y1="340.0" y2="250.0" /><line stroke="black" stroke-width="2" x1="445.0" x2="319.0" y1="250.0" y2="484.0" /><line stroke="black" stroke-width="2" x1="319.0" x2="122.0" y1="484.0" y2="334.0" /><line stroke="black" stroke-width="2" x1="122.0" x2="320.0" y1="334.0" y2="334.0" /><line stroke="black" stroke-width="2" x1="320.0" x2="345.0" y1="334.0" y2="163.0" /><line stroke="black" stroke-width="2" x1="345.0" x2="206.0" y1="163.0" y2="128.0" /><line stroke="black" stroke-width="2" x1="206.0" x2="553.0" y1="128.0" y2="429.0" /><line stroke="black" stroke-width="2" x1="553.0" x2="395.0" y1="429.0" y2="532.0" /><line stroke="black" stroke-width="2" x1="395.0" x2="511.0" y1="532.0" y2="463.0" /></svg>