<?xml version="1.0" encoding="utf-8" ?>
<svg baseProfile="tiny" height="100%" version="1.2" viewBox="0,0,500,500" width="100%" xmlns="http://www.w3.org/2000/svg" xmlns:ev="http://www.w3.org/2001/xml-events" xmlns:xlink="http://www.w3.org/1999/xlink"><defs /><circle cx="81.0" cy="310.0" fill="black" r="3" /><circle cx="406.0" cy="242.0" fill="black" r="3" /><circle cx="87.0" cy="377.0" fill="black" r="3" /><circle cx="205.0" cy="122.0" fill="black" r="3" /><circle cx="319.0" cy="368.0" fill="black" r="3" /><circle cx="373.0" cy="367.0" fill="black" r="3" /><circle cx="417.0" cy="309.0" fill="black" r="3" /><circle cx="519.0" cy="353.0" fill="black" r="3" /><circle cx="331.0" cy="172.0" fill="black" r="3" /><circle cx="577.0" cy="325.0" fill="black" r="3" /><circle cx="287.0" cy="349.0" fill="black" r="3" /><circle cx="242.0" cy="314.0" fill="black" r="3" /><circle cx="334.0" cy="122.0" fill="black" r="3" /><circle cx="509.0" cy="278.0" fill="black" r="3" /><circle cx="121.0" cy="217.0" fill="black" r="3" /><circle cx="220.0" cy="272.0" fill="black" r="3" /><circle cx="446.0" cy="286.0" fill="black" r="3" /><circle cx="454.0" cy="424.0" fill="black" r="3" /><circle cx="481.0" cy="152.0" fill="black" r="3" /><circle cx="32.0" cy="401.0" fill="black" r="3" /><circle cx="290.0" cy="406.0" fill="black" r="3" /><circle cx="511.0" cy="178.0" fill="black" r="3" /><circle cx="299.0" cy="225.0" fill="black" r="3" /><circle cx="322.0" cy="409.0" fill="black" r="3" /><circle cx="142.0" cy="255.0" fill="black" r="3" /><circle cx="187.0" cy="290.0" fill="black" r="3" /><circle cx="221.0" cy="513.0" fill="black" r="3" /><circle cx="231.0" cy="212.0" fill="black" r="3" /><circle cx="250.0" cy="253.0" fill="black" r="3" /><circle cx="251.0" cy="91.0" fill="black" r="3" /><circle cx="277.0" cy="301.0" fill="black" r="3" /><circle cx="302.0" cy="455.0" fill="black" r="3" /><circle cx="454.0" cy="355.0" fill="black" r="3" /><circle cx="548.0" cy="308.0" fill="black" r="3" /><circle cx="23.0" cy="263.0" fill="black" r="3" /><circle cx="158.0" cy="397.0" fill="black" r="3" /><circle cx="361.0" cy="323.0" fill="black" r="3" /><circle cx="485.0" cy="409.0" fill="black" r="3" /><circle cx="44.0" cy="317.0" fill="black" r="3" /><circle cx="298.0" cy="269.0" fill="black" r="3" /><circle cx="319.0" cy="329.0" fill="black" r="3" /><circle cx="356.0" cy="244.0" fill="black" r="3" /><circle cx="405.0" cy="459.0" fill="black" r="3" /><circle cx="413.0" cy="493.0" fill="black" r="3" /><circle cx="412.0" cy="277.0" fill="black" r="3" /><circle cx="43.0" cy="191.0" fill="black" r="3" /><circle cx="70.0" cy="407.0" fill="black" r="3" /><circle cx="107.0" cy="273.0" fill="black" r="3" /><circle cx="254.0" cy="371.0" fill="black" r="3" /><circle cx="361.0" cy="188.0" fill="black" r="3" /><circle cx="385.0" cy="296.0" fill="black" r="3" /><circle cx="422.0" cy="551.0" fill="black" r="3" /><circle cx="329.0" cy="263.0" fill="black" r="3" /><circle cx="171.0" cy="475.0" fill="black" r="3" /><circle cx="193.0" cy="196.0" fill="black" r="3" /><circle cx="79.0" cy="190.0" fill="black" r="3" /><circle cx="129.0" cy="369.0" fill="black" r="3" /><circle cx="224.0" cy="169.0" fill="black" r="3" /><circle cx="257.0" cy="193.0" fill="black" r="3" /><circle cx="304.0" cy="107.0" fill="black" r="3" /><circle cx="487.0" cy="119.0" fill="black" r="3" /><circle cx="545.0" cy="212.0" fill="black" r="3" /><circle cx="229.0" cy="559.0" fill="black" r="3" /><circle cx="545.0" cy="491.0" fill="black" r="3" /><circle cx="568.0" cy="380.0" fill="black" r="3" /><circle cx="71.0" cy="35.0" fill="black" r="3" /><circle cx="112.0" cy="323.0" fill="black" r="3" /><circle cx="193.0" cy="579.0" fill="black" r="3" /><circle cx="205.0" cy="323.0" fill="black" r="3" /><circle cx="232.0" cy="139.0" fill="black" r="3" /><circle cx="250.0" cy="591.0" fill="black" r="3" /><circle cx="376.0" cy="86.0" fill="black" r="3" /><circle cx="409.0" cy="189.0" fill="black" r="3" /><circle cx="479.0" cy="250.0" fill="black" r="3" /><circle cx="394.0" cy="334.0" fill="black" r="3" /><circle cx="499.0" cy="307.0" fill="black" r="3" /><circle cx="41.0" cy="161.0" fill="black" r="3" /><circle cx="52.0" cy="83.0" fill="black" r="3" /><circle cx="92.0" cy="235.0" fill="black" r="3" /><circle cx="137.0" cy="295.0" fill="black" r="3" /><circle cx="173.0" cy="424.0" fill="black" r="3" /><circle cx="182.0" cy="351.0" fill="black" r="3" /><circle cx="224.0" cy="435.0" fill="black" r="3" /><circle cx="307.0" cy="299.0" fill="black" r="3" /><circle cx="341.0" cy="296.0" fill="black" r="3" /><circle cx="358.0" cy="445.0" fill="black" r="3" /><circle cx="371.0" cy="139.0" fill="black" r="3" /><circle cx="383.0" cy="602.0" fill="black" r="3" /><circle cx="403.0" cy="374.0" fill="black" r="3" /><circle cx="237.0" cy="405.0" fill="black" r="3" /><circle cx="424.0" cy="91.0" fill="black" r="3" /><circle cx="111.0" cy="79.0" fill="black" r="3" /><circle cx="274.0" cy="503.0" fill="black" r="3" /><circle cx="295.0" cy="176.0" fill="black" r="3" /><circle cx="339.0" cy="34.0" fill="black" r="3" /><circle cx="344.0" cy="349.0" fill="black" r="3" /><circle cx="440.0" cy="578.0" fill="black" r="3" /><circle cx="491.0" cy="374.0" fill="black" r="3" /><circle cx="321.0" cy="592.0" fill="black" r="3" /><circle cx="479.0" cy="449.0" fill="black" r="3" /><circle cx="191.0" cy="254.0" fill="black" r="3" /><circle cx="52.0" cy="361.0" fill="black" r="3" /><circle cx="352.0" cy="413.0" fill="black" r="3" /><circle cx="376.0" cy="218.0" fill="black" r="3" /><circle cx="442.0" cy="164.0" fill="black" r="3" /><circle cx="452.0" cy="389.0" fill="black" r="3" /><circle cx="488.0" cy="205.0" fill="black" r="3" /><circle cx="527.0" cy="113.0" fill="black" r="3" /><circle cx="524.0" cy="400.0" fill="black" r="3" /><circle cx="67.0" cy="140.0" fill="black" r="3" /><circle cx="89.0" cy="110.0" fill="black" r="3" /><circle cx="178.0" cy="139.0" fill="black" r="3" /><circle cx="191.0" cy="549.0" fill="black" r="3" /><circle cx="224.0" cy="352.0" fill="black" r="3" /><circle cx="260.0" cy="466.0" fill="black" r="3" /><circle cx="329.0" cy="80.0" fill="black" r="3" /><circle cx="401.0" cy="578.0" fill="black" r="3" /><circle cx="440.0" cy="460.0" fill="black" r="3" /><circle cx="458.0" cy="207.0" fill="black" r="3" /><circle cx="373.0" cy="487.0" fill="black" r="3" /><circle cx="425.0" cy="218.0" fill="black" r="3" /><circle cx="29.0" cy="110.0" fill="black" r="3" /><circle cx="201.0" cy="376.0" fill="black" r="3" /><circle cx="344.0" cy="523.0" fill="black" r="3" /><circle cx="427.0" cy="409.0" fill="black" r="3" /><circle cx="446.0" cy="249.0" fill="black" r="3" /><circle cx="197.0" cy="460.0" fill="black" r="3" /><circle cx="121.0" cy="173.0" fill="black" r="3" /><circle cx="146.0" cy="436.0" fill="black" r="3" /><circle cx="265.0" cy="226.0" fill="black" r="3" /><circle cx="332.0" cy="224.0" fill="black" r="3" /><circle cx="392.0" cy="113.0" fill="black" r="3" /><circle cx="425.0" cy="124.0" fill="black" r="3" /><circle cx="443.0" cy="323.0" fill="black" r="3" /><circle cx="106.0" cy="430.0" fill="black" r="3" /><circle cx="111.0" cy="476.0" fill="black" r="3" /><circle cx="170.0" cy="232.0" fill="black" r="3" /><circle cx="254.0" cy="22.0" fill="black" r="3" /><circle cx="323.0" cy="494.0" fill="black" r="3" /><circle cx="513.0" cy="232.0" fill="black" r="3" /><circle cx="551.0" cy="355.0" fill="black" r="3" /><circle cx="17.0" cy="374.0" fill="black" r="3" /><circle cx="279.0" cy="537.0" fill="black" r="3" /><circle cx="82.0" cy="65.0" fill="black" r="3" /><circle cx="143.0" cy="35.0" fill="black" r="3" /><circle cx="224.0" cy="605.0" fill="black" r="3" /><circle cx="305.0" cy="145.0" fill="black" r="3" /><circle cx="544.0" cy="266.0" fill="black" r="3" /><circle cx="170.0" cy="315.0" fill="black" r="3" /><circle cx="278.0" cy="572.0" fill="black" r="3" /><circle cx="392.0" cy="529.0" fill="black" r="3" /><circle cx="430.0" cy="521.0" fill="black" r="3" /><circle cx="25.0" cy="344.0" fill="black" r="3" /><circle cx="110.0" cy="49.0" fill="black" r="3" /><circle cx="257.0" cy="159.0" fill="black" r="3" /><circle cx="352.0" cy="601.0" fill="black" r="3" /><circle cx="481.0" cy="481.0" fill="black" r="3" /><circle cx="133.0" cy="538.0" fill="black" r="3" /><circle cx="155.0" cy="167.0" fill="black" r="3" /><circle cx="383.0" cy="425.0" fill="black" r="3" /><circle cx="397.0" cy="161.0" fill="black" r="3" /><circle cx="531.0" cy="433.0" fill="black" r="3" /><circle cx="567.0" cy="417.0" fill="black" r="3" /><circle cx="112.0" cy="395.0" fill="black" r="3" /><circle cx="19.0" cy="79.0" fill="black" r="3" /><circle cx="268.0" cy="117.0" fill="black" r="3" /><circle cx="515.0" cy="464.0" fill="black" r="3" /><circle cx="391.0" cy="32.0" fill="black" r="3" /><circle cx="574.0" cy="273.0" fill="black" r="3" /><circle cx="145.0" cy="127.0" fill="black" r="3" /><circle cx="530.0" cy="152.0" fill="black" r="3" /><circle cx="71.0" cy="281.0" fill="black" r="3" /><circle cx="76.0" cy="341.0" fill="black" r="3" /><circle cx="191.0" cy="74.0" fill="black" r="3" /><circle cx="463.0" cy="598.0" fill="black" r="3" /><circle cx="617.0" cy="297.0" fill="black" r="3" /><circle cx="427.0" cy="609.0" fill="black" r="3" /><circle cx="46.0" cy="17.0" fill="black" r="3" /><circle cx="203.0" cy="410.0" fill="black" r="3" /><circle cx="305.0" cy="62.0" fill="black" r="3" /><circle cx="374.0" cy="565.0" fill="black" r="3" /><circle cx="475.0" cy="326.0" fill="black" r="3" /><circle cx="95.0" cy="155.0" fill="black" r="3" /><circle cx="315.0" cy="544.0" fill="black" r="3" /><circle cx="82.0" cy="488.0" fill="black" r="3" /><circle cx="380.0" cy="266.0" fill="black" r="3" /><circle cx="409.0" cy="63.0" fill="black" r="3" /><circle cx="199.0" cy="493.0" fill="black" r="3" /><circle cx="141.0" cy="471.0" fill="black" r="3" /><circle cx="50.0" cy="431.0" fill="black" r="3" /><circle cx="57.0" cy="243.0" fill="black" r="3" /><circle cx="106.0" cy="13.0" fill="black" r="3" /><circle cx="151.0" cy="512.0" fill="black" r="3" /><circle cx="268.0" cy="65.0" fill="black" r="3" /><circle cx="520.0" cy="80.0" fill="black" r="3" /><circle cx="19.0" cy="211.0" fill="black" r="3" /><circle cx="158.0" cy="557.0" fill="black" r="3" /><circle cx="17.0" cy="139.0" fill="black" r="3" /><circle cx="151.0" cy="346.0" fill="black" r="3" /><circle cx="141.0" cy="86.0" fill="black" r="3" /><circle cx="273.0" cy="433.0" fill="black" r="3" /><circle cx="45.0" cy="52.0" fill="black" r="3" /><circle cx="290.0" cy="604.0" fill="black" r="3" /><circle cx="165.0" cy="597.0" fill="black" r="3" /><circle cx="167.0" cy="105.0" fill="black" r="3" /><circle cx="229.0" cy="46.0" fill="black" r="3" /><circle cx="422.0" cy="350.0" fill="black" r="3" /><circle cx="184.0" cy="519.0" fill="black" r="3" /><circle cx="191.0" cy="39.0" fill="black" r="3" /><circle cx="365.0" cy="52.0" fill="black" r="3" /><circle cx="335.0" cy="466.0" fill="black" r="3" /><circle cx="454.0" cy="115.0" fill="black" r="3" /><circle cx="568.0" cy="184.0" fill="black" r="3" /><circle cx="308.0" cy="17.0" fill="black" r="3" /><circle cx="22.0" cy="296.0" fill="black" r="3" /><circle cx="152.0" cy="203.0" fill="black" r="3" /><circle cx="227.0" cy="467.0" fill="black" r="3" /><circle cx="115.0" cy="131.0" fill="black" r="3" /><circle cx="218.0" cy="239.0" fill="black" r="3" /><circle cx="250.0" cy="284.0" fill="black" r="3" /><circle cx="346.0" cy="381.0" fill="black" r="3" /><circle cx="105.0" cy="524.0" fill="black" r="3" /><circle cx="427.0" cy="19.0" fill="black" r="3" /><circle cx="344.0" cy="554.0" fill="black" r="3" /><circle cx="124.0" cy="579.0" fill="black" r="3" /><circle cx="56.0" cy="464.0" fill="black" r="3" /><circle cx="220.0" cy="13.0" fill="black" r="3" /><circle cx="479.0" cy="53.0" fill="black" r="3" /><circle cx="86.0" cy="455.0" fill="black" r="3" /><circle cx="556.0" cy="103.0" fill="black" r="3" /><circle cx="193.0" cy="610.0" fill="black" r="3" /><circle cx="247.0" cy="531.0" fill="black" r="3" /><circle cx="519.0" cy="585.0" fill="black" r="3" /><circle cx="580.0" cy="500.0" fill="black" r="3" /><circle cx="364.0" cy="9.0" fill="black" r="3" /><circle cx="455.0" cy="541.0" fill="black" r="3" /><circle cx="595.0" cy="556.0" fill="black" r="3" /><circle cx="551.0" cy="460.0" fill="black" r="3" /><circle cx="244.0" cy="493.0" fill="black" r="3" /><circle cx="544.0" cy="58.0" fill="black" r="3" /><circle cx="593.0" cy="71.0" fill="black" r="3" /><circle cx="493.0" cy="609.0" fill="black" r="3" /><circle cx="559.0" cy="239.0" fill="black" r="3" /><circle cx="97.0" cy="555.0" fill="black" r="3" /><circle cx="53.0" cy="526.0" fill="black" r="3" /><circle cx="191.0" cy="2.0" fill="black" r="3" /><circle cx="129.0" cy="609.0" fill="black" r="3" /><circle cx="490.0" cy="550.0" fill="black" r="3" /><circle cx="575.0" cy="611.0" fill="black" r="3" /><circle cx="514.0" cy="499.0" fill="black" r="3" /><circle cx="21.0" cy="34.0" fill="black" r="3" /></svg>