<?xml version="1.0" encoding="utf-8" ?>
<svg baseProfile="tiny" height="100%" version="1.2" viewBox="0,0,500,500" width="100%" xmlns="http://www.w3.org/2000/svg" xmlns:ev="http://www.w3.org/2001/xml-events" xmlns:xlink="http://www.w3.org/1999/xlink"><defs /><circle cx="218.0" cy="392.0" fill="black" r="3" /><circle cx="368.0" cy="313.0" fill="black" r="3" /><circle cx="361.0" cy="353.0" fill="black" r="3" /><circle cx="339.0" cy="303.0" fill="black" r="3" /><circle cx="434.0" cy="376.0" fill="black" r="3" /><circle cx="283.0" cy="395.0" fill="black" r="3" /><circle cx="340.0" cy="247.0" fill="black" r="3" /><circle cx="382.0" cy="272.0" fill="black" r="3" /><circle cx="140.0" cy="250.0" fill="black" r="3" /><circle cx="148.0" cy="304.0" fill="black" r="3" /><circle cx="219.0" cy="349.0" fill="black" r="3" /><circle cx="305.0" cy="238.0" fill="black" r="3" /><circle cx="316.0" cy="341.0" fill="black" r="3" /><circle cx="319.0" cy="371.0" fill="black" r="3" /><circle cx="398.0" cy="365.0" fill="black" r="3" /><circle cx="525.0" cy="328.0" fill="black" r="3" /><circle cx="416.0" cy="290.0" fill="black" r="3" /><circle cx="473.0" cy="467.0" fill="black" r="3" /><circle cx="325.0" cy="407.0" fill="black" r="3" /><circle cx="243.0" cy="479.0" fill="black" r="3" /><circle cx="250.0" cy="389.0" fill="black" r="3" /><circle cx="351.0" cy="170.0" fill="black" r="3" /><circle cx="358.0" cy="217.0" fill="black" r="3" /><circle cx="388.0" cy="239.0" fill="black" r="3" /><circle cx="161.0" cy="446.0" fill="black" r="3" /><circle cx="263.0" cy="255.0" fill="black" r="3" /><circle cx="269.0" cy="365.0" fill="black" r="3" /><circle cx="328.0" cy="211.0" fill="black" r="3" /><circle cx="385.0" cy="200.0" fill="black" r="3" /><circle cx="229.0" cy="199.0" fill="black" r="3" /><circle cx="242.0" cy="313.0" fill="black" r="3" /><circle cx="283.0" cy="460.0" fill="black" r="3" /><circle cx="377.0" cy="139.0" fill="black" r="3" /><circle cx="409.0" cy="160.0" fill="black" r="3" /><circle cx="427.0" cy="493.0" fill="black" r="3" /><circle cx="466.0" cy="321.0" fill="black" r="3" /><circle cx="139.0" cy="362.0" fill="black" r="3" /><circle cx="187.0" cy="401.0" fill="black" r="3" /><circle cx="196.0" cy="245.0" fill="black" r="3" /><circle cx="421.0" cy="239.0" fill="black" r="3" /><circle cx="163.0" cy="229.0" fill="black" r="3" /><circle cx="242.0" cy="430.0" fill="black" r="3" /><circle cx="260.0" cy="213.0" fill="black" r="3" /><circle cx="272.0" cy="293.0" fill="black" r="3" /><circle cx="323.0" cy="274.0" fill="black" r="3" /><circle cx="398.0" cy="512.0" fill="black" r="3" /><circle cx="419.0" cy="418.0" fill="black" r="3" /><circle cx="457.0" cy="290.0" fill="black" r="3" /><circle cx="518.0" cy="375.0" fill="black" r="3" /><circle cx="519.0" cy="269.0" fill="black" r="3" /><circle cx="285.0" cy="158.0" fill="black" r="3" /><circle cx="421.0" cy="191.0" fill="black" r="3" /><circle cx="527.0" cy="106.0" fill="black" r="3" /><circle cx="193.0" cy="458.0" fill="black" r="3" /><circle cx="298.0" cy="316.0" fill="black" r="3" /><circle cx="374.0" cy="457.0" fill="black" r="3" /><circle cx="388.0" cy="337.0" fill="black" r="3" /><circle cx="424.0" cy="345.0" fill="black" r="3" /><circle cx="472.0" cy="385.0" fill="black" r="3" /><circle cx="67.0" cy="331.0" fill="black" r="3" /><circle cx="173.0" cy="370.0" fill="black" r="3" /><circle cx="185.0" cy="337.0" fill="black" r="3" /><circle cx="191.0" cy="164.0" fill="black" r="3" /><circle cx="242.0" cy="278.0" fill="black" r="3" /><circle cx="284.0" cy="427.0" fill="black" r="3" /><circle cx="319.0" cy="172.0" fill="black" r="3" /><circle cx="321.0" cy="499.0" fill="black" r="3" /><circle cx="332.0" cy="453.0" fill="black" r="3" /><circle cx="361.0" cy="400.0" fill="black" r="3" /><circle cx="503.0" cy="424.0" fill="black" r="3" /><circle cx="250.0" cy="167.0" fill="black" r="3" /><circle cx="425.0" cy="460.0" fill="black" r="3" /><circle cx="352.0" cy="512.0" fill="black" r="3" /><circle cx="343.0" cy="41.0" fill="black" r="3" /><circle cx="297.0" cy="524.0" fill="black" r="3" /><circle cx="487.0" cy="284.0" fill="black" r="3" /><circle cx="188.0" cy="197.0" fill="black" r="3" /><circle cx="280.0" cy="190.0" fill="black" r="3" /><circle cx="307.0" cy="133.0" fill="black" r="3" /><circle cx="435.0" cy="530.0" fill="black" r="3" /><circle cx="436.0" cy="266.0" fill="black" r="3" /><circle cx="232.0" cy="249.0" fill="black" r="3" /><circle cx="119.0" cy="328.0" fill="black" r="3" /><circle cx="115.0" cy="392.0" fill="black" r="3" /><circle cx="188.0" cy="275.0" fill="black" r="3" /><circle cx="380.0" cy="488.0" fill="black" r="3" /><circle cx="472.0" cy="245.0" fill="black" r="3" /><circle cx="458.0" cy="421.0" fill="black" r="3" /><circle cx="497.0" cy="224.0" fill="black" r="3" /><circle cx="293.0" cy="266.0" fill="black" r="3" /><circle cx="323.0" cy="92.0" fill="black" r="3" /><circle cx="157.0" cy="416.0" fill="black" r="3" /><circle cx="214.0" cy="295.0" fill="black" r="3" /><circle cx="242.0" cy="520.0" fill="black" r="3" /><circle cx="316.0" cy="553.0" fill="black" r="3" /><circle cx="457.0" cy="208.0" fill="black" r="3" /><circle cx="313.0" cy="59.0" fill="black" r="3" /><circle cx="271.0" cy="505.0" fill="black" r="3" /><circle cx="398.0" cy="395.0" fill="black" r="3" /><circle cx="129.0" cy="279.0" fill="black" r="3" /><circle cx="203.0" cy="128.0" fill="black" r="3" /><circle cx="208.0" cy="488.0" fill="black" r="3" /><circle cx="536.0" cy="244.0" fill="black" r="3" /><circle cx="547.0" cy="399.0" fill="black" r="3" /><circle cx="94.0" cy="307.0" fill="black" r="3" /><circle cx="122.0" cy="209.0" fill="black" r="3" /><circle cx="443.0" cy="170.0" fill="black" r="3" /><circle cx="368.0" cy="64.0" fill="black" r="3" /><circle cx="253.0" cy="133.0" fill="black" r="3" /><circle cx="487.0" cy="358.0" fill="black" r="3" /><circle cx="212.0" cy="433.0" fill="black" r="3" /><circle cx="268.0" cy="328.0" fill="black" r="3" /><circle cx="334.0" cy="145.0" fill="black" r="3" /><circle cx="473.0" cy="179.0" fill="black" r="3" /><circle cx="417.0" cy="566.0" fill="black" r="3" /><circle cx="109.0" cy="167.0" fill="black" r="3" /><circle cx="533.0" cy="445.0" fill="black" r="3" /><circle cx="165.0" cy="111.0" fill="black" r="3" /><circle cx="128.0" cy="503.0" fill="black" r="3" /><circle cx="149.0" cy="173.0" fill="black" r="3" /><circle cx="430.0" cy="110.0" fill="black" r="3" /><circle cx="523.0" cy="142.0" fill="black" r="3" /><circle cx="454.0" cy="353.0" fill="black" r="3" /><circle cx="97.0" cy="362.0" fill="black" r="3" /><circle cx="125.0" cy="430.0" fill="black" r="3" /><circle cx="134.0" cy="143.0" fill="black" r="3" /><circle cx="272.0" cy="544.0" fill="black" r="3" /><circle cx="287.0" cy="91.0" fill="black" r="3" /><circle cx="347.0" cy="117.0" fill="black" r="3" /><circle cx="613.0" cy="341.0" fill="black" r="3" /><circle cx="142.0" cy="555.0" fill="black" r="3" /><circle cx="376.0" cy="106.0" fill="black" r="3" /><circle cx="503.0" cy="458.0" fill="black" r="3" /><circle cx="530.0" cy="557.0" fill="black" r="3" /><circle cx="460.0" cy="506.0" fill="black" r="3" /><circle cx="175.0" cy="562.0" fill="black" r="3" /><circle cx="200.0" cy="97.0" fill="black" r="3" /><circle cx="223.0" cy="154.0" fill="black" r="3" /><circle cx="593.0" cy="269.0" fill="black" r="3" /><circle cx="500.0" cy="121.0" fill="black" r="3" /><circle cx="526.0" cy="191.0" fill="black" r="3" /><circle cx="34.0" cy="339.0" fill="black" r="3" /><circle cx="543.0" cy="356.0" fill="black" r="3" /><circle cx="51.0" cy="380.0" fill="black" r="3" /><circle cx="107.0" cy="472.0" fill="black" r="3" /><circle cx="76.0" cy="405.0" fill="black" r="3" /><circle cx="592.0" cy="395.0" fill="black" r="3" /><circle cx="351.0" cy="478.0" fill="black" r="3" /><circle cx="553.0" cy="513.0" fill="black" r="3" /><circle cx="551.0" cy="124.0" fill="black" r="3" /><circle cx="357.0" cy="554.0" fill="black" r="3" /><circle cx="98.0" cy="271.0" fill="black" r="3" /><circle cx="370.0" cy="607.0" fill="black" r="3" /><circle cx="220.0" cy="551.0" fill="black" r="3" /><circle cx="620.0" cy="293.0" fill="black" r="3" /><circle cx="538.0" cy="296.0" fill="black" r="3" /><circle cx="554.0" cy="173.0" fill="black" r="3" /><circle cx="476.0" cy="551.0" fill="black" r="3" /><circle cx="50.0" cy="295.0" fill="black" r="3" /><circle cx="388.0" cy="428.0" fill="black" r="3" /><circle cx="319.0" cy="608.0" fill="black" r="3" /><circle cx="471.0" cy="100.0" fill="black" r="3" /><circle cx="497.0" cy="316.0" fill="black" r="3" /><circle cx="178.0" cy="305.0" fill="black" r="3" /><circle cx="344.0" cy="626.0" fill="black" r="3" /><circle cx="232.0" cy="77.0" fill="black" r="3" /><circle cx="176.0" cy="77.0" fill="black" r="3" /><circle cx="135.0" cy="113.0" fill="black" r="3" /><circle cx="392.0" cy="583.0" fill="black" r="3" /><circle cx="167.0" cy="146.0" fill="black" r="3" /><circle cx="175.0" cy="495.0" fill="black" r="3" /><circle cx="286.0" cy="583.0" fill="black" r="3" /><circle cx="439.0" cy="140.0" fill="black" r="3" /><circle cx="554.0" cy="483.0" fill="black" r="3" /><circle cx="317.0" cy="19.0" fill="black" r="3" /><circle cx="496.0" cy="157.0" fill="black" r="3" /><circle cx="569.0" cy="340.0" fill="black" r="3" /><circle cx="511.0" cy="488.0" fill="black" r="3" /><circle cx="439.0" cy="75.0" fill="black" r="3" /><circle cx="500.0" cy="525.0" fill="black" r="3" /><circle cx="101.0" cy="133.0" fill="black" r="3" /><circle cx="266.0" cy="61.0" fill="black" r="3" /></svg>