<?xml version="1.0" encoding="utf-8" ?>
<svg baseProfile="tiny" height="100%" version="1.2" viewBox="0,0,500,500" width="100%" xmlns="http://www.w3.org/2000/svg" xmlns:ev="http://www.w3.org/2001/xml-events" xmlns:xlink="http://www.w3.org/1999/xlink"><defs /><circle cx="292" cy="460" fill="black" r="3" /><circle cx="350" cy="170" fill="black" r="3" /><circle cx="199" cy="277" fill="black" r="3" /><circle cx="217" cy="236" fill="black" r="3" /><circle cx="275" cy="302" fill="black" r="3" /><circle cx="328" cy="127" fill="black" r="3" /><circle cx="334" cy="370" fill="black" r="3" /><circle cx="549" cy="201" fill="black" r="3" /><circle cx="143" cy="277" fill="black" r="3" /><circle cx="370" cy="364" fill="black" r="3" /><circle cx="413" cy="254" fill="black" r="3" /><circle cx="220" cy="503" fill="black" r="3" /><circle cx="346" cy="206" fill="black" r="3" /><circle cx="374" cy="143" fill="black" r="3" /><circle cx="188" cy="425" fill="black" r="3" /><circle cx="242" cy="272" fill="black" r="3" /><circle cx="284" cy="347" fill="black" r="3" /><circle cx="296" cy="199" fill="black" r="3" /><circle cx="401" cy="199" fill="black" r="3" /><circle cx="416" cy="295" fill="black" r="3" /><circle cx="482" cy="172" fill="black" r="3" /><circle cx="525" cy="286" fill="black" r="3" /><circle cx="95" cy="353" fill="black" r="3" /><circle cx="109" cy="308" fill="black" r="3" /><circle cx="212" cy="106" fill="black" r="3" /><circle cx="407" cy="371" fill="black" r="3" /><circle cx="418" cy="103" fill="black" r="3" /><circle cx="127" cy="250" fill="black" r="3" /><circle cx="241" cy="309" fill="black" r="3" /><circle cx="467" cy="143" fill="black" r="3" /><circle cx="199" cy="139" fill="black" r="3" /><circle cx="422" cy="489" fill="black" r="3" /><circle cx="454" cy="289" fill="black" r="3" /><circle cx="238" cy="203" fill="black" r="3" /><circle cx="128" cy="369" fill="black" r="3" /><circle cx="169" cy="313" fill="black" r="3" /><circle cx="283" cy="103" fill="black" r="3" /><circle cx="322" cy="325" fill="black" r="3" /><circle cx="322" cy="409" fill="black" r="3" /><circle cx="328" cy="461" fill="black" r="3" /><circle cx="151" cy="431" fill="black" r="3" /><circle cx="406" cy="326" fill="black" r="3" /><circle cx="119" cy="187" fill="black" r="3" /><circle cx="254" cy="371" fill="black" r="3" /><circle cx="277" cy="427" fill="black" r="3" /><circle cx="326" cy="260" fill="black" r="3" /><circle cx="347" cy="93" fill="black" r="3" /><circle cx="427" cy="161" fill="black" r="3" /><circle cx="461" cy="398" fill="black" r="3" /><circle cx="224" cy="169" fill="black" r="3" /><circle cx="509" cy="236" fill="black" r="3" /><circle cx="171" cy="475" fill="black" r="3" /><circle cx="284" cy="382" fill="black" r="3" /><circle cx="571" cy="379" fill="black" r="3" /><circle cx="266" cy="191" fill="black" r="3" /><circle cx="308" cy="169" fill="black" r="3" /><circle cx="379" cy="281" fill="black" r="3" /><circle cx="380" cy="104" fill="black" r="3" /><circle cx="485" cy="274" fill="black" r="3" /><circle cx="122" cy="220" fill="black" r="3" /><circle cx="292" cy="271" fill="black" r="3" /><circle cx="343" cy="295" fill="black" r="3" /><circle cx="415" cy="404" fill="black" r="3" /><circle cx="488" cy="367" fill="black" r="3" /><circle cx="91" cy="232" fill="black" r="3" /><circle cx="181" cy="343" fill="black" r="3" /><circle cx="376" cy="218" fill="black" r="3" /><circle cx="405" cy="459" fill="black" r="3" /><circle cx="351" cy="339" fill="black" r="3" /><circle cx="165" cy="380" fill="black" r="3" /><circle cx="302" cy="242" fill="black" r="3" /><circle cx="352" cy="413" fill="black" r="3" /><circle cx="358" cy="247" fill="black" r="3" /><circle cx="460" cy="352" fill="black" r="3" /><circle cx="471" cy="430" fill="black" r="3" /><circle cx="239" cy="407" fill="black" r="3" /><circle cx="475" cy="323" fill="black" r="3" /><circle cx="218" cy="349" fill="black" r="3" /><circle cx="239" cy="130" fill="black" r="3" /><circle cx="245" cy="98" fill="black" r="3" /><circle cx="247" cy="340" fill="black" r="3" /><circle cx="376" cy="320" fill="black" r="3" /><circle cx="437" cy="327" fill="black" r="3" /><circle cx="548" cy="308" fill="black" r="3" /><circle cx="425" cy="218" fill="black" r="3" /><circle cx="523" cy="373" fill="black" r="3" /><circle cx="206" cy="458" fill="black" r="3" /><circle cx="262" cy="227" fill="black" r="3" /><circle cx="310" cy="490" fill="black" r="3" /><circle cx="459" cy="207" fill="black" r="3" /><circle cx="485" cy="119" fill="black" r="3" /><circle cx="521" cy="140" fill="black" r="3" /><circle cx="548" cy="245" fill="black" r="3" /><circle cx="113" cy="400" fill="black" r="3" /><circle cx="185" cy="166" fill="black" r="3" /><circle cx="367" cy="67" fill="black" r="3" /><circle cx="515" cy="175" fill="black" r="3" /><circle cx="302" cy="79" fill="black" r="3" /><circle cx="199" cy="395" fill="black" r="3" /><circle cx="499" cy="395" fill="black" r="3" /><circle cx="157" cy="248" fill="black" r="3" /><circle cx="268" cy="513" fill="black" r="3" /><circle cx="291" cy="567" fill="black" r="3" /><circle cx="376" cy="473" fill="black" r="3" /><circle cx="453" cy="115" fill="black" r="3" /><circle cx="470" cy="244" fill="black" r="3" /><circle cx="508" cy="328" fill="black" r="3" /><circle cx="101" cy="272" fill="black" r="3" /><circle cx="395" cy="166" fill="black" r="3" /><circle cx="458" cy="461" fill="black" r="3" /><circle cx="199" cy="202" fill="black" r="3" /><circle cx="383" cy="428" fill="black" r="3" /><circle cx="155" cy="170" fill="black" r="3" /><circle cx="549" cy="357" fill="black" r="3" /><circle cx="59" cy="298" fill="black" r="3" /><circle cx="182" cy="230" fill="black" r="3" /><circle cx="256" cy="481" fill="black" r="3" /><circle cx="531" cy="433" fill="black" r="3" /><circle cx="202" cy="321" fill="black" r="3" /><circle cx="169" cy="100" fill="black" r="3" /><circle cx="153" cy="201" fill="black" r="3" /><circle cx="321" cy="592" fill="black" r="3" /><circle cx="50" cy="249" fill="black" r="3" /><circle cx="298" cy="529" fill="black" r="3" /><circle cx="439" cy="427" fill="black" r="3" /><circle cx="381" cy="393" fill="black" r="3" /><circle cx="544" cy="493" fill="black" r="3" /><circle cx="560" cy="275" fill="black" r="3" /><circle cx="139" cy="316" fill="black" r="3" /><circle cx="350" cy="491" fill="black" r="3" /><circle cx="157" cy="135" fill="black" r="3" /><circle cx="223" cy="433" fill="black" r="3" /><circle cx="89" cy="183" fill="black" r="3" /><circle cx="285" cy="148" fill="black" r="3" /><circle cx="333" cy="67" fill="black" r="3" /><circle cx="547" cy="398" fill="black" r="3" /><circle cx="85" cy="478" fill="black" r="3" /><circle cx="269" cy="73" fill="black" r="3" /><circle cx="619" cy="296" fill="black" r="3" /><circle cx="395" cy="509" fill="black" r="3" /><circle cx="491" cy="203" fill="black" r="3" /><circle cx="493" cy="481" fill="black" r="3" /><circle cx="578" cy="325" fill="black" r="3" /><circle cx="339" cy="28" fill="black" r="3" /><circle cx="103" cy="448" fill="black" r="3" /><circle cx="117" cy="487" fill="black" r="3" /><circle cx="137" cy="463" fill="black" r="3" /><circle cx="137" cy="80" fill="black" r="3" /><circle cx="151" cy="349" fill="black" r="3" /><circle cx="253" cy="446" fill="black" r="3" /><circle cx="410" cy="133" fill="black" r="3" /><circle cx="365" cy="533" fill="black" r="3" /><circle cx="356" cy="447" fill="black" r="3" /><circle cx="581" cy="254" fill="black" r="3" /><circle cx="191" cy="535" fill="black" r="3" /><circle cx="253" cy="160" fill="black" r="3" /><circle cx="533" cy="111" fill="black" r="3" /><circle cx="22" cy="263" fill="black" r="3" /><circle cx="69" cy="339" fill="black" r="3" /><circle cx="437" cy="380" fill="black" r="3" /><circle cx="232" cy="538" fill="black" r="3" /><circle cx="307" cy="297" fill="black" r="3" /><circle cx="350" cy="560" fill="black" r="3" /><circle cx="85" cy="383" fill="black" r="3" /><circle cx="163" cy="547" fill="black" r="3" /><circle cx="569" cy="177" fill="black" r="3" /><circle cx="591" cy="283" fill="black" r="3" /><circle cx="235" cy="65" fill="black" r="3" /><circle cx="441" cy="75" fill="black" r="3" /><circle cx="101" cy="541" fill="black" r="3" /><circle cx="527" cy="465" fill="black" r="3" /><circle cx="335" cy="533" fill="black" r="3" /><circle cx="433" cy="519" fill="black" r="3" /><circle cx="403" cy="73" fill="black" r="3" /><circle cx="610" cy="329" fill="black" r="3" /><line stroke="black" stroke-width="2" x1="460.0" x2="85.0" y1="352.0" y2="478.0" /><line stroke="black" stroke-width="2" x1="85.0" x2="292.0" y1="478.0" y2="271.0" /><line stroke="black" stroke-width="2" x1="292.0" x2="458.0" y1="271.0" y2="461.0" /><line stroke="black" stroke-width="2" x1="458.0" x2="302.0" y1="461.0" y2="242.0" /><line stroke="black" stroke-width="2" x1="302.0" x2="171.0" y1="242.0" y2="475.0" /><line stroke="black" stroke-width="2" x1="171.0" x2="578.0" y1="475.0" y2="325.0" /><line stroke="black" stroke-width="2" x1="578.0" x2="471.0" y1="325.0" y2="430.0" /><line stroke="black" stroke-width="2" x1="471.0" x2="321.0" y1="430.0" y2="592.0" /><line stroke="black" stroke-width="2" x1="321.0" x2="256.0" y1="592.0" y2="481.0" /><line stroke="black" stroke-width="2" x1="256.0" x2="277.0" y1="481.0" y2="427.0" /><line stroke="black" stroke-width="2" x1="277.0" x2="91.0" y1="427.0" y2="232.0" /><line stroke="black" stroke-width="2" x1="91.0" x2="433.0" y1="232.0" y2="519.0" /><line stroke="black" stroke-width="2" x1="433.0" x2="310.0" y1="519.0" y2="490.0" /><line stroke="black" stroke-width="2" x1="310.0" x2="232.0" y1="490.0" y2="538.0" /><line stroke="black" stroke-width="2" x1="232.0" x2="460.0" y1="538.0" y2="352.0" /></svg>