<?xml version="1.0" encoding="utf-8" ?>
<svg baseProfile="tiny" height="100%" version="1.2" viewBox="0,0,500,500" width="100%" xmlns="http://www.w3.org/2000/svg" xmlns:ev="http://www.w3.org/2001/xml-events" xmlns:xlink="http://www.w3.org/1999/xlink"><defs /><circle cx="133.0" cy="407.0" fill="black" r="3" /><circle cx="805.0" cy="722.0" fill="black" r="3" /><circle cx="285.0" cy="213.0" fill="black" r="3" /><circle cx="505.0" cy="123.0" fill="black" r="3" /><circle cx="617.0" cy="448.0" fill="black" r="3" /><circle cx="825.0" cy="769.0" fill="black" r="3" /><circle cx="286.0" cy="452.0" fill="black" r="3" /><circle cx="163.0" cy="409.0" fill="black" r="3" /><circle cx="364.0" cy="254.0" fill="black" r="3" /><circle cx="581.0" cy="223.0" fill="black" r="3" /><circle cx="610.0" cy="631.0" fill="black" r="3" /><circle cx="838.0" cy="328.0" fill="black" r="3" /><circle cx="392.0" cy="278.0" fill="black" r="3" /><circle cx="503.0" cy="365.0" fill="black" r="3" /><circle cx="622.0" cy="824.0" fill="black" r="3" /><circle cx="833.0" cy="263.0" fill="black" r="3" /><circle cx="921.0" cy="568.0" fill="black" r="3" /><circle cx="236.0" cy="662.0" fill="black" r="3" /><circle cx="237.0" cy="332.0" fill="black" r="3" /><circle cx="328.0" cy="661.0" fill="black" r="3" /><circle cx="511.0" cy="407.0" fill="black" r="3" /><circle cx="542.0" cy="302.0" fill="black" r="3" /><circle cx="851.0" cy="641.0" fill="black" r="3" /><circle cx="227.0" cy="470.0" fill="black" r="3" /><circle cx="512.0" cy="326.0" fill="black" r="3" /><circle cx="781.0" cy="283.0" fill="black" r="3" /><circle cx="787.0" cy="695.0" fill="black" r="3" /><circle cx="880.0" cy="364.0" fill="black" r="3" /><circle cx="220.0" cy="424.0" fill="black" r="3" /><circle cx="320.0" cy="251.0" fill="black" r="3" /><circle cx="470.0" cy="352.0" fill="black" r="3" /><circle cx="511.0" cy="524.0" fill="black" r="3" /><circle cx="263.0" cy="177.0" fill="black" r="3" /><circle cx="467.0" cy="562.0" fill="black" r="3" /><circle cx="524.0" cy="94.0" fill="black" r="3" /><circle cx="532.0" cy="164.0" fill="black" r="3" /><circle cx="874.0" cy="305.0" fill="black" r="3" /><circle cx="715.0" cy="196.0" fill="black" r="3" /><circle cx="761.0" cy="722.0" fill="black" r="3" /><circle cx="298.0" cy="641.0" fill="black" r="3" /><circle cx="353.0" cy="680.0" fill="black" r="3" /><circle cx="412.0" cy="788.0" fill="black" r="3" /><circle cx="591.0" cy="555.0" fill="black" r="3" /><circle cx="628.0" cy="161.0" fill="black" r="3" /><circle cx="830.0" cy="527.0" fill="black" r="3" /><circle cx="439.0" cy="353.0" fill="black" r="3" /><circle cx="467.0" cy="217.0" fill="black" r="3" /><circle cx="119.0" cy="449.0" fill="black" r="3" /><circle cx="289.0" cy="296.0" fill="black" r="3" /><circle cx="292.0" cy="676.0" fill="black" r="3" /><circle cx="433.0" cy="712.0" fill="black" r="3" /><circle cx="632.0" cy="589.0" fill="black" r="3" /><circle cx="659.0" cy="427.0" fill="black" r="3" /><circle cx="665.0" cy="596.0" fill="black" r="3" /><circle cx="727.0" cy="358.0" fill="black" r="3" /><circle cx="830.0" cy="739.0" fill="black" r="3" /><circle cx="861.0" cy="507.0" fill="black" r="3" /><circle cx="841.0" cy="795.0" fill="black" r="3" /><circle cx="194.0" cy="722.0" fill="black" r="3" /><circle cx="197.0" cy="449.0" fill="black" r="3" /><circle cx="259.0" cy="478.0" fill="black" r="3" /><circle cx="507.0" cy="765.0" fill="black" r="3" /><circle cx="535.0" cy="124.0" fill="black" r="3" /><circle cx="537.0" cy="361.0" fill="black" r="3" /><circle cx="571.0" cy="668.0" fill="black" r="3" /><circle cx="686.0" cy="811.0" fill="black" r="3" /><circle cx="208.0" cy="363.0" fill="black" r="3" /><circle cx="263.0" cy="650.0" fill="black" r="3" /><circle cx="785.0" cy="325.0" fill="black" r="3" /><circle cx="209.0" cy="593.0" fill="black" r="3" /><circle cx="250.0" cy="215.0" fill="black" r="3" /><circle cx="250.0" cy="704.0" fill="black" r="3" /><circle cx="275.0" cy="422.0" fill="black" r="3" /><circle cx="291.0" cy="526.0" fill="black" r="3" /><circle cx="332.0" cy="193.0" fill="black" r="3" /><circle cx="391.0" cy="541.0" fill="black" r="3" /><circle cx="587.0" cy="845.0" fill="black" r="3" /><circle cx="596.0" cy="425.0" fill="black" r="3" /><circle cx="597.0" cy="133.0" fill="black" r="3" /><circle cx="725.0" cy="694.0" fill="black" r="3" /><circle cx="909.0" cy="535.0" fill="black" r="3" /><circle cx="310.0" cy="700.0" fill="black" r="3" /><circle cx="388.0" cy="610.0" fill="black" r="3" /><circle cx="562.0" cy="256.0" fill="black" r="3" /><circle cx="640.0" cy="94.0" fill="black" r="3" /><circle cx="659.0" cy="127.0" fill="black" r="3" /><circle cx="671.0" cy="388.0" fill="black" r="3" /><circle cx="881.0" cy="398.0" fill="black" r="3" /><circle cx="934.0" cy="511.0" fill="black" r="3" /><circle cx="950.0" cy="545.0" fill="black" r="3" /><circle cx="237.0" cy="501.0" fill="black" r="3" /><circle cx="461.0" cy="148.0" fill="black" r="3" /><circle cx="830.0" cy="293.0" fill="black" r="3" /><circle cx="259.0" cy="304.0" fill="black" r="3" /><circle cx="194.0" cy="395.0" fill="black" r="3" /><circle cx="199.0" cy="679.0" fill="black" r="3" /><circle cx="247.0" cy="442.0" fill="black" r="3" /><circle cx="290.0" cy="566.0" fill="black" r="3" /><circle cx="412.0" cy="566.0" fill="black" r="3" /><circle cx="479.0" cy="482.0" fill="black" r="3" /><circle cx="550.0" cy="188.0" fill="black" r="3" /><circle cx="592.0" cy="273.0" fill="black" r="3" /><circle cx="602.0" cy="194.0" fill="black" r="3" /><circle cx="651.0" cy="814.0" fill="black" r="3" /><circle cx="685.0" cy="175.0" fill="black" r="3" /><circle cx="782.0" cy="662.0" fill="black" r="3" /><circle cx="215.0" cy="634.0" fill="black" r="3" /><circle cx="341.0" cy="610.0" fill="black" r="3" /><circle cx="382.0" cy="795.0" fill="black" r="3" /><circle cx="896.0" cy="425.0" fill="black" r="3" /><circle cx="364.0" cy="646.0" fill="black" r="3" /><circle cx="433.0" cy="454.0" fill="black" r="3" /><circle cx="490.0" cy="451.0" fill="black" r="3" /><circle cx="533.0" cy="784.0" fill="black" r="3" /><circle cx="587.0" cy="104.0" fill="black" r="3" /><circle cx="659.0" cy="653.0" fill="black" r="3" /><circle cx="675.0" cy="295.0" fill="black" r="3" /><circle cx="694.0" cy="423.0" fill="black" r="3" /><circle cx="782.0" cy="758.0" fill="black" r="3" /><circle cx="821.0" cy="584.0" fill="black" r="3" /><circle cx="850.0" cy="415.0" fill="black" r="3" /><circle cx="884.0" cy="652.0" fill="black" r="3" /><circle cx="477.0" cy="679.0" fill="black" r="3" /><circle cx="547.0" cy="523.0" fill="black" r="3" /><circle cx="579.0" cy="165.0" fill="black" r="3" /><circle cx="734.0" cy="325.0" fill="black" r="3" /><circle cx="155.0" cy="446.0" fill="black" r="3" /><circle cx="297.0" cy="731.0" fill="black" r="3" /><circle cx="512.0" cy="646.0" fill="black" r="3" /><circle cx="541.0" cy="406.0" fill="black" r="3" /><circle cx="776.0" cy="249.0" fill="black" r="3" /><circle cx="796.0" cy="604.0" fill="black" r="3" /><circle cx="823.0" cy="680.0" fill="black" r="3" /><circle cx="855.0" cy="761.0" fill="black" r="3" /><circle cx="251.0" cy="253.0" fill="black" r="3" /><circle cx="387.0" cy="159.0" fill="black" r="3" /><circle cx="575.0" cy="789.0" fill="black" r="3" /><circle cx="890.0" cy="470.0" fill="black" r="3" /><circle cx="175.0" cy="601.0" fill="black" r="3" /><circle cx="209.0" cy="761.0" fill="black" r="3" /><circle cx="320.0" cy="351.0" fill="black" r="3" /><circle cx="388.0" cy="310.0" fill="black" r="3" /><circle cx="403.0" cy="460.0" fill="black" r="3" /><circle cx="449.0" cy="535.0" fill="black" r="3" /><circle cx="551.0" cy="811.0" fill="black" r="3" /><circle cx="593.0" cy="877.0" fill="black" r="3" /><circle cx="694.0" cy="460.0" fill="black" r="3" /><circle cx="704.0" cy="317.0" fill="black" r="3" /><circle cx="770.0" cy="490.0" fill="black" r="3" /><circle cx="823.0" cy="235.0" fill="black" r="3" /><circle cx="838.0" cy="706.0" fill="black" r="3" /><circle cx="874.0" cy="619.0" fill="black" r="3" /><circle cx="971.0" cy="501.0" fill="black" r="3" /><circle cx="157.0" cy="379.0" fill="black" r="3" /><circle cx="346.0" cy="146.0" fill="black" r="3" /><circle cx="397.0" cy="233.0" fill="black" r="3" /><circle cx="633.0" cy="501.0" fill="black" r="3" /><circle cx="803.0" cy="793.0" fill="black" r="3" /><circle cx="208.0" cy="520.0" fill="black" r="3" /><circle cx="477.0" cy="753.0" fill="black" r="3" /><circle cx="493.0" cy="166.0" fill="black" r="3" /><circle cx="515.0" cy="238.0" fill="black" r="3" /><circle cx="521.0" cy="706.0" fill="black" r="3" /><circle cx="593.0" cy="376.0" fill="black" r="3" /><circle cx="611.0" cy="527.0" fill="black" r="3" /><circle cx="663.0" cy="212.0" fill="black" r="3" /><circle cx="877.0" cy="547.0" fill="black" r="3" /><circle cx="880.0" cy="233.0" fill="black" r="3" /><circle cx="441.0" cy="586.0" fill="black" r="3" /><circle cx="575.0" cy="400.0" fill="black" r="3" /><circle cx="891.0" cy="585.0" fill="black" r="3" /><circle cx="620.0" cy="855.0" fill="black" r="3" /><circle cx="814.0" cy="195.0" fill="black" r="3" /><circle cx="644.0" cy="623.0" fill="black" r="3" /><circle cx="806.0" cy="826.0" fill="black" r="3" /><circle cx="469.0" cy="823.0" fill="black" r="3" /><circle cx="164.0" cy="524.0" fill="black" r="3" /><circle cx="248.0" cy="620.0" fill="black" r="3" /><circle cx="371.0" cy="431.0" fill="black" r="3" /><circle cx="371.0" cy="566.0" fill="black" r="3" /><circle cx="380.0" cy="511.0" fill="black" r="3" /><circle cx="404.0" cy="662.0" fill="black" r="3" /><circle cx="439.0" cy="169.0" fill="black" r="3" /><circle cx="475.0" cy="512.0" fill="black" r="3" /><circle cx="559.0" cy="905.0" fill="black" r="3" /><circle cx="609.0" cy="695.0" fill="black" r="3" /><circle cx="613.0" cy="665.0" fill="black" r="3" /><circle cx="623.0" cy="393.0" fill="black" r="3" /><circle cx="645.0" cy="746.0" fill="black" r="3" /><circle cx="688.0" cy="691.0" fill="black" r="3" /><circle cx="716.0" cy="487.0" fill="black" r="3" /><circle cx="800.0" cy="353.0" fill="black" r="3" /><circle cx="818.0" cy="398.0" fill="black" r="3" /><circle cx="839.0" cy="556.0" fill="black" r="3" /><circle cx="242.0" cy="403.0" fill="black" r="3" /><circle cx="302.0" cy="161.0" fill="black" r="3" /><circle cx="377.0" cy="746.0" fill="black" r="3" /><circle cx="529.0" cy="550.0" fill="black" r="3" /><circle cx="550.0" cy="856.0" fill="black" r="3" /><circle cx="681.0" cy="257.0" fill="black" r="3" /><circle cx="682.0" cy="628.0" fill="black" r="3" /><circle cx="701.0" cy="387.0" fill="black" r="3" /><circle cx="763.0" cy="536.0" fill="black" r="3" /><circle cx="926.0" cy="460.0" fill="black" r="3" /><circle cx="499.0" cy="557.0" fill="black" r="3" /><circle cx="208.0" cy="562.0" fill="black" r="3" /><circle cx="746.0" cy="296.0" fill="black" r="3" /><circle cx="334.0" cy="773.0" fill="black" r="3" /><circle cx="337.0" cy="278.0" fill="black" r="3" /><circle cx="371.0" cy="205.0" fill="black" r="3" /><circle cx="419.0" cy="627.0" fill="black" r="3" /><circle cx="469.0" cy="860.0" fill="black" r="3" /><circle cx="550.0" cy="224.0" fill="black" r="3" /><circle cx="662.0" cy="466.0" fill="black" r="3" /><circle cx="739.0" cy="178.0" fill="black" r="3" /><circle cx="868.0" cy="272.0" fill="black" r="3" /><circle cx="490.0" cy="799.0" fill="black" r="3" /><circle cx="539.0" cy="605.0" fill="black" r="3" /><circle cx="560.0" cy="338.0" fill="black" r="3" /><circle cx="715.0" cy="664.0" fill="black" r="3" /><circle cx="731.0" cy="731.0" fill="black" r="3" /><circle cx="827.0" cy="490.0" fill="black" r="3" /><circle cx="483.0" cy="313.0" fill="black" r="3" /><circle cx="627.0" cy="340.0" fill="black" r="3" /><circle cx="127.0" cy="483.0" fill="black" r="3" /><circle cx="305.0" cy="794.0" fill="black" r="3" /><circle cx="311.0" cy="596.0" fill="black" r="3" /><circle cx="535.0" cy="737.0" fill="black" r="3" /><circle cx="589.0" cy="314.0" fill="black" r="3" /><circle cx="766.0" cy="829.0" fill="black" r="3" /><circle cx="839.0" cy="451.0" fill="black" r="3" /><circle cx="320.0" cy="470.0" fill="black" r="3" /><circle cx="341.0" cy="314.0" fill="black" r="3" /><circle cx="811.0" cy="632.0" fill="black" r="3" /><circle cx="286.0" cy="251.0" fill="black" r="3" /><circle cx="428.0" cy="820.0" fill="black" r="3" /><circle cx="445.0" cy="749.0" fill="black" r="3" /><circle cx="448.0" cy="783.0" fill="black" r="3" /><circle cx="460.0" cy="616.0" fill="black" r="3" /><circle cx="556.0" cy="77.0" fill="black" r="3" /><circle cx="559.0" cy="565.0" fill="black" r="3" /><circle cx="566.0" cy="136.0" fill="black" r="3" /><circle cx="583.0" cy="602.0" fill="black" r="3" /><circle cx="760.0" cy="406.0" fill="black" r="3" /><circle cx="766.0" cy="203.0" fill="black" r="3" /><circle cx="339.0" cy="223.0" fill="black" r="3" /><circle cx="424.0" cy="285.0" fill="black" r="3" /><circle cx="845.0" cy="199.0" fill="black" r="3" /><circle cx="320.0" cy="542.0" fill="black" r="3" /><circle cx="322.0" cy="433.0" fill="black" r="3" /><circle cx="351.0" cy="381.0" fill="black" r="3" /><circle cx="578.0" cy="715.0" fill="black" r="3" /><circle cx="680.0" cy="766.0" fill="black" r="3" /><circle cx="259.0" cy="761.0" fill="black" r="3" /><circle cx="303.0" cy="495.0" fill="black" r="3" /><circle cx="383.0" cy="829.0" fill="black" r="3" /><circle cx="413.0" cy="335.0" fill="black" r="3" /><circle cx="523.0" cy="833.0" fill="black" r="3" /><circle cx="716.0" cy="631.0" fill="black" r="3" /><circle cx="743.0" cy="454.0" fill="black" r="3" /><circle cx="213.0" cy="303.0" fill="black" r="3" /><circle cx="346.0" cy="713.0" fill="black" r="3" /><circle cx="416.0" cy="148.0" fill="black" r="3" /><circle cx="517.0" cy="281.0" fill="black" r="3" /><circle cx="521.0" cy="905.0" fill="black" r="3" /><circle cx="597.0" cy="759.0" fill="black" r="3" /><circle cx="635.0" cy="250.0" fill="black" r="3" /><circle cx="645.0" cy="554.0" fill="black" r="3" /><circle cx="734.0" cy="221.0" fill="black" r="3" /><circle cx="754.0" cy="680.0" fill="black" r="3" /><circle cx="794.0" cy="545.0" fill="black" r="3" /><circle cx="675.0" cy="496.0" fill="black" r="3" /><circle cx="754.0" cy="628.0" fill="black" r="3" /><circle cx="345.0" cy="512.0" fill="black" r="3" /><circle cx="763.0" cy="572.0" fill="black" r="3" /><circle cx="727.0" cy="811.0" fill="black" r="3" /><circle cx="749.0" cy="773.0" fill="black" r="3" /><circle cx="389.0" cy="356.0" fill="black" r="3" /><circle cx="398.0" cy="693.0" fill="black" r="3" /><circle cx="671.0" cy="727.0" fill="black" r="3" /><circle cx="793.0" cy="458.0" fill="black" r="3" /><circle cx="627.0" cy="129.0" fill="black" r="3" /><circle cx="867.0" cy="337.0" fill="black" r="3" /><circle cx="169.0" cy="478.0" fill="black" r="3" /><circle cx="424.0" cy="493.0" fill="black" r="3" /><circle cx="491.0" cy="719.0" fill="black" r="3" /><circle cx="511.0" cy="197.0" fill="black" r="3" /><circle cx="559.0" cy="637.0" fill="black" r="3" /><circle cx="603.0" cy="487.0" fill="black" r="3" /><circle cx="608.0" cy="75.0" fill="black" r="3" /><circle cx="861.0" cy="589.0" fill="black" r="3" /><circle cx="734.0" cy="601.0" fill="black" r="3" /><circle cx="616.0" cy="221.0" fill="black" r="3" /><circle cx="247.0" cy="530.0" fill="black" r="3" /><circle cx="279.0" cy="597.0" fill="black" r="3" /><circle cx="425.0" cy="217.0" fill="black" r="3" /><circle cx="476.0" cy="269.0" fill="black" r="3" /><circle cx="682.0" cy="344.0" fill="black" r="3" /><circle cx="236.0" cy="739.0" fill="black" r="3" /><circle cx="443.0" cy="655.0" fill="black" r="3" /><circle cx="645.0" cy="777.0" fill="black" r="3" /><circle cx="549.0" cy="694.0" fill="black" r="3" /><circle cx="892.0" cy="509.0" fill="black" r="3" /><circle cx="493.0" cy="887.0" fill="black" r="3" /><circle cx="899.0" cy="275.0" fill="black" r="3" /><circle cx="686.0" cy="845.0" fill="black" r="3" /><circle cx="616.0" cy="299.0" fill="black" r="3" /><circle cx="479.0" cy="592.0" fill="black" r="3" /><circle cx="700.0" cy="592.0" fill="black" r="3" /><circle cx="645.0" cy="187.0" fill="black" r="3" /><circle cx="704.0" cy="281.0" fill="black" r="3" /><circle cx="259.0" cy="794.0" fill="black" r="3" /><circle cx="268.0" cy="344.0" fill="black" r="3" /><circle cx="291.0" cy="766.0" fill="black" r="3" /><circle cx="352.0" cy="472.0" fill="black" r="3" /><circle cx="359.0" cy="173.0" fill="black" r="3" /><circle cx="455.0" cy="326.0" fill="black" r="3" /><circle cx="861.0" cy="729.0" fill="black" r="3" /><circle cx="184.0" cy="635.0" fill="black" r="3" /><circle cx="773.0" cy="799.0" fill="black" r="3" /><circle cx="308.0" cy="381.0" fill="black" r="3" /><circle cx="739.0" cy="518.0" fill="black" r="3" /><circle cx="842.0" cy="369.0" fill="black" r="3" /><circle cx="400.0" cy="190.0" fill="black" r="3" /><circle cx="923.0" cy="391.0" fill="black" r="3" /><circle cx="957.0" cy="455.0" fill="black" r="3" /><circle cx="341.0" cy="577.0" fill="black" r="3" /><circle cx="797.0" cy="506.0" fill="black" r="3" /><circle cx="605.0" cy="799.0" fill="black" r="3" /><circle cx="392.0" cy="405.0" fill="black" r="3" /><circle cx="417.0" cy="377.0" fill="black" r="3" /><circle cx="649.0" cy="691.0" fill="black" r="3" /><circle cx="741.0" cy="261.0" fill="black" r="3" /><circle cx="725.0" cy="412.0" fill="black" r="3" /><circle cx="172.0" cy="554.0" fill="black" r="3" /><circle cx="700.0" cy="742.0" fill="black" r="3" /><circle cx="429.0" cy="682.0" fill="black" r="3" /><circle cx="759.0" cy="357.0" fill="black" r="3" /><circle cx="197.0" cy="491.0" fill="black" r="3" /><circle cx="580.0" cy="518.0" fill="black" r="3" /><circle cx="500.0" cy="617.0" fill="black" r="3" /><circle cx="272.0" cy="382.0" fill="black" r="3" /><circle cx="410.0" cy="734.0" fill="black" r="3" /><circle cx="897.0" cy="334.0" fill="black" r="3" /><circle cx="713.0" cy="248.0" fill="black" r="3" /><circle cx="605.0" cy="728.0" fill="black" r="3" /><circle cx="220.0" cy="707.0" fill="black" r="3" /><circle cx="50.0" cy="908.0" fill="black" r="3" /><circle cx="475.0" cy="401.0" fill="black" r="3" /><circle cx="371.0" cy="125.0" fill="black" r="3" /><circle cx="563.0" cy="482.0" fill="black" r="3" /><circle cx="727.0" cy="549.0" fill="black" r="3" /><circle cx="80.0" cy="923.0" fill="black" r="3" /><circle cx="652.0" cy="860.0" fill="black" r="3" /><circle cx="457.0" cy="293.0" fill="black" r="3" /><circle cx="229.0" cy="794.0" fill="black" r="3" /><circle cx="893.0" cy="755.0" fill="black" r="3" /><circle cx="511.0" cy="677.0" fill="black" r="3" /><circle cx="451.0" cy="430.0" fill="black" r="3" /><circle cx="532.0" cy="491.0" fill="black" r="3" /><circle cx="977.0" cy="532.0" fill="black" r="3" /><circle cx="518.0" cy="871.0" fill="black" r="3" /><circle cx="249.0" cy="590.0" fill="black" r="3" /><circle cx="727.0" cy="151.0" fill="black" r="3" /><circle cx="130.0" cy="517.0" fill="black" r="3" /><circle cx="896.0" cy="74.0" fill="black" r="3" /><circle cx="236.0" cy="281.0" fill="black" r="3" /><circle cx="915.0" cy="358.0" fill="black" r="3" /><circle cx="860.0" cy="685.0" fill="black" r="3" /><circle cx="1025.0" cy="710.0" fill="black" r="3" /><circle cx="279.0" cy="818.0" fill="black" r="3" /><circle cx="718.0" cy="777.0" fill="black" r="3" /><circle cx="860.0" cy="476.0" fill="black" r="3" /><circle cx="923.0" cy="701.0" fill="black" r="3" /><circle cx="400.0" cy="855.0" fill="black" r="3" /><circle cx="697.0" cy="541.0" fill="black" r="3" /><circle cx="872.0" cy="445.0" fill="black" r="3" /><circle cx="695.0" cy="135.0" fill="black" r="3" /><circle cx="82.0" cy="165.0" fill="black" r="3" /><circle cx="1058.0" cy="616.0" fill="black" r="3" /><circle cx="937.0" cy="123.0" fill="black" r="3" /><circle cx="928.0" cy="423.0" fill="black" r="3" /><circle cx="356.0" cy="341.0" fill="black" r="3" /><circle cx="983.0" cy="154.0" fill="black" r="3" /><circle cx="232.0" cy="188.0" fill="black" r="3" /><circle cx="299.0" cy="327.0" fill="black" r="3" /><circle cx="1010.0" cy="742.0" fill="black" r="3" /><circle cx="123.0" cy="945.0" fill="black" r="3" /><circle cx="1057.0" cy="152.0" fill="black" r="3" /><circle cx="361.0" cy="849.0" fill="black" r="3" /><circle cx="939.0" cy="902.0" fill="black" r="3" /><circle cx="519.0" cy="64.0" fill="black" r="3" /><circle cx="435.0" cy="112.0" fill="black" r="3" /><circle cx="773.0" cy="19.0" fill="black" r="3" /><circle cx="931.0" cy="616.0" fill="black" r="3" /></svg>