<?xml version="1.0" encoding="utf-8" ?>
<svg baseProfile="tiny" height="100%" version="1.2" viewBox="0,0,500,500" width="100%" xmlns="http://www.w3.org/2000/svg" xmlns:ev="http://www.w3.org/2001/xml-events" xmlns:xlink="http://www.w3.org/1999/xlink"><defs /><circle cx="353.0" cy="253.0" fill="black" r="3" /><circle cx="485.0" cy="311.0" fill="black" r="3" /><circle cx="220.0" cy="201.0" fill="black" r="3" /><circle cx="382.0" cy="392.0" fill="black" r="3" /><circle cx="401.0" cy="301.0" fill="black" r="3" /><circle cx="416.0" cy="79.0" fill="black" r="3" /><circle cx="313.0" cy="280.0" fill="black" r="3" /><circle cx="352.0" cy="71.0" fill="black" r="3" /><circle cx="473.0" cy="139.0" fill="black" r="3" /><circle cx="289.0" cy="41.0" fill="black" r="3" /><circle cx="314.0" cy="77.0" fill="black" r="3" /><circle cx="427.0" cy="385.0" fill="black" r="3" /><circle cx="428.0" cy="460.0" fill="black" r="3" /><circle cx="343.0" cy="374.0" fill="black" r="3" /><circle cx="481.0" cy="75.0" fill="black" r="3" /><circle cx="532.0" cy="332.0" fill="black" r="3" /><circle cx="152.0" cy="371.0" fill="black" r="3" /><circle cx="386.0" cy="443.0" fill="black" r="3" /><circle cx="412.0" cy="248.0" fill="black" r="3" /><circle cx="472.0" cy="109.0" fill="black" r="3" /><circle cx="609.0" cy="329.0" fill="black" r="3" /><circle cx="223.0" cy="349.0" fill="black" r="3" /><circle cx="257.0" cy="145.0" fill="black" r="3" /><circle cx="323.0" cy="463.0" fill="black" r="3" /><circle cx="376.0" cy="89.0" fill="black" r="3" /><circle cx="427.0" cy="317.0" fill="black" r="3" /><circle cx="547.0" cy="161.0" fill="black" r="3" /><circle cx="433.0" cy="167.0" fill="black" r="3" /><circle cx="182.0" cy="190.0" fill="black" r="3" /><circle cx="555.0" cy="263.0" fill="black" r="3" /><circle cx="580.0" cy="280.0" fill="black" r="3" /><circle cx="151.0" cy="322.0" fill="black" r="3" /><circle cx="343.0" cy="157.0" fill="black" r="3" /><circle cx="172.0" cy="257.0" fill="black" r="3" /><circle cx="187.0" cy="230.0" fill="black" r="3" /><circle cx="207.0" cy="403.0" fill="black" r="3" /><circle cx="293.0" cy="100.0" fill="black" r="3" /><circle cx="386.0" cy="349.0" fill="black" r="3" /><circle cx="436.0" cy="110.0" fill="black" r="3" /><circle cx="514.0" cy="265.0" fill="black" r="3" /><circle cx="547.0" cy="368.0" fill="black" r="3" /><circle cx="604.0" cy="188.0" fill="black" r="3" /><circle cx="121.0" cy="356.0" fill="black" r="3" /><circle cx="181.0" cy="304.0" fill="black" r="3" /><circle cx="230.0" cy="158.0" fill="black" r="3" /><circle cx="248.0" cy="284.0" fill="black" r="3" /><circle cx="250.0" cy="465.0" fill="black" r="3" /><circle cx="283.0" cy="311.0" fill="black" r="3" /><circle cx="355.0" cy="465.0" fill="black" r="3" /><circle cx="389.0" cy="475.0" fill="black" r="3" /><circle cx="439.0" cy="265.0" fill="black" r="3" /><circle cx="453.0" cy="49.0" fill="black" r="3" /><circle cx="489.0" cy="463.0" fill="black" r="3" /><circle cx="515.0" cy="413.0" fill="black" r="3" /><circle cx="616.0" cy="361.0" fill="black" r="3" /><circle cx="182.0" cy="160.0" fill="black" r="3" /><circle cx="232.0" cy="235.0" fill="black" r="3" /><circle cx="292.0" cy="140.0" fill="black" r="3" /><circle cx="331.0" cy="406.0" fill="black" r="3" /><circle cx="502.0" cy="125.0" fill="black" r="3" /><circle cx="518.0" cy="230.0" fill="black" r="3" /><circle cx="549.0" cy="410.0" fill="black" r="3" /><circle cx="566.0" cy="194.0" fill="black" r="3" /><circle cx="203.0" cy="259.0" fill="black" r="3" /><circle cx="359.0" cy="301.0" fill="black" r="3" /><circle cx="451.0" cy="337.0" fill="black" r="3" /><circle cx="455.0" cy="303.0" fill="black" r="3" /><circle cx="248.0" cy="106.0" fill="black" r="3" /><circle cx="116.0" cy="280.0" fill="black" r="3" /><circle cx="212.0" cy="464.0" fill="black" r="3" /><circle cx="259.0" cy="181.0" fill="black" r="3" /><circle cx="269.0" cy="235.0" fill="black" r="3" /><circle cx="284.0" cy="472.0" fill="black" r="3" /><circle cx="310.0" cy="335.0" fill="black" r="3" /><circle cx="505.0" cy="170.0" fill="black" r="3" /><circle cx="557.0" cy="305.0" fill="black" r="3" /><circle cx="574.0" cy="224.0" fill="black" r="3" /><circle cx="148.0" cy="179.0" fill="black" r="3" /><circle cx="232.0" cy="79.0" fill="black" r="3" /><circle cx="259.0" cy="392.0" fill="black" r="3" /><circle cx="327.0" cy="110.0" fill="black" r="3" /><circle cx="376.0" cy="229.0" fill="black" r="3" /><circle cx="463.0" cy="491.0" fill="black" r="3" /><circle cx="577.0" cy="355.0" fill="black" r="3" /><circle cx="277.0" cy="71.0" fill="black" r="3" /><circle cx="254.0" cy="352.0" fill="black" r="3" /><circle cx="299.0" cy="224.0" fill="black" r="3" /><circle cx="382.0" cy="265.0" fill="black" r="3" /><circle cx="184.0" cy="344.0" fill="black" r="3" /><circle cx="386.0" cy="141.0" fill="black" r="3" /><circle cx="532.0" cy="123.0" fill="black" r="3" /><circle cx="146.0" cy="230.0" fill="black" r="3" /><circle cx="242.0" cy="422.0" fill="black" r="3" /><circle cx="338.0" cy="515.0" fill="black" r="3" /><circle cx="461.0" cy="403.0" fill="black" r="3" /><circle cx="499.0" cy="359.0" fill="black" r="3" /><circle cx="579.0" cy="153.0" fill="black" r="3" /><circle cx="166.0" cy="442.0" fill="black" r="3" /><circle cx="299.0" cy="499.0" fill="black" r="3" /><circle cx="452.0" cy="203.0" fill="black" r="3" /><circle cx="454.0" cy="443.0" fill="black" r="3" /><circle cx="487.0" cy="209.0" fill="black" r="3" /><circle cx="523.0" cy="196.0" fill="black" r="3" /><circle cx="266.0" cy="499.0" fill="black" r="3" /><circle cx="459.0" cy="233.0" fill="black" r="3" /><circle cx="473.0" cy="178.0" fill="black" r="3" /><circle cx="296.0" cy="175.0" fill="black" r="3" /><circle cx="44.0" cy="386.0" fill="black" r="3" /><circle cx="109.0" cy="325.0" fill="black" r="3" /><circle cx="203.0" cy="505.0" fill="black" r="3" /><circle cx="301.0" cy="413.0" fill="black" r="3" /><circle cx="355.0" cy="125.0" fill="black" r="3" /><circle cx="356.0" cy="431.0" fill="black" r="3" /><circle cx="379.0" cy="179.0" fill="black" r="3" /><circle cx="451.0" cy="79.0" fill="black" r="3" /><circle cx="319.0" cy="46.0" fill="black" r="3" /><circle cx="573.0" cy="387.0" fill="black" r="3" /><circle cx="368.0" cy="506.0" fill="black" r="3" /><circle cx="425.0" cy="529.0" fill="black" r="3" /><circle cx="119.0" cy="389.0" fill="black" r="3" /><circle cx="211.0" cy="109.0" fill="black" r="3" /><circle cx="289.0" cy="385.0" fill="black" r="3" /><circle cx="527.0" cy="293.0" fill="black" r="3" /><circle cx="122.0" cy="424.0" fill="black" r="3" /><circle cx="345.0" cy="220.0" fill="black" r="3" /><circle cx="214.0" cy="301.0" fill="black" r="3" /><circle cx="380.0" cy="58.0" fill="black" r="3" /><circle cx="409.0" cy="418.0" fill="black" r="3" /><circle cx="531.0" cy="465.0" fill="black" r="3" /><circle cx="299.0" cy="445.0" fill="black" r="3" /><circle cx="77.0" cy="317.0" fill="black" r="3" /><circle cx="111.0" cy="183.0" fill="black" r="3" /><circle cx="164.0" cy="403.0" fill="black" r="3" /><circle cx="195.0" cy="430.0" fill="black" r="3" /><circle cx="272.0" cy="428.0" fill="black" r="3" /><circle cx="346.0" cy="187.0" fill="black" r="3" /><circle cx="469.0" cy="361.0" fill="black" r="3" /><circle cx="417.0" cy="26.0" fill="black" r="3" /><circle cx="476.0" cy="266.0" fill="black" r="3" /><circle cx="484.0" cy="526.0" fill="black" r="3" /><circle cx="521.0" cy="503.0" fill="black" r="3" /><circle cx="231.0" cy="527.0" fill="black" r="3" /><circle cx="45.0" cy="525.0" fill="black" r="3" /><circle cx="89.0" cy="362.0" fill="black" r="3" /><circle cx="118.0" cy="247.0" fill="black" r="3" /><circle cx="43.0" cy="37.0" fill="black" r="3" /><circle cx="115.0" cy="148.0" fill="black" r="3" /><circle cx="166.0" cy="21.0" fill="black" r="3" /><circle cx="485.0" cy="422.0" fill="black" r="3" /><circle cx="331.0" cy="311.0" fill="black" r="3" /><circle cx="86.0" cy="278.0" fill="black" r="3" /><circle cx="178.0" cy="64.0" fill="black" r="3" /><circle cx="244.0" cy="317.0" fill="black" r="3" /><circle cx="604.0" cy="425.0" fill="black" r="3" /><circle cx="401.0" cy="109.0" fill="black" r="3" /><circle cx="230.0" cy="490.0" fill="black" r="3" /><circle cx="85.0" cy="248.0" fill="black" r="3" /><circle cx="452.0" cy="19.0" fill="black" r="3" /><circle cx="502.0" cy="29.0" fill="black" r="3" /><circle cx="627.0" cy="134.0" fill="black" r="3" /><circle cx="247.0" cy="50.0" fill="black" r="3" /><circle cx="40.0" cy="485.0" fill="black" r="3" /><circle cx="406.0" cy="205.0" fill="black" r="3" /><circle cx="421.0" cy="137.0" fill="black" r="3" /><circle cx="700.0" cy="67.0" fill="black" r="3" /><circle cx="118.0" cy="458.0" fill="black" r="3" /><circle cx="149.0" cy="290.0" fill="black" r="3" /><circle cx="189.0" cy="130.0" fill="black" r="3" /><circle cx="118.0" cy="500.0" fill="black" r="3" /><circle cx="256.0" cy="21.0" fill="black" r="3" /><circle cx="296.0" cy="530.0" fill="black" r="3" /><circle cx="681.0" cy="97.0" fill="black" r="3" /><circle cx="647.0" cy="311.0" fill="black" r="3" /><circle cx="351.0" cy="21.0" fill="black" r="3" /><circle cx="417.0" cy="356.0" fill="black" r="3" /><circle cx="51.0" cy="437.0" fill="black" r="3" /><circle cx="82.0" cy="22.0" fill="black" r="3" /><circle cx="86.0" cy="415.0" fill="black" r="3" /><circle cx="95.0" cy="95.0" fill="black" r="3" /><circle cx="109.0" cy="213.0" fill="black" r="3" /><circle cx="19.0" cy="433.0" fill="black" r="3" /><circle cx="343.0" cy="343.0" fill="black" r="3" /><circle cx="61.0" cy="350.0" fill="black" r="3" /><circle cx="147.0" cy="537.0" fill="black" r="3" /><circle cx="596.0" cy="254.0" fill="black" r="3" /><circle cx="47.0" cy="315.0" fill="black" r="3" /><circle cx="179.0" cy="539.0" fill="black" r="3" /><circle cx="205.0" cy="373.0" fill="black" r="3" /><circle cx="278.0" cy="265.0" fill="black" r="3" /><circle cx="610.0" cy="395.0" fill="black" r="3" /><circle cx="671.0" cy="286.0" fill="black" r="3" /><circle cx="143.0" cy="89.0" fill="black" r="3" /><circle cx="554.0" cy="487.0" fill="black" r="3" /><circle cx="215.0" cy="49.0" fill="black" r="3" /><circle cx="49.0" cy="86.0" fill="black" r="3" /><circle cx="705.0" cy="400.0" fill="black" r="3" /><circle cx="263.0" cy="541.0" fill="black" r="3" /><circle cx="533.0" cy="532.0" fill="black" r="3" /><circle cx="589.0" cy="457.0" fill="black" r="3" /><circle cx="710.0" cy="109.0" fill="black" r="3" /><circle cx="175.0" cy="476.0" fill="black" r="3" /><circle cx="161.0" cy="117.0" fill="black" r="3" /><circle cx="641.0" cy="406.0" fill="black" r="3" /><circle cx="489.0" cy="388.0" fill="black" r="3" /><circle cx="122.0" cy="111.0" fill="black" r="3" /><circle cx="679.0" cy="139.0" fill="black" r="3" /><circle cx="679.0" cy="196.0" fill="black" r="3" /><circle cx="550.0" cy="37.0" fill="black" r="3" /><circle cx="376.0" cy="536.0" fill="black" r="3" /><circle cx="607.0" cy="58.0" fill="black" r="3" /><circle cx="291.0" cy="9.0" fill="black" r="3" /><circle cx="613.0" cy="475.0" fill="black" r="3" /><circle cx="88.0" cy="472.0" fill="black" r="3" /><circle cx="619.0" cy="218.0" fill="black" r="3" /><circle cx="646.0" cy="182.0" fill="black" r="3" /><circle cx="653.0" cy="255.0" fill="black" r="3" /><circle cx="683.0" cy="509.0" fill="black" r="3" /><circle cx="321.0" cy="250.0" fill="black" r="3" /><circle cx="41.0" cy="266.0" fill="black" r="3" /><circle cx="616.0" cy="101.0" fill="black" r="3" /><circle cx="70.0" cy="55.0" fill="black" r="3" /><circle cx="430.0" cy="493.0" fill="black" r="3" /><circle cx="643.0" cy="61.0" fill="black" r="3" /><circle cx="667.0" cy="383.0" fill="black" r="3" /><circle cx="19.0" cy="367.0" fill="black" r="3" /><circle cx="17.0" cy="212.0" fill="black" r="3" /><circle cx="563.0" cy="515.0" fill="black" r="3" /><circle cx="587.0" cy="25.0" fill="black" r="3" /><circle cx="659.0" cy="472.0" fill="black" r="3" /><circle cx="381.0" cy="25.0" fill="black" r="3" /><circle cx="607.0" cy="536.0" fill="black" r="3" /><circle cx="17.0" cy="296.0" fill="black" r="3" /><circle cx="517.0" cy="56.0" fill="black" r="3" /><circle cx="653.0" cy="109.0" fill="black" r="3" /><circle cx="709.0" cy="148.0" fill="black" r="3" /><circle cx="689.0" cy="22.0" fill="black" r="3" /><circle cx="695.0" cy="439.0" fill="black" r="3" /><circle cx="701.0" cy="290.0" fill="black" r="3" /><circle cx="572.0" cy="123.0" fill="black" r="3" /><circle cx="321.0" cy="4.0" fill="black" r="3" /><circle cx="628.0" cy="447.0" fill="black" r="3" /><circle cx="17.0" cy="541.0" fill="black" r="3" /><circle cx="398.0" cy="513.0" fill="black" r="3" /><circle cx="82.0" cy="149.0" fill="black" r="3" /><circle cx="67.0" cy="190.0" fill="black" r="3" /><circle cx="701.0" cy="361.0" fill="black" r="3" /><circle cx="227.0" cy="13.0" fill="black" r="3" /><circle cx="603.0" cy="505.0" fill="black" r="3" /><circle cx="709.0" cy="218.0" fill="black" r="3" /><circle cx="11.0" cy="397.0" fill="black" r="3" /><circle cx="719.0" cy="37.0" fill="black" r="3" /><circle cx="525.0" cy="88.0" fill="black" r="3" /><circle cx="19.0" cy="113.0" fill="black" r="3" /><circle cx="8.0" cy="70.0" fill="black" r="3" /><circle cx="73.0" cy="513.0" fill="black" r="3" /><circle cx="565.0" cy="63.0" fill="black" r="3" /><circle cx="103.0" cy="531.0" fill="black" r="3" /><circle cx="19.0" cy="15.0" fill="black" r="3" /><circle cx="533.0" cy="8.0" fill="black" r="3" /><circle cx="13.0" cy="254.0" fill="black" r="3" /><circle cx="453.0" cy="543.0" fill="black" r="3" /><circle cx="37.0" cy="163.0" fill="black" r="3" /><circle cx="107.0" cy="39.0" fill="black" r="3" /><circle cx="700.0" cy="543.0" fill="black" r="3" /><circle cx="635.0" cy="507.0" fill="black" r="3" /><circle cx="14.0" cy="464.0" fill="black" r="3" /><circle cx="2.0" cy="184.0" fill="black" r="3" /><circle cx="677.0" cy="325.0" fill="black" r="3" /><circle cx="689.0" cy="254.0" fill="black" r="3" /><circle cx="661.0" cy="33.0" fill="black" r="3" /><circle cx="616.0" cy="279.0" fill="black" r="3" /><circle cx="197.0" cy="23.0" fill="black" r="3" /><circle cx="553.0" cy="442.0" fill="black" r="3" /><circle cx="635.0" cy="549.0" fill="black" r="3" /></svg>