<?xml version="1.0" encoding="utf-8" ?>
<svg baseProfile="tiny" height="100%" version="1.2" viewBox="0,0,500,500" width="100%" xmlns="http://www.w3.org/2000/svg" xmlns:ev="http://www.w3.org/2001/xml-events" xmlns:xlink="http://www.w3.org/1999/xlink"><defs /><circle cx="335" cy="112" fill="black" r="3" /><circle cx="328" cy="392" fill="black" r="3" /><circle cx="413" cy="436" fill="black" r="3" /><circle cx="386" cy="473" fill="black" r="3" /><circle cx="455" cy="449" fill="black" r="3" /><circle cx="565" cy="157" fill="black" r="3" /><circle cx="533" cy="172" fill="black" r="3" /><circle cx="543" cy="135" fill="black" r="3" /><circle cx="503" cy="565" fill="black" r="3" /><circle cx="514" cy="223" fill="black" r="3" /><circle cx="359" cy="491" fill="black" r="3" /><circle cx="379" cy="280" fill="black" r="3" /><circle cx="495" cy="182" fill="black" r="3" /><circle cx="506" cy="629" fill="black" r="3" /><circle cx="533" cy="248" fill="black" r="3" /><circle cx="421" cy="505" fill="black" r="3" /><circle cx="553" cy="197" fill="black" r="3" /><circle cx="298" cy="289" fill="black" r="3" /><circle cx="382" cy="176" fill="black" r="3" /><circle cx="422" cy="466" fill="black" r="3" /><circle cx="452" cy="482" fill="black" r="3" /><circle cx="595" cy="143" fill="black" r="3" /><circle cx="629" cy="110" fill="black" r="3" /><circle cx="475" cy="629" fill="black" r="3" /><circle cx="214" cy="315" fill="black" r="3" /><circle cx="295" cy="350" fill="black" r="3" /><circle cx="356" cy="339" fill="black" r="3" /><circle cx="410" cy="257" fill="black" r="3" /><circle cx="457" cy="514" fill="black" r="3" /><circle cx="513" cy="593" fill="black" r="3" /><circle cx="541" cy="565" fill="black" r="3" /><circle cx="592" cy="265" fill="black" r="3" /><circle cx="676" cy="389" fill="black" r="3" /><circle cx="692" cy="421" fill="black" r="3" /><circle cx="473" cy="587" fill="black" r="3" /><circle cx="242" cy="269" fill="black" r="3" /><circle cx="473" cy="541" fill="black" r="3" /><circle cx="725" cy="442" fill="black" r="3" /><circle cx="391" cy="407" fill="black" r="3" /><circle cx="170" cy="277" fill="black" r="3" /><circle cx="388" cy="520" fill="black" r="3" /><circle cx="430" cy="410" fill="black" r="3" /><circle cx="542" cy="518" fill="black" r="3" /><circle cx="637" cy="347" fill="black" r="3" /><circle cx="650" cy="410" fill="black" r="3" /><circle cx="304" cy="491" fill="black" r="3" /><circle cx="343" cy="458" fill="black" r="3" /><circle cx="365" cy="310" fill="black" r="3" /><circle cx="377" cy="377" fill="black" r="3" /><circle cx="683" cy="521" fill="black" r="3" /><circle cx="591" cy="201" fill="black" r="3" /><circle cx="208" cy="272" fill="black" r="3" /><circle cx="493" cy="458" fill="black" r="3" /><circle cx="572" cy="117" fill="black" r="3" /><circle cx="634" cy="542" fill="black" r="3" /><circle cx="687" cy="208" fill="black" r="3" /><circle cx="376" cy="442" fill="black" r="3" /><circle cx="502" cy="502" fill="black" r="3" /><circle cx="560" cy="419" fill="black" r="3" /><circle cx="567" cy="248" fill="black" r="3" /><circle cx="592" cy="427" fill="black" r="3" /><circle cx="617" cy="295" fill="black" r="3" /><circle cx="627" cy="232" fill="black" r="3" /><circle cx="699" cy="110" fill="black" r="3" /><circle cx="338" cy="531" fill="black" r="3" /><circle cx="751" cy="542" fill="black" r="3" /><circle cx="260" cy="311" fill="black" r="3" /><circle cx="367" cy="220" fill="black" r="3" /><circle cx="431" cy="142" fill="black" r="3" /><circle cx="560" cy="86" fill="black" r="3" /><circle cx="651" cy="458" fill="black" r="3" /><circle cx="662" cy="239" fill="black" r="3" /><circle cx="662" cy="601" fill="black" r="3" /><circle cx="667" cy="356" fill="black" r="3" /><circle cx="691" cy="469" fill="black" r="3" /><circle cx="607" cy="573" fill="black" r="3" /><circle cx="110" cy="308" fill="black" r="3" /><circle cx="298" cy="182" fill="black" r="3" /><circle cx="483" cy="400" fill="black" r="3" /><circle cx="590" cy="75" fill="black" r="3" /><circle cx="620" cy="389" fill="black" r="3" /><circle cx="323" cy="325" fill="black" r="3" /><circle cx="353" cy="257" fill="black" r="3" /><circle cx="657" cy="51" fill="black" r="3" /><circle cx="437" cy="595" fill="black" r="3" /><circle cx="347" cy="148" fill="black" r="3" /><circle cx="350" cy="421" fill="black" r="3" /><circle cx="531" cy="441" fill="black" r="3" /><circle cx="545" cy="475" fill="black" r="3" /><circle cx="629" cy="184" fill="black" r="3" /><circle cx="638" cy="149" fill="black" r="3" /><circle cx="641" cy="572" fill="black" r="3" /><circle cx="748" cy="205" fill="black" r="3" /><circle cx="308" cy="523" fill="black" r="3" /><circle cx="314" cy="218" fill="black" r="3" /><circle cx="580" cy="501" fill="black" r="3" /><circle cx="601" cy="541" fill="black" r="3" /><circle cx="616" cy="452" fill="black" r="3" /><circle cx="689" cy="68" fill="black" r="3" /><circle cx="722" cy="397" fill="black" r="3" /><circle cx="742" cy="297" fill="black" r="3" /><circle cx="619" cy="53" fill="black" r="3" /><circle cx="226" cy="200" fill="black" r="3" /><circle cx="242" cy="371" fill="black" r="3" /><circle cx="247" cy="341" fill="black" r="3" /><circle cx="254" cy="454" fill="black" r="3" /><circle cx="274" cy="269" fill="black" r="3" /><circle cx="277" cy="211" fill="black" r="3" /><circle cx="415" cy="193" fill="black" r="3" /><circle cx="446" cy="235" fill="black" r="3" /><circle cx="800" cy="251" fill="black" r="3" /><circle cx="517" cy="537" fill="black" r="3" /><circle cx="785" cy="361" fill="black" r="3" /><circle cx="329" cy="359" fill="black" r="3" /><circle cx="332" cy="287" fill="black" r="3" /><circle cx="575" cy="377" fill="black" r="3" /><circle cx="584" cy="322" fill="black" r="3" /><circle cx="602" cy="356" fill="black" r="3" /><circle cx="475" cy="211" fill="black" r="3" /><circle cx="183" cy="561" fill="black" r="3" /><circle cx="303" cy="459" fill="black" r="3" /><circle cx="339" cy="195" fill="black" r="3" /><circle cx="443" cy="553" fill="black" r="3" /><circle cx="862" cy="248" fill="black" r="3" /><circle cx="212" cy="349" fill="black" r="3" /><circle cx="251" cy="227" fill="black" r="3" /><circle cx="291" cy="319" fill="black" r="3" /><circle cx="376" cy="553" fill="black" r="3" /><circle cx="446" cy="181" fill="black" r="3" /><circle cx="460" cy="657" fill="black" r="3" /><circle cx="527" cy="100" fill="black" r="3" /><circle cx="664" cy="100" fill="black" r="3" /><circle cx="712" cy="592" fill="black" r="3" /><circle cx="722" cy="259" fill="black" r="3" /><circle cx="722" cy="529" fill="black" r="3" /><circle cx="731" cy="478" fill="black" r="3" /><circle cx="787" cy="479" fill="black" r="3" /><circle cx="819" cy="557" fill="black" r="3" /><circle cx="647" cy="271" fill="black" r="3" /><circle cx="561" cy="280" fill="black" r="3" /><circle cx="205" cy="424" fill="black" r="3" /><circle cx="266" cy="530" fill="black" r="3" /><circle cx="370" cy="127" fill="black" r="3" /><circle cx="401" cy="224" fill="black" r="3" /><circle cx="538" cy="649" fill="black" r="3" /><circle cx="563" cy="544" fill="black" r="3" /><circle cx="575" cy="454" fill="black" r="3" /><circle cx="578" cy="596" fill="black" r="3" /><circle cx="742" cy="598" fill="black" r="3" /><circle cx="757" cy="419" fill="black" r="3" /><circle cx="844" cy="224" fill="black" r="3" /><circle cx="184" cy="244" fill="black" r="3" /><circle cx="261" cy="182" fill="black" r="3" /><circle cx="781" cy="567" fill="black" r="3" /><circle cx="175" cy="514" fill="black" r="3" /><circle cx="249" cy="423" fill="black" r="3" /><circle cx="610" cy="482" fill="black" r="3" /><circle cx="667" cy="184" fill="black" r="3" /><circle cx="850" cy="530" fill="black" r="3" /><circle cx="429" cy="638" fill="black" r="3" /><circle cx="707" cy="149" fill="black" r="3" /><circle cx="146" cy="251" fill="black" r="3" /><circle cx="236" cy="535" fill="black" r="3" /><circle cx="290" cy="394" fill="black" r="3" /><circle cx="394" cy="147" fill="black" r="3" /><circle cx="543" cy="358" fill="black" r="3" /><circle cx="650" cy="315" fill="black" r="3" /><circle cx="675" cy="151" fill="black" r="3" /><circle cx="721" cy="359" fill="black" r="3" /><circle cx="769" cy="518" fill="black" r="3" /><circle cx="779" cy="215" fill="black" r="3" /><circle cx="511" cy="321" fill="black" r="3" /><circle cx="821" cy="321" fill="black" r="3" /><circle cx="715" cy="320" fill="black" r="3" /><circle cx="860" cy="290" fill="black" r="3" /><circle cx="315" cy="424" fill="black" r="3" /><circle cx="463" cy="292" fill="black" r="3" /><circle cx="687" cy="563" fill="black" r="3" /><circle cx="407" cy="319" fill="black" r="3" /><circle cx="706" cy="496" fill="black" r="3" /><circle cx="214" cy="236" fill="black" r="3" /><circle cx="190" cy="209" fill="black" r="3" /><circle cx="494" cy="255" fill="black" r="3" /><circle cx="523" cy="289" fill="black" r="3" /><circle cx="688" cy="269" fill="black" r="3" /><circle cx="754" cy="241" fill="black" r="3" /><circle cx="831" cy="269" fill="black" r="3" /><circle cx="409" cy="551" fill="black" r="3" /><circle cx="765" cy="453" fill="black" r="3" /><circle cx="319" cy="249" fill="black" r="3" /><circle cx="772" cy="274" fill="black" r="3" /><circle cx="595" cy="235" fill="black" r="3" /><circle cx="752" cy="353" fill="black" r="3" /><circle cx="638" cy="79" fill="black" r="3" /><circle cx="694" cy="343" fill="black" r="3" /><circle cx="203" cy="529" fill="black" r="3" /><circle cx="422" cy="289" fill="black" r="3" /><circle cx="658" cy="501" fill="black" r="3" /><circle cx="233" cy="478" fill="black" r="3" /><circle cx="435" cy="334" fill="black" r="3" /><circle cx="647" cy="208" fill="black" r="3" /><circle cx="131" cy="280" fill="black" r="3" /><circle cx="207" cy="455" fill="black" r="3" /><circle cx="717" cy="211" fill="black" r="3" /><circle cx="184" cy="607" fill="black" r="3" /><circle cx="513" cy="141" fill="black" r="3" /><circle cx="182" cy="331" fill="black" r="3" /><circle cx="208" cy="585" fill="black" r="3" /><circle cx="500" cy="667" fill="black" r="3" /><circle cx="560" cy="621" fill="black" r="3" /><circle cx="515" cy="405" fill="black" r="3" /><circle cx="335" cy="41" fill="black" r="3" /><circle cx="710" cy="622" fill="black" r="3" /><circle cx="263" cy="483" fill="black" r="3" /><circle cx="544" cy="393" fill="black" r="3" /><circle cx="683" cy="303" fill="black" r="3" /><circle cx="730" cy="565" fill="black" r="3" /><circle cx="375" cy="86" fill="black" r="3" /><circle cx="549" cy="322" fill="black" r="3" /><circle cx="393" cy="578" fill="black" r="3" /><circle cx="469" cy="687" fill="black" r="3" /><circle cx="814" cy="523" fill="black" r="3" /><circle cx="615" cy="326" fill="black" r="3" /><circle cx="381" cy="671" fill="black" r="3" /><circle cx="314" cy="557" fill="black" r="3" /><circle cx="253" cy="580" fill="black" r="3" /><circle cx="445" cy="370" fill="black" r="3" /><circle cx="315" cy="155" fill="black" r="3" /><circle cx="140" cy="313" fill="black" r="3" /><circle cx="280" cy="429" fill="black" r="3" /><circle cx="359" cy="626" fill="black" r="3" /><circle cx="176" cy="476" fill="black" r="3" /><circle cx="163" cy="221" fill="black" r="3" /><circle cx="787" cy="394" fill="black" r="3" /><circle cx="483" cy="86" fill="black" r="3" /><circle cx="778" cy="317" fill="black" r="3" /><circle cx="485" cy="116" fill="black" r="3" /><circle cx="697" cy="178" fill="black" r="3" /><circle cx="512" cy="363" fill="black" r="3" /><circle cx="220" cy="394" fill="black" r="3" /><circle cx="776" cy="597" fill="black" r="3" /><circle cx="387" cy="349" fill="black" r="3" /><circle cx="459" cy="63" fill="black" r="3" /><circle cx="467" cy="343" fill="black" r="3" /><circle cx="344" cy="83" fill="black" r="3" /><circle cx="629" cy="512" fill="black" r="3" /><circle cx="424" cy="703" fill="black" r="3" /><circle cx="694" cy="239" fill="black" r="3" /><circle cx="483" cy="153" fill="black" r="3" /><circle cx="421" cy="43" fill="black" r="3" /><circle cx="634" cy="27" fill="black" r="3" /><circle cx="623" cy="611" fill="black" r="3" /><circle cx="754" cy="387" fill="black" r="3" /><circle cx="284" cy="557" fill="black" r="3" /><circle cx="713" cy="287" fill="black" r="3" /><circle cx="730" cy="177" fill="black" r="3" /><circle cx="808" cy="597" fill="black" r="3" /><circle cx="493" cy="292" fill="black" r="3" /><circle cx="839" cy="23" fill="black" r="3" /><circle cx="391" cy="706" fill="black" r="3" /><circle cx="343" cy="578" fill="black" r="3" /><circle cx="839" cy="487" fill="black" r="3" /><circle cx="415" cy="743" fill="black" r="3" /><circle cx="871" cy="207" fill="black" r="3" /><circle cx="205" cy="493" fill="black" r="3" /><circle cx="815" cy="370" fill="black" r="3" /><circle cx="399" cy="643" fill="black" r="3" /><circle cx="535" cy="69" fill="black" r="3" /><circle cx="731" cy="106" fill="black" r="3" /><line stroke="black" stroke-width="2" x1="236.0" x2="266.0" y1="535.0" y2="530.0" /><line stroke="black" stroke-width="2" x1="266.0" x2="712.0" y1="530.0" y2="592.0" /><line stroke="black" stroke-width="2" x1="712.0" x2="691.0" y1="592.0" y2="469.0" /><line stroke="black" stroke-width="2" x1="691.0" x2="356.0" y1="469.0" y2="339.0" /><line stroke="black" stroke-width="2" x1="356.0" x2="657.0" y1="339.0" y2="51.0" /><line stroke="black" stroke-width="2" x1="657.0" x2="713.0" y1="51.0" y2="287.0" /><line stroke="black" stroke-width="2" x1="713.0" x2="500.0" y1="287.0" y2="667.0" /><line stroke="black" stroke-width="2" x1="500.0" x2="393.0" y1="667.0" y2="578.0" /><line stroke="black" stroke-width="2" x1="393.0" x2="638.0" y1="578.0" y2="149.0" /><line stroke="black" stroke-width="2" x1="638.0" x2="800.0" y1="149.0" y2="251.0" /><line stroke="black" stroke-width="2" x1="800.0" x2="110.0" y1="251.0" y2="308.0" /><line stroke="black" stroke-width="2" x1="110.0" x2="565.0" y1="308.0" y2="157.0" /><line stroke="black" stroke-width="2" x1="565.0" x2="483.0" y1="157.0" y2="153.0" /><line stroke="black" stroke-width="2" x1="483.0" x2="214.0" y1="153.0" y2="315.0" /><line stroke="black" stroke-width="2" x1="214.0" x2="236.0" y1="315.0" y2="535.0" /></svg>