<?xml version="1.0" encoding="utf-8" ?>
<svg baseProfile="tiny" height="100%" version="1.2" viewBox="0,0,500,500" width="100%" xmlns="http://www.w3.org/2000/svg" xmlns:ev="http://www.w3.org/2001/xml-events" xmlns:xlink="http://www.w3.org/1999/xlink"><defs /><circle cx="335.0" cy="112.0" fill="black" r="3" /><circle cx="328.0" cy="392.0" fill="black" r="3" /><circle cx="413.0" cy="436.0" fill="black" r="3" /><circle cx="386.0" cy="473.0" fill="black" r="3" /><circle cx="455.0" cy="449.0" fill="black" r="3" /><circle cx="565.0" cy="157.0" fill="black" r="3" /><circle cx="533.0" cy="172.0" fill="black" r="3" /><circle cx="543.0" cy="135.0" fill="black" r="3" /><circle cx="503.0" cy="565.0" fill="black" r="3" /><circle cx="514.0" cy="223.0" fill="black" r="3" /><circle cx="359.0" cy="491.0" fill="black" r="3" /><circle cx="379.0" cy="280.0" fill="black" r="3" /><circle cx="495.0" cy="182.0" fill="black" r="3" /><circle cx="506.0" cy="629.0" fill="black" r="3" /><circle cx="533.0" cy="248.0" fill="black" r="3" /><circle cx="421.0" cy="505.0" fill="black" r="3" /><circle cx="553.0" cy="197.0" fill="black" r="3" /><circle cx="298.0" cy="289.0" fill="black" r="3" /><circle cx="382.0" cy="176.0" fill="black" r="3" /><circle cx="422.0" cy="466.0" fill="black" r="3" /><circle cx="452.0" cy="482.0" fill="black" r="3" /><circle cx="595.0" cy="143.0" fill="black" r="3" /><circle cx="629.0" cy="110.0" fill="black" r="3" /><circle cx="475.0" cy="629.0" fill="black" r="3" /><circle cx="214.0" cy="315.0" fill="black" r="3" /><circle cx="295.0" cy="350.0" fill="black" r="3" /><circle cx="356.0" cy="339.0" fill="black" r="3" /><circle cx="410.0" cy="257.0" fill="black" r="3" /><circle cx="457.0" cy="514.0" fill="black" r="3" /><circle cx="513.0" cy="593.0" fill="black" r="3" /><circle cx="541.0" cy="565.0" fill="black" r="3" /><circle cx="592.0" cy="265.0" fill="black" r="3" /><circle cx="676.0" cy="389.0" fill="black" r="3" /><circle cx="692.0" cy="421.0" fill="black" r="3" /><circle cx="473.0" cy="587.0" fill="black" r="3" /><circle cx="242.0" cy="269.0" fill="black" r="3" /><circle cx="473.0" cy="541.0" fill="black" r="3" /><circle cx="725.0" cy="442.0" fill="black" r="3" /><circle cx="391.0" cy="407.0" fill="black" r="3" /><circle cx="170.0" cy="277.0" fill="black" r="3" /><circle cx="388.0" cy="520.0" fill="black" r="3" /><circle cx="430.0" cy="410.0" fill="black" r="3" /><circle cx="542.0" cy="518.0" fill="black" r="3" /><circle cx="637.0" cy="347.0" fill="black" r="3" /><circle cx="650.0" cy="410.0" fill="black" r="3" /><circle cx="304.0" cy="491.0" fill="black" r="3" /><circle cx="343.0" cy="458.0" fill="black" r="3" /><circle cx="365.0" cy="310.0" fill="black" r="3" /><circle cx="377.0" cy="377.0" fill="black" r="3" /><circle cx="683.0" cy="521.0" fill="black" r="3" /><circle cx="591.0" cy="201.0" fill="black" r="3" /><circle cx="208.0" cy="272.0" fill="black" r="3" /><circle cx="493.0" cy="458.0" fill="black" r="3" /><circle cx="572.0" cy="117.0" fill="black" r="3" /><circle cx="634.0" cy="542.0" fill="black" r="3" /><circle cx="687.0" cy="208.0" fill="black" r="3" /><circle cx="376.0" cy="442.0" fill="black" r="3" /><circle cx="502.0" cy="502.0" fill="black" r="3" /><circle cx="560.0" cy="419.0" fill="black" r="3" /><circle cx="567.0" cy="248.0" fill="black" r="3" /><circle cx="592.0" cy="427.0" fill="black" r="3" /><circle cx="617.0" cy="295.0" fill="black" r="3" /><circle cx="627.0" cy="232.0" fill="black" r="3" /><circle cx="699.0" cy="110.0" fill="black" r="3" /><circle cx="338.0" cy="531.0" fill="black" r="3" /><circle cx="751.0" cy="542.0" fill="black" r="3" /><circle cx="260.0" cy="311.0" fill="black" r="3" /><circle cx="367.0" cy="220.0" fill="black" r="3" /><circle cx="431.0" cy="142.0" fill="black" r="3" /><circle cx="560.0" cy="86.0" fill="black" r="3" /><circle cx="651.0" cy="458.0" fill="black" r="3" /><circle cx="662.0" cy="239.0" fill="black" r="3" /><circle cx="662.0" cy="601.0" fill="black" r="3" /><circle cx="667.0" cy="356.0" fill="black" r="3" /><circle cx="691.0" cy="469.0" fill="black" r="3" /><circle cx="607.0" cy="573.0" fill="black" r="3" /><circle cx="110.0" cy="308.0" fill="black" r="3" /><circle cx="298.0" cy="182.0" fill="black" r="3" /><circle cx="483.0" cy="400.0" fill="black" r="3" /><circle cx="590.0" cy="75.0" fill="black" r="3" /><circle cx="620.0" cy="389.0" fill="black" r="3" /><circle cx="323.0" cy="325.0" fill="black" r="3" /><circle cx="353.0" cy="257.0" fill="black" r="3" /><circle cx="657.0" cy="51.0" fill="black" r="3" /><circle cx="437.0" cy="595.0" fill="black" r="3" /><circle cx="347.0" cy="148.0" fill="black" r="3" /><circle cx="350.0" cy="421.0" fill="black" r="3" /><circle cx="531.0" cy="441.0" fill="black" r="3" /><circle cx="545.0" cy="475.0" fill="black" r="3" /><circle cx="629.0" cy="184.0" fill="black" r="3" /><circle cx="638.0" cy="149.0" fill="black" r="3" /><circle cx="641.0" cy="572.0" fill="black" r="3" /><circle cx="748.0" cy="205.0" fill="black" r="3" /><circle cx="308.0" cy="523.0" fill="black" r="3" /><circle cx="314.0" cy="218.0" fill="black" r="3" /><circle cx="580.0" cy="501.0" fill="black" r="3" /><circle cx="601.0" cy="541.0" fill="black" r="3" /><circle cx="616.0" cy="452.0" fill="black" r="3" /><circle cx="689.0" cy="68.0" fill="black" r="3" /><circle cx="722.0" cy="397.0" fill="black" r="3" /><circle cx="742.0" cy="297.0" fill="black" r="3" /><circle cx="619.0" cy="53.0" fill="black" r="3" /><circle cx="226.0" cy="200.0" fill="black" r="3" /><circle cx="242.0" cy="371.0" fill="black" r="3" /><circle cx="247.0" cy="341.0" fill="black" r="3" /><circle cx="254.0" cy="454.0" fill="black" r="3" /><circle cx="274.0" cy="269.0" fill="black" r="3" /><circle cx="277.0" cy="211.0" fill="black" r="3" /><circle cx="415.0" cy="193.0" fill="black" r="3" /><circle cx="446.0" cy="235.0" fill="black" r="3" /><circle cx="800.0" cy="251.0" fill="black" r="3" /><circle cx="517.0" cy="537.0" fill="black" r="3" /><circle cx="785.0" cy="361.0" fill="black" r="3" /><circle cx="329.0" cy="359.0" fill="black" r="3" /><circle cx="332.0" cy="287.0" fill="black" r="3" /><circle cx="575.0" cy="377.0" fill="black" r="3" /><circle cx="584.0" cy="322.0" fill="black" r="3" /><circle cx="602.0" cy="356.0" fill="black" r="3" /><circle cx="475.0" cy="211.0" fill="black" r="3" /><circle cx="183.0" cy="561.0" fill="black" r="3" /><circle cx="303.0" cy="459.0" fill="black" r="3" /><circle cx="339.0" cy="195.0" fill="black" r="3" /><circle cx="443.0" cy="553.0" fill="black" r="3" /><circle cx="862.0" cy="248.0" fill="black" r="3" /><circle cx="212.0" cy="349.0" fill="black" r="3" /><circle cx="251.0" cy="227.0" fill="black" r="3" /><circle cx="291.0" cy="319.0" fill="black" r="3" /><circle cx="376.0" cy="553.0" fill="black" r="3" /><circle cx="446.0" cy="181.0" fill="black" r="3" /><circle cx="460.0" cy="657.0" fill="black" r="3" /><circle cx="527.0" cy="100.0" fill="black" r="3" /><circle cx="664.0" cy="100.0" fill="black" r="3" /><circle cx="712.0" cy="592.0" fill="black" r="3" /><circle cx="722.0" cy="259.0" fill="black" r="3" /><circle cx="722.0" cy="529.0" fill="black" r="3" /><circle cx="731.0" cy="478.0" fill="black" r="3" /><circle cx="787.0" cy="479.0" fill="black" r="3" /><circle cx="819.0" cy="557.0" fill="black" r="3" /><circle cx="647.0" cy="271.0" fill="black" r="3" /><circle cx="561.0" cy="280.0" fill="black" r="3" /><circle cx="205.0" cy="424.0" fill="black" r="3" /><circle cx="266.0" cy="530.0" fill="black" r="3" /><circle cx="370.0" cy="127.0" fill="black" r="3" /><circle cx="401.0" cy="224.0" fill="black" r="3" /><circle cx="538.0" cy="649.0" fill="black" r="3" /><circle cx="563.0" cy="544.0" fill="black" r="3" /><circle cx="575.0" cy="454.0" fill="black" r="3" /><circle cx="578.0" cy="596.0" fill="black" r="3" /><circle cx="742.0" cy="598.0" fill="black" r="3" /><circle cx="757.0" cy="419.0" fill="black" r="3" /><circle cx="844.0" cy="224.0" fill="black" r="3" /><circle cx="184.0" cy="244.0" fill="black" r="3" /><circle cx="261.0" cy="182.0" fill="black" r="3" /><circle cx="781.0" cy="567.0" fill="black" r="3" /><circle cx="175.0" cy="514.0" fill="black" r="3" /><circle cx="249.0" cy="423.0" fill="black" r="3" /><circle cx="610.0" cy="482.0" fill="black" r="3" /><circle cx="667.0" cy="184.0" fill="black" r="3" /><circle cx="850.0" cy="530.0" fill="black" r="3" /><circle cx="429.0" cy="638.0" fill="black" r="3" /><circle cx="707.0" cy="149.0" fill="black" r="3" /><circle cx="146.0" cy="251.0" fill="black" r="3" /><circle cx="236.0" cy="535.0" fill="black" r="3" /><circle cx="290.0" cy="394.0" fill="black" r="3" /><circle cx="394.0" cy="147.0" fill="black" r="3" /><circle cx="543.0" cy="358.0" fill="black" r="3" /><circle cx="650.0" cy="315.0" fill="black" r="3" /><circle cx="675.0" cy="151.0" fill="black" r="3" /><circle cx="721.0" cy="359.0" fill="black" r="3" /><circle cx="769.0" cy="518.0" fill="black" r="3" /><circle cx="779.0" cy="215.0" fill="black" r="3" /><circle cx="511.0" cy="321.0" fill="black" r="3" /><circle cx="821.0" cy="321.0" fill="black" r="3" /><circle cx="715.0" cy="320.0" fill="black" r="3" /><circle cx="860.0" cy="290.0" fill="black" r="3" /><circle cx="315.0" cy="424.0" fill="black" r="3" /><circle cx="463.0" cy="292.0" fill="black" r="3" /><circle cx="687.0" cy="563.0" fill="black" r="3" /><circle cx="407.0" cy="319.0" fill="black" r="3" /><circle cx="706.0" cy="496.0" fill="black" r="3" /><circle cx="214.0" cy="236.0" fill="black" r="3" /><circle cx="190.0" cy="209.0" fill="black" r="3" /><circle cx="494.0" cy="255.0" fill="black" r="3" /><circle cx="523.0" cy="289.0" fill="black" r="3" /><circle cx="688.0" cy="269.0" fill="black" r="3" /><circle cx="754.0" cy="241.0" fill="black" r="3" /><circle cx="831.0" cy="269.0" fill="black" r="3" /><circle cx="409.0" cy="551.0" fill="black" r="3" /><circle cx="765.0" cy="453.0" fill="black" r="3" /><circle cx="319.0" cy="249.0" fill="black" r="3" /><circle cx="772.0" cy="274.0" fill="black" r="3" /><circle cx="595.0" cy="235.0" fill="black" r="3" /><circle cx="752.0" cy="353.0" fill="black" r="3" /><circle cx="638.0" cy="79.0" fill="black" r="3" /><circle cx="694.0" cy="343.0" fill="black" r="3" /><circle cx="203.0" cy="529.0" fill="black" r="3" /><circle cx="422.0" cy="289.0" fill="black" r="3" /><circle cx="658.0" cy="501.0" fill="black" r="3" /><circle cx="233.0" cy="478.0" fill="black" r="3" /><circle cx="435.0" cy="334.0" fill="black" r="3" /><circle cx="647.0" cy="208.0" fill="black" r="3" /><circle cx="131.0" cy="280.0" fill="black" r="3" /><circle cx="207.0" cy="455.0" fill="black" r="3" /><circle cx="717.0" cy="211.0" fill="black" r="3" /><circle cx="184.0" cy="607.0" fill="black" r="3" /><circle cx="513.0" cy="141.0" fill="black" r="3" /><circle cx="182.0" cy="331.0" fill="black" r="3" /><circle cx="208.0" cy="585.0" fill="black" r="3" /><circle cx="500.0" cy="667.0" fill="black" r="3" /><circle cx="560.0" cy="621.0" fill="black" r="3" /><circle cx="515.0" cy="405.0" fill="black" r="3" /><circle cx="335.0" cy="41.0" fill="black" r="3" /><circle cx="710.0" cy="622.0" fill="black" r="3" /><circle cx="263.0" cy="483.0" fill="black" r="3" /><circle cx="544.0" cy="393.0" fill="black" r="3" /><circle cx="683.0" cy="303.0" fill="black" r="3" /><circle cx="730.0" cy="565.0" fill="black" r="3" /><circle cx="375.0" cy="86.0" fill="black" r="3" /><circle cx="549.0" cy="322.0" fill="black" r="3" /><circle cx="393.0" cy="578.0" fill="black" r="3" /><circle cx="469.0" cy="687.0" fill="black" r="3" /><circle cx="814.0" cy="523.0" fill="black" r="3" /><circle cx="615.0" cy="326.0" fill="black" r="3" /><circle cx="381.0" cy="671.0" fill="black" r="3" /><circle cx="314.0" cy="557.0" fill="black" r="3" /><circle cx="253.0" cy="580.0" fill="black" r="3" /><circle cx="445.0" cy="370.0" fill="black" r="3" /><circle cx="315.0" cy="155.0" fill="black" r="3" /><circle cx="140.0" cy="313.0" fill="black" r="3" /><circle cx="280.0" cy="429.0" fill="black" r="3" /><circle cx="359.0" cy="626.0" fill="black" r="3" /><circle cx="176.0" cy="476.0" fill="black" r="3" /><circle cx="163.0" cy="221.0" fill="black" r="3" /><circle cx="787.0" cy="394.0" fill="black" r="3" /><circle cx="483.0" cy="86.0" fill="black" r="3" /><circle cx="778.0" cy="317.0" fill="black" r="3" /><circle cx="485.0" cy="116.0" fill="black" r="3" /><circle cx="697.0" cy="178.0" fill="black" r="3" /><circle cx="512.0" cy="363.0" fill="black" r="3" /><circle cx="220.0" cy="394.0" fill="black" r="3" /><circle cx="776.0" cy="597.0" fill="black" r="3" /><circle cx="387.0" cy="349.0" fill="black" r="3" /><circle cx="459.0" cy="63.0" fill="black" r="3" /><circle cx="467.0" cy="343.0" fill="black" r="3" /><circle cx="344.0" cy="83.0" fill="black" r="3" /><circle cx="629.0" cy="512.0" fill="black" r="3" /><circle cx="424.0" cy="703.0" fill="black" r="3" /><circle cx="694.0" cy="239.0" fill="black" r="3" /><circle cx="483.0" cy="153.0" fill="black" r="3" /><circle cx="421.0" cy="43.0" fill="black" r="3" /><circle cx="634.0" cy="27.0" fill="black" r="3" /><circle cx="623.0" cy="611.0" fill="black" r="3" /><circle cx="754.0" cy="387.0" fill="black" r="3" /><circle cx="284.0" cy="557.0" fill="black" r="3" /><circle cx="713.0" cy="287.0" fill="black" r="3" /><circle cx="730.0" cy="177.0" fill="black" r="3" /><circle cx="808.0" cy="597.0" fill="black" r="3" /><circle cx="493.0" cy="292.0" fill="black" r="3" /><circle cx="839.0" cy="23.0" fill="black" r="3" /><circle cx="391.0" cy="706.0" fill="black" r="3" /><circle cx="343.0" cy="578.0" fill="black" r="3" /><circle cx="839.0" cy="487.0" fill="black" r="3" /><circle cx="415.0" cy="743.0" fill="black" r="3" /><circle cx="871.0" cy="207.0" fill="black" r="3" /><circle cx="205.0" cy="493.0" fill="black" r="3" /><circle cx="815.0" cy="370.0" fill="black" r="3" /><circle cx="399.0" cy="643.0" fill="black" r="3" /><circle cx="535.0" cy="69.0" fill="black" r="3" /><circle cx="731.0" cy="106.0" fill="black" r="3" /></svg>