<?xml version="1.0" encoding="utf-8" ?>
<svg baseProfile="tiny" height="100%" version="1.2" viewBox="0,0,500,500" width="100%" xmlns="http://www.w3.org/2000/svg" xmlns:ev="http://www.w3.org/2001/xml-events" xmlns:xlink="http://www.w3.org/1999/xlink"><defs /><circle cx="63.2812" cy="248.7961" fill="black" r="3" /><circle cx="317.1875" cy="194.2215" fill="black" r="3" /><circle cx="67.9688" cy="302.5682" fill="black" r="3" /><circle cx="160.1562" cy="97.9133" fill="black" r="3" /><circle cx="249.2188" cy="295.3451" fill="black" r="3" /><circle cx="291.4062" cy="294.5425" fill="black" r="3" /><circle cx="325.7812" cy="247.9936" fill="black" r="3" /><circle cx="405.4688" cy="283.3066" fill="black" r="3" /><circle cx="258.5938" cy="138.0417" fill="black" r="3" /><circle cx="450.7812" cy="260.8347" fill="black" r="3" /><circle cx="224.2188" cy="280.0963" fill="black" r="3" /><circle cx="189.0625" cy="252.0064" fill="black" r="3" /><circle cx="260.9375" cy="97.9133" fill="black" r="3" /><circle cx="397.6562" cy="223.114" fill="black" r="3" /><circle cx="94.5312" cy="174.1573" fill="black" r="3" /><circle cx="171.875" cy="218.2986" fill="black" r="3" /><circle cx="348.4375" cy="229.5345" fill="black" r="3" /><circle cx="354.6875" cy="340.2889" fill="black" r="3" /><circle cx="375.7812" cy="121.9904" fill="black" r="3" /><circle cx="25.0" cy="321.8299" fill="black" r="3" /><circle cx="226.5625" cy="325.8427" fill="black" r="3" /><circle cx="399.2188" cy="142.8571" fill="black" r="3" /><circle cx="233.5938" cy="180.5778" fill="black" r="3" /><circle cx="251.5625" cy="328.2504" fill="black" r="3" /><circle cx="110.9375" cy="204.6549" fill="black" r="3" /><circle cx="146.0938" cy="232.7448" fill="black" r="3" /><circle cx="172.6562" cy="411.7175" fill="black" r="3" /><circle cx="180.4688" cy="170.1445" fill="black" r="3" /><circle cx="195.3125" cy="203.0498" fill="black" r="3" /><circle cx="196.0938" cy="73.0337" fill="black" r="3" /><circle cx="216.4062" cy="241.573" fill="black" r="3" /><circle cx="235.9375" cy="365.1685" fill="black" r="3" /><circle cx="354.6875" cy="284.9117" fill="black" r="3" /><circle cx="428.125" cy="247.191" fill="black" r="3" /><circle cx="17.9688" cy="211.0754" fill="black" r="3" /><circle cx="123.4375" cy="318.6196" fill="black" r="3" /><circle cx="282.0312" cy="259.2295" fill="black" r="3" /><circle cx="378.9062" cy="328.2504" fill="black" r="3" /><circle cx="34.375" cy="254.4141" fill="black" r="3" /><circle cx="232.8125" cy="215.8909" fill="black" r="3" /><circle cx="249.2188" cy="264.0449" fill="black" r="3" /><circle cx="278.125" cy="195.8266" fill="black" r="3" /><circle cx="316.4062" cy="368.3788" fill="black" r="3" /><circle cx="322.6562" cy="395.6661" fill="black" r="3" /><circle cx="321.875" cy="222.3114" fill="black" r="3" /><circle cx="33.5938" cy="153.2905" fill="black" r="3" /><circle cx="54.6875" cy="326.6453" fill="black" r="3" /><circle cx="83.5938" cy="219.1011" fill="black" r="3" /><circle cx="198.4375" cy="297.7528" fill="black" r="3" /><circle cx="282.0312" cy="150.8828" fill="black" r="3" /><circle cx="300.7812" cy="237.5602" fill="black" r="3" /><circle cx="329.6875" cy="442.2151" fill="black" r="3" /><circle cx="257.0312" cy="211.0754" fill="black" r="3" /><circle cx="133.5938" cy="381.2199" fill="black" r="3" /><circle cx="150.7812" cy="157.3034" fill="black" r="3" /><circle cx="61.7188" cy="152.488" fill="black" r="3" /><circle cx="100.7812" cy="296.1477" fill="black" r="3" /><circle cx="175.0" cy="135.634" fill="black" r="3" /><circle cx="200.7812" cy="154.8957" fill="black" r="3" /><circle cx="237.5" cy="85.8748" fill="black" r="3" /><circle cx="380.4688" cy="95.5056" fill="black" r="3" /><circle cx="425.7812" cy="170.1445" fill="black" r="3" /><circle cx="178.9062" cy="448.6356" fill="black" r="3" /><circle cx="425.7812" cy="394.061" fill="black" r="3" /><circle cx="443.75" cy="304.9759" fill="black" r="3" /><circle cx="55.4688" cy="28.0899" fill="black" r="3" /><circle cx="87.5" cy="259.2295" fill="black" r="3" /><circle cx="150.7812" cy="464.687" fill="black" r="3" /><circle cx="160.1562" cy="259.2295" fill="black" r="3" /><circle cx="181.25" cy="111.557" fill="black" r="3" /><circle cx="195.3125" cy="474.3178" fill="black" r="3" /><circle cx="293.75" cy="69.0209" fill="black" r="3" /><circle cx="319.5312" cy="151.6854" fill="black" r="3" /><circle cx="374.2188" cy="200.6421" fill="black" r="3" /><circle cx="307.8125" cy="268.0578" fill="black" r="3" /><circle cx="389.8438" cy="246.3884" fill="black" r="3" /><circle cx="32.0312" cy="129.2135" fill="black" r="3" /><circle cx="40.625" cy="66.6132" fill="black" r="3" /><circle cx="71.875" cy="188.6035" fill="black" r="3" /><circle cx="107.0312" cy="236.7576" fill="black" r="3" /><circle cx="135.1562" cy="340.2889" fill="black" r="3" /><circle cx="142.1875" cy="281.7014" fill="black" r="3" /><circle cx="175.0" cy="349.1172" fill="black" r="3" /><circle cx="239.8438" cy="239.9679" fill="black" r="3" /><circle cx="266.4062" cy="237.5602" fill="black" r="3" /><circle cx="279.6875" cy="357.1429" fill="black" r="3" /><circle cx="289.8438" cy="111.557" fill="black" r="3" /><circle cx="299.2188" cy="483.1461" fill="black" r="3" /><circle cx="314.8438" cy="300.1605" fill="black" r="3" /><circle cx="185.1562" cy="325.0401" fill="black" r="3" /><circle cx="331.25" cy="73.0337" fill="black" r="3" /><circle cx="86.7188" cy="63.4029" fill="black" r="3" /><circle cx="214.0625" cy="403.6918" fill="black" r="3" /><circle cx="230.4688" cy="141.252" fill="black" r="3" /><circle cx="264.8438" cy="27.2873" fill="black" r="3" /><circle cx="268.75" cy="280.0963" fill="black" r="3" /><circle cx="343.75" cy="463.8844" fill="black" r="3" /><circle cx="383.5938" cy="300.1605" fill="black" r="3" /><circle cx="250.7812" cy="475.1204" fill="black" r="3" /><circle cx="374.2188" cy="360.3531" fill="black" r="3" /><circle cx="149.2188" cy="203.8523" fill="black" r="3" /><circle cx="40.625" cy="289.7271" fill="black" r="3" /><circle cx="275.0" cy="331.4607" fill="black" r="3" /><circle cx="293.75" cy="174.9599" fill="black" r="3" /><circle cx="345.3125" cy="131.6212" fill="black" r="3" /><circle cx="353.125" cy="312.199" fill="black" r="3" /><circle cx="381.25" cy="164.5265" fill="black" r="3" /><circle cx="411.7188" cy="90.6902" fill="black" r="3" /><circle cx="409.375" cy="321.0273" fill="black" r="3" /><circle cx="52.3438" cy="112.3596" fill="black" r="3" /><circle cx="69.5312" cy="88.2825" fill="black" r="3" /><circle cx="139.0625" cy="111.557" fill="black" r="3" /><circle cx="149.2188" cy="440.61" fill="black" r="3" /><circle cx="175.0" cy="282.504" fill="black" r="3" /><circle cx="203.125" cy="373.9968" fill="black" r="3" /><circle cx="257.0312" cy="64.2055" fill="black" r="3" /><circle cx="313.2812" cy="463.8844" fill="black" r="3" /><circle cx="343.75" cy="369.1814" fill="black" r="3" /><circle cx="357.8125" cy="166.1316" fill="black" r="3" /><circle cx="291.4062" cy="390.8507" fill="black" r="3" /><circle cx="332.0312" cy="174.9599" fill="black" r="3" /><circle cx="22.6562" cy="88.2825" fill="black" r="3" /><circle cx="157.0312" cy="301.7657" fill="black" r="3" /><circle cx="268.75" cy="419.7432" fill="black" r="3" /><circle cx="333.5938" cy="328.2504" fill="black" r="3" /><circle cx="348.4375" cy="199.8395" fill="black" r="3" /><circle cx="153.9062" cy="369.1814" fill="black" r="3" /><circle cx="94.5312" cy="138.8443" fill="black" r="3" /><circle cx="114.0625" cy="349.9197" fill="black" r="3" /><circle cx="207.0312" cy="181.3804" fill="black" r="3" /><circle cx="259.375" cy="179.7753" fill="black" r="3" /><circle cx="306.25" cy="90.6902" fill="black" r="3" /><circle cx="332.0312" cy="99.5185" fill="black" r="3" /><circle cx="346.0938" cy="259.2295" fill="black" r="3" /><circle cx="82.8125" cy="345.1043" fill="black" r="3" /><circle cx="86.7188" cy="382.0225" fill="black" r="3" /><circle cx="132.8125" cy="186.1958" fill="black" r="3" /><circle cx="198.4375" cy="17.6565" fill="black" r="3" /><circle cx="252.3438" cy="396.4687" fill="black" r="3" /><circle cx="400.7812" cy="186.1958" fill="black" r="3" /><circle cx="430.4688" cy="284.9117" fill="black" r="3" /><circle cx="13.2812" cy="300.1605" fill="black" r="3" /><circle cx="217.9688" cy="430.9791" fill="black" r="3" /><circle cx="64.0625" cy="52.1669" fill="black" r="3" /><circle cx="111.7188" cy="28.0899" fill="black" r="3" /><circle cx="175.0" cy="485.5538" fill="black" r="3" /><circle cx="238.2812" cy="116.3724" fill="black" r="3" /><circle cx="425.0" cy="213.4831" fill="black" r="3" /><circle cx="132.8125" cy="252.809" fill="black" r="3" /><circle cx="217.1875" cy="459.069" fill="black" r="3" /><circle cx="306.25" cy="424.5586" fill="black" r="3" /><circle cx="335.9375" cy="418.138" fill="black" r="3" /><circle cx="19.5312" cy="276.0835" fill="black" r="3" /><circle cx="85.9375" cy="39.3258" fill="black" r="3" /><circle cx="200.7812" cy="127.6083" fill="black" r="3" /><circle cx="275.0" cy="482.3435" fill="black" r="3" /><circle cx="375.7812" cy="386.0353" fill="black" r="3" /><circle cx="103.9062" cy="431.7817" fill="black" r="3" /><circle cx="121.0938" cy="134.0289" fill="black" r="3" /><circle cx="299.2188" cy="341.0915" fill="black" r="3" /><circle cx="310.1562" cy="129.2135" fill="black" r="3" /><circle cx="414.8438" cy="347.512" fill="black" r="3" /><circle cx="442.9688" cy="334.6709" fill="black" r="3" /><circle cx="87.5" cy="317.0144" fill="black" r="3" /><circle cx="14.8438" cy="63.4029" fill="black" r="3" /><circle cx="209.375" cy="93.9005" fill="black" r="3" /><circle cx="402.3438" cy="372.3917" fill="black" r="3" /><circle cx="305.4688" cy="25.6822" fill="black" r="3" /><circle cx="448.4375" cy="219.1011" fill="black" r="3" /><circle cx="113.2812" cy="101.9262" fill="black" r="3" /><circle cx="414.0625" cy="121.9904" fill="black" r="3" /><circle cx="55.4688" cy="225.5217" fill="black" r="3" /><circle cx="59.375" cy="273.6758" fill="black" r="3" /><circle cx="149.2188" cy="59.39" fill="black" r="3" /><circle cx="361.7188" cy="479.9358" fill="black" r="3" /><circle cx="482.0312" cy="238.3628" fill="black" r="3" /><circle cx="333.5938" cy="488.764" fill="black" r="3" /><circle cx="35.9375" cy="13.6437" fill="black" r="3" /><circle cx="158.5938" cy="329.053" fill="black" r="3" /><circle cx="238.2812" cy="49.7592" fill="black" r="3" /><circle cx="292.1875" cy="453.451" fill="black" r="3" /><circle cx="371.0938" cy="261.6372" fill="black" r="3" /><circle cx="74.2188" cy="124.3981" fill="black" r="3" /><circle cx="246.0938" cy="436.5971" fill="black" r="3" /><circle cx="64.0625" cy="391.6533" fill="black" r="3" /><circle cx="296.875" cy="213.4831" fill="black" r="3" /><circle cx="319.5312" cy="50.5618" fill="black" r="3" /><circle cx="155.4688" cy="395.6661" fill="black" r="3" /><circle cx="110.1562" cy="378.0096" fill="black" r="3" /><circle cx="39.0625" cy="345.9069" fill="black" r="3" /><circle cx="44.5312" cy="195.0241" fill="black" r="3" /><circle cx="82.8125" cy="10.4334" fill="black" r="3" /><circle cx="117.9688" cy="410.9149" fill="black" r="3" /><circle cx="209.375" cy="52.1669" fill="black" r="3" /><circle cx="406.25" cy="64.2055" fill="black" r="3" /><circle cx="14.8438" cy="169.3419" fill="black" r="3" /><circle cx="123.4375" cy="447.0305" fill="black" r="3" /><circle cx="13.2812" cy="111.557" fill="black" r="3" /><circle cx="117.9688" cy="277.6886" fill="black" r="3" /><circle cx="110.1562" cy="69.0209" fill="black" r="3" /><circle cx="213.2812" cy="347.512" fill="black" r="3" /><circle cx="35.1562" cy="41.7335" fill="black" r="3" /><circle cx="226.5625" cy="484.7512" fill="black" r="3" /><circle cx="128.9062" cy="479.1332" fill="black" r="3" /><circle cx="130.4688" cy="84.2697" fill="black" r="3" /><circle cx="178.9062" cy="36.9181" fill="black" r="3" /><circle cx="329.6875" cy="280.8989" fill="black" r="3" /><circle cx="143.75" cy="416.5329" fill="black" r="3" /><circle cx="149.2188" cy="31.3002" fill="black" r="3" /><circle cx="285.1562" cy="41.7335" fill="black" r="3" /><circle cx="261.7188" cy="373.9968" fill="black" r="3" /><circle cx="354.6875" cy="92.2953" fill="black" r="3" /><circle cx="443.75" cy="147.6726" fill="black" r="3" /><circle cx="240.625" cy="13.6437" fill="black" r="3" /><circle cx="17.1875" cy="237.5602" fill="black" r="3" /><circle cx="118.75" cy="162.9213" fill="black" r="3" /><circle cx="177.3438" cy="374.7994" fill="black" r="3" /><circle cx="89.8438" cy="105.1364" fill="black" r="3" /><circle cx="170.3125" cy="191.8138" fill="black" r="3" /><circle cx="195.3125" cy="227.9294" fill="black" r="3" /><circle cx="270.3125" cy="305.7785" fill="black" r="3" /><circle cx="82.0312" cy="420.5457" fill="black" r="3" /><circle cx="333.5938" cy="15.2488" fill="black" r="3" /><circle cx="268.75" cy="444.6228" fill="black" r="3" /><circle cx="96.875" cy="464.687" fill="black" r="3" /><circle cx="43.75" cy="372.3917" fill="black" r="3" /><circle cx="171.875" cy="10.4334" fill="black" r="3" /><circle cx="374.2188" cy="42.5361" fill="black" r="3" /><circle cx="67.1875" cy="365.1685" fill="black" r="3" /><circle cx="434.375" cy="82.6645" fill="black" r="3" /><circle cx="150.7812" cy="489.5666" fill="black" r="3" /><circle cx="192.9688" cy="426.1637" fill="black" r="3" /><circle cx="405.4688" cy="469.5024" fill="black" r="3" /><circle cx="453.125" cy="401.2841" fill="black" r="3" /><circle cx="284.375" cy="7.2231" fill="black" r="3" /><circle cx="355.4688" cy="434.1894" fill="black" r="3" /><circle cx="464.8438" cy="446.2279" fill="black" r="3" /><circle cx="430.4688" cy="369.1814" fill="black" r="3" /><circle cx="190.625" cy="395.6661" fill="black" r="3" /><circle cx="425.0" cy="46.549" fill="black" r="3" /><circle cx="463.2812" cy="56.9823" fill="black" r="3" /><circle cx="385.1562" cy="488.764" fill="black" r="3" /><circle cx="436.7188" cy="191.8138" fill="black" r="3" /><circle cx="75.7812" cy="445.4254" fill="black" r="3" /><circle cx="41.4062" cy="422.1509" fill="black" r="3" /><circle cx="149.2188" cy="1.6051" fill="black" r="3" /><circle cx="100.7812" cy="488.764" fill="black" r="3" /><circle cx="382.8125" cy="441.4125" fill="black" r="3" /><circle cx="449.2188" cy="490.3692" fill="black" r="3" /><circle cx="401.5625" cy="400.4815" fill="black" r="3" /><circle cx="16.4062" cy="27.2873" fill="black" r="3" /></svg>