<?xml version="1.0" encoding="utf-8" ?>
<svg baseProfile="tiny" height="100%" version="1.2" viewBox="0,0,500,500" width="100%" xmlns="http://www.w3.org/2000/svg" xmlns:ev="http://www.w3.org/2001/xml-events" xmlns:xlink="http://www.w3.org/1999/xlink"><defs /><circle cx="223.0" cy="565.0" fill="black" r="3" /><circle cx="416.0" cy="146.0" fill="black" r="3" /><circle cx="320.0" cy="334.0" fill="black" r="3" /><circle cx="338.0" cy="248.0" fill="black" r="3" /><circle cx="352.0" cy="289.0" fill="black" r="3" /><circle cx="218.0" cy="478.0" fill="black" r="3" /><circle cx="278.0" cy="289.0" fill="black" r="3" /><circle cx="122.0" cy="334.0" fill="black" r="3" /><circle cx="227.0" cy="445.0" fill="black" r="3" /><circle cx="285.0" cy="339.0" fill="black" r="3" /><circle cx="416.0" cy="435.0" fill="black" r="3" /><circle cx="95.0" cy="411.0" fill="black" r="3" /><circle cx="244.0" cy="249.0" fill="black" r="3" /><circle cx="387.0" cy="363.0" fill="black" r="3" /><circle cx="526.0" cy="293.0" fill="black" r="3" /><circle cx="127.0" cy="273.0" fill="black" r="3" /><circle cx="436.0" cy="220.0" fill="black" r="3" /><circle cx="206.0" cy="231.0" fill="black" r="3" /><circle cx="261.0" cy="459.0" fill="black" r="3" /><circle cx="290.0" cy="208.0" fill="black" r="3" /><circle cx="301.0" cy="268.0" fill="black" r="3" /><circle cx="377.0" cy="179.0" fill="black" r="3" /><circle cx="100.0" cy="297.0" fill="black" r="3" /><circle cx="319.0" cy="292.0" fill="black" r="3" /><circle cx="461.0" cy="539.0" fill="black" r="3" /><circle cx="251.0" cy="356.0" fill="black" r="3" /><circle cx="367.0" cy="493.0" fill="black" r="3" /><circle cx="397.0" cy="466.0" fill="black" r="3" /><circle cx="406.0" cy="115.0" fill="black" r="3" /><circle cx="485.0" cy="289.0" fill="black" r="3" /><circle cx="193.0" cy="435.0" fill="black" r="3" /><circle cx="172.0" cy="470.0" fill="black" r="3" /><circle cx="218.0" cy="98.0" fill="black" r="3" /><circle cx="263.0" cy="187.0" fill="black" r="3" /><circle cx="441.0" cy="406.0" fill="black" r="3" /><circle cx="484.0" cy="433.0" fill="black" r="3" /><circle cx="567.0" cy="315.0" fill="black" r="3" /><circle cx="125.0" cy="241.0" fill="black" r="3" /><circle cx="281.0" cy="371.0" fill="black" r="3" /><circle cx="117.0" cy="370.0" fill="black" r="3" /><circle cx="159.0" cy="286.0" fill="black" r="3" /><circle cx="190.0" cy="529.0" fill="black" r="3" /><circle cx="347.0" cy="359.0" fill="black" r="3" /><circle cx="370.0" cy="259.0" fill="black" r="3" /><circle cx="380.0" cy="311.0" fill="black" r="3" /><circle cx="428.0" cy="463.0" fill="black" r="3" /><circle cx="452.0" cy="97.0" fill="black" r="3" /><circle cx="76.0" cy="331.0" fill="black" r="3" /><circle cx="89.0" cy="263.0" fill="black" r="3" /><circle cx="176.0" cy="125.0" fill="black" r="3" /><circle cx="290.0" cy="91.0" fill="black" r="3" /><circle cx="373.0" cy="104.0" fill="black" r="3" /><circle cx="401.0" cy="289.0" fill="black" r="3" /><circle cx="445.0" cy="250.0" fill="black" r="3" /><circle cx="496.0" cy="326.0" fill="black" r="3" /><circle cx="521.0" cy="347.0" fill="black" r="3" /><circle cx="524.0" cy="190.0" fill="black" r="3" /><circle cx="227.0" cy="305.0" fill="black" r="3" /><circle cx="141.0" cy="405.0" fill="black" r="3" /><circle cx="142.0" cy="439.0" fill="black" r="3" /><circle cx="149.0" cy="317.0" fill="black" r="3" /><circle cx="277.0" cy="431.0" fill="black" r="3" /><circle cx="313.0" cy="161.0" fill="black" r="3" /><circle cx="319.0" cy="484.0" fill="black" r="3" /><circle cx="353.0" cy="326.0" fill="black" r="3" /><circle cx="374.0" cy="226.0" fill="black" r="3" /><circle cx="425.0" cy="530.0" fill="black" r="3" /><circle cx="447.0" cy="136.0" fill="black" r="3" /><circle cx="481.0" cy="494.0" fill="black" r="3" /><circle cx="496.0" cy="238.0" fill="black" r="3" /><circle cx="529.0" cy="254.0" fill="black" r="3" /><circle cx="417.0" cy="315.0" fill="black" r="3" /><circle cx="255.0" cy="409.0" fill="black" r="3" /><circle cx="278.0" cy="245.0" fill="black" r="3" /><circle cx="298.0" cy="512.0" fill="black" r="3" /><circle cx="323.0" cy="535.0" fill="black" r="3" /><circle cx="383.0" cy="405.0" fill="black" r="3" /><circle cx="451.0" cy="356.0" fill="black" r="3" /><circle cx="587.0" cy="273.0" fill="black" r="3" /><circle cx="376.0" cy="443.0" fill="black" r="3" /><circle cx="142.0" cy="518.0" fill="black" r="3" /><circle cx="171.0" cy="95.0" fill="black" r="3" /><circle cx="236.0" cy="133.0" fill="black" r="3" /><circle cx="244.0" cy="161.0" fill="black" r="3" /><circle cx="259.0" cy="221.0" fill="black" r="3" /><circle cx="280.0" cy="488.0" fill="black" r="3" /><circle cx="327.0" cy="61.0" fill="black" r="3" /><circle cx="341.0" cy="200.0" fill="black" r="3" /><circle cx="345.0" cy="163.0" fill="black" r="3" /><circle cx="406.0" cy="247.0" fill="black" r="3" /><circle cx="484.0" cy="172.0" fill="black" r="3" /><circle cx="112.0" cy="206.0" fill="black" r="3" /><circle cx="154.0" cy="370.0" fill="black" r="3" /><circle cx="201.0" cy="70.0" fill="black" r="3" /><circle cx="220.0" cy="529.0" fill="black" r="3" /><circle cx="296.0" cy="122.0" fill="black" r="3" /><circle cx="418.0" cy="377.0" fill="black" r="3" /><circle cx="500.0" cy="382.0" fill="black" r="3" /><circle cx="177.0" cy="346.0" fill="black" r="3" /><circle cx="245.0" cy="490.0" fill="black" r="3" /><circle cx="320.0" cy="430.0" fill="black" r="3" /><circle cx="347.0" cy="469.0" fill="black" r="3" /><circle cx="424.0" cy="81.0" fill="black" r="3" /><circle cx="458.0" cy="463.0" fill="black" r="3" /><circle cx="189.0" cy="375.0" fill="black" r="3" /><circle cx="353.0" cy="416.0" fill="black" r="3" /><circle cx="523.0" cy="422.0" fill="black" r="3" /><circle cx="203.0" cy="283.0" fill="black" r="3" /><circle cx="488.0" cy="98.0" fill="black" r="3" /><circle cx="218.0" cy="367.0" fill="black" r="3" /><circle cx="274.0" cy="155.0" fill="black" r="3" /><circle cx="333.0" cy="386.0" fill="black" r="3" /><circle cx="398.0" cy="502.0" fill="black" r="3" /><circle cx="428.0" cy="181.0" fill="black" r="3" /><circle cx="442.0" cy="502.0" fill="black" r="3" /><circle cx="161.0" cy="253.0" fill="black" r="3" /><circle cx="187.0" cy="161.0" fill="black" r="3" /><circle cx="311.0" cy="233.0" fill="black" r="3" /><circle cx="208.0" cy="189.0" fill="black" r="3" /><circle cx="220.0" cy="398.0" fill="black" r="3" /><circle cx="454.0" cy="291.0" fill="black" r="3" /><circle cx="559.0" cy="263.0" fill="black" r="3" /><circle cx="105.0" cy="176.0" fill="black" r="3" /><circle cx="256.0" cy="315.0" fill="black" r="3" /><circle cx="266.0" cy="113.0" fill="black" r="3" /><circle cx="37.0" cy="320.0" fill="black" r="3" /><circle cx="151.0" cy="217.0" fill="black" r="3" /><circle cx="167.0" cy="550.0" fill="black" r="3" /><circle cx="476.0" cy="209.0" fill="black" r="3" /><circle cx="44.0" cy="277.0" fill="black" r="3" /><circle cx="154.0" cy="163.0" fill="black" r="3" /><circle cx="257.0" cy="521.0" fill="black" r="3" /><circle cx="461.0" cy="56.0" fill="black" r="3" /><circle cx="465.0" cy="328.0" fill="black" r="3" /><circle cx="357.0" cy="523.0" fill="black" r="3" /><circle cx="304.0" cy="395.0" fill="black" r="3" /><circle cx="511.0" cy="463.0" fill="black" r="3" /><circle cx="585.0" cy="340.0" fill="black" r="3" /><circle cx="494.0" cy="525.0" fill="black" r="3" /><circle cx="343.0" cy="124.0" fill="black" r="3" /><circle cx="471.0" cy="405.0" fill="black" r="3" /><circle cx="555.0" cy="345.0" fill="black" r="3" /><circle cx="385.0" cy="149.0" fill="black" r="3" /><circle cx="175.0" cy="500.0" fill="black" r="3" /><circle cx="224.0" cy="335.0" fill="black" r="3" /><circle cx="260.0" cy="77.0" fill="black" r="3" /><circle cx="532.0" cy="376.0" fill="black" r="3" /><circle cx="62.0" cy="301.0" fill="black" r="3" /><circle cx="485.0" cy="142.0" fill="black" r="3" /><circle cx="339.0" cy="88.0" fill="black" r="3" /><circle cx="193.0" cy="313.0" fill="black" r="3" /><circle cx="296.0" cy="458.0" fill="black" r="3" /><circle cx="427.0" cy="562.0" fill="black" r="3" /><circle cx="235.0" cy="57.0" fill="black" r="3" /><circle cx="550.0" cy="227.0" fill="black" r="3" /><circle cx="603.0" cy="305.0" fill="black" r="3" /><circle cx="206.0" cy="128.0" fill="black" r="3" /><circle cx="175.0" cy="404.0" fill="black" r="3" /><circle cx="377.0" cy="74.0" fill="black" r="3" /><circle cx="62.0" cy="249.0" fill="black" r="3" /><circle cx="346.0" cy="560.0" fill="black" r="3" /><circle cx="287.0" cy="58.0" fill="black" r="3" /><circle cx="560.0" cy="398.0" fill="black" r="3" /><circle cx="525.0" cy="157.0" fill="black" r="3" /><circle cx="473.0" cy="260.0" fill="black" r="3" /><circle cx="311.0" cy="566.0" fill="black" r="3" /><circle cx="289.0" cy="541.0" fill="black" r="3" /><circle cx="413.0" cy="345.0" fill="black" r="3" /><circle cx="127.0" cy="139.0" fill="black" r="3" /><circle cx="17.0" cy="296.0" fill="black" r="3" /><circle cx="85.0" cy="367.0" fill="black" r="3" /><circle cx="401.0" cy="205.0" fill="black" r="3" /><circle cx="429.0" cy="40.0" fill="black" r="3" /><circle cx="553.0" cy="429.0" fill="black" r="3" /><circle cx="191.0" cy="577.0" fill="black" r="3" /><circle cx="51.0" cy="347.0" fill="black" r="3" /><circle cx="76.0" cy="442.0" fill="black" r="3" /><circle cx="587.0" cy="371.0" fill="black" r="3" /><circle cx="395.0" cy="532.0" fill="black" r="3" /><circle cx="248.0" cy="281.0" fill="black" r="3" /><circle cx="455.0" cy="572.0" fill="black" r="3" /><circle cx="145.0" cy="112.0" fill="black" r="3" /><circle cx="88.0" cy="81.0" fill="black" r="3" /><circle cx="494.0" cy="557.0" fill="black" r="3" /><circle cx="117.0" cy="455.0" fill="black" r="3" /><circle cx="8.0" cy="470.0" fill="black" r="3" /><circle cx="217.0" cy="596.0" fill="black" r="3" /><circle cx="341.0" cy="31.0" fill="black" r="3" /><circle cx="74.0" cy="177.0" fill="black" r="3" /><circle cx="129.0" cy="545.0" fill="black" r="3" /><circle cx="46.0" cy="586.0" fill="black" r="3" /><circle cx="49.0" cy="71.0" fill="black" r="3" /><circle cx="253.0" cy="572.0" fill="black" r="3" /><circle cx="31.0" cy="523.0" fill="black" r="3" /><circle cx="517.0" cy="503.0" fill="black" r="3" /><circle cx="171.0" cy="61.0" fill="black" r="3" /></svg>