<?xml version="1.0" encoding="utf-8" ?>
<svg baseProfile="tiny" height="100%" version="1.2" viewBox="0,0,500,500" width="100%" xmlns="http://www.w3.org/2000/svg" xmlns:ev="http://www.w3.org/2001/xml-events" xmlns:xlink="http://www.w3.org/1999/xlink"><defs /><circle cx="146.0" cy="146.0" fill="black" r="3" /><circle cx="97.0" cy="61.0" fill="black" r="3" /><circle cx="73.0" cy="103.0" fill="black" r="3" /><circle cx="98.0" cy="149.0" fill="black" r="3" /><circle cx="170.0" cy="103.0" fill="black" r="3" /><circle cx="145.0" cy="61.0" fill="black" r="3" /><circle cx="67.0" cy="67.0" fill="black" r="3" /><circle cx="122.0" cy="39.0" fill="black" r="3" /><circle cx="176.0" cy="62.0" fill="black" r="3" /><circle cx="175.0" cy="137.0" fill="black" r="3" /><circle cx="59.0" cy="133.0" fill="black" r="3" /><circle cx="122.0" cy="167.0" fill="black" r="3" /><circle cx="110.0" cy="122.0" fill="black" r="3" /><circle cx="199.0" cy="115.0" fill="black" r="3" /><circle cx="164.0" cy="185.0" fill="black" r="3" /><circle cx="75.0" cy="185.0" fill="black" r="3" /><circle cx="35.0" cy="93.0" fill="black" r="3" /><circle cx="200.0" cy="81.0" fill="black" r="3" /><circle cx="95.0" cy="19.0" fill="black" r="3" /><circle cx="149.0" cy="25.0" fill="black" r="3" /><circle cx="139.0" cy="109.0" fill="black" r="3" /></svg>