<?xml version="1.0" encoding="utf-8" ?>
<svg baseProfile="tiny" height="100%" version="1.2" viewBox="0,0,500,500" width="100%" xmlns="http://www.w3.org/2000/svg" xmlns:ev="http://www.w3.org/2001/xml-events" xmlns:xlink="http://www.w3.org/1999/xlink"><defs /><circle cx="230.0" cy="226.0" fill="black" r="3" /><circle cx="454.0" cy="295.0" fill="black" r="3" /><circle cx="303.0" cy="284.0" fill="black" r="3" /><circle cx="553.0" cy="467.0" fill="black" r="3" /><circle cx="481.0" cy="358.0" fill="black" r="3" /><circle cx="395.0" cy="271.0" fill="black" r="3" /><circle cx="325.0" cy="455.0" fill="black" r="3" /><circle cx="345.0" cy="517.0" fill="black" r="3" /><circle cx="473.0" cy="544.0" fill="black" r="3" /><circle cx="572.0" cy="407.0" fill="black" r="3" /><circle cx="578.0" cy="361.0" fill="black" r="3" /><circle cx="261.0" cy="530.0" fill="black" r="3" /><circle cx="251.0" cy="385.0" fill="black" r="3" /><circle cx="284.0" cy="481.0" fill="black" r="3" /><circle cx="457.0" cy="440.0" fill="black" r="3" /><circle cx="411.0" cy="477.0" fill="black" r="3" /><circle cx="229.0" cy="304.0" fill="black" r="3" /><circle cx="253.0" cy="280.0" fill="black" r="3" /><circle cx="256.0" cy="184.0" fill="black" r="3" /><circle cx="287.0" cy="316.0" fill="black" r="3" /><circle cx="356.0" cy="671.0" fill="black" r="3" /><circle cx="421.0" cy="244.0" fill="black" r="3" /><circle cx="465.0" cy="242.0" fill="black" r="3" /><circle cx="538.0" cy="339.0" fill="black" r="3" /><circle cx="272.0" cy="352.0" fill="black" r="3" /><circle cx="289.0" cy="430.0" fill="black" r="3" /><circle cx="403.0" cy="333.0" fill="black" r="3" /><circle cx="445.0" cy="386.0" fill="black" r="3" /><circle cx="518.0" cy="209.0" fill="black" r="3" /><circle cx="574.0" cy="311.0" fill="black" r="3" /><circle cx="305.0" cy="506.0" fill="black" r="3" /><circle cx="358.0" cy="563.0" fill="black" r="3" /><circle cx="367.0" cy="329.0" fill="black" r="3" /><circle cx="483.0" cy="393.0" fill="black" r="3" /><circle cx="595.0" cy="439.0" fill="black" r="3" /><circle cx="385.0" cy="373.0" fill="black" r="3" /><circle cx="413.0" cy="295.0" fill="black" r="3" /><circle cx="423.0" cy="559.0" fill="black" r="3" /><circle cx="662.0" cy="441.0" fill="black" r="3" /><circle cx="385.0" cy="518.0" fill="black" r="3" /><circle cx="539.0" cy="263.0" fill="black" r="3" /><circle cx="514.0" cy="503.0" fill="black" r="3" /><circle cx="106.0" cy="496.0" fill="black" r="3" /><circle cx="163.0" cy="568.0" fill="black" r="3" /><circle cx="212.0" cy="485.0" fill="black" r="3" /><circle cx="221.0" cy="422.0" fill="black" r="3" /><circle cx="353.0" cy="255.0" fill="black" r="3" /><circle cx="379.0" cy="590.0" fill="black" r="3" /><circle cx="416.0" cy="364.0" fill="black" r="3" /><circle cx="433.0" cy="511.0" fill="black" r="3" /><circle cx="447.0" cy="661.0" fill="black" r="3" /><circle cx="524.0" cy="421.0" fill="black" r="3" /><circle cx="621.0" cy="319.0" fill="black" r="3" /><circle cx="170.0" cy="359.0" fill="black" r="3" /><circle cx="165.0" cy="429.0" fill="black" r="3" /><circle cx="289.0" cy="647.0" fill="black" r="3" /><circle cx="370.0" cy="416.0" fill="black" r="3" /><circle cx="392.0" cy="207.0" fill="black" r="3" /><circle cx="395.0" cy="447.0" fill="black" r="3" /><circle cx="305.0" cy="561.0" fill="black" r="3" /><circle cx="326.0" cy="177.0" fill="black" r="3" /><circle cx="148.0" cy="460.0" fill="black" r="3" /><circle cx="172.0" cy="323.0" fill="black" r="3" /><circle cx="289.0" cy="188.0" fill="black" r="3" /><circle cx="371.0" cy="479.0" fill="black" r="3" /><circle cx="413.0" cy="409.0" fill="black" r="3" /><circle cx="494.0" cy="325.0" fill="black" r="3" /><circle cx="508.0" cy="596.0" fill="black" r="3" /><circle cx="86.0" cy="431.0" fill="black" r="3" /><circle cx="103.0" cy="278.0" fill="black" r="3" /><circle cx="277.0" cy="243.0" fill="black" r="3" /><circle cx="298.0" cy="374.0" fill="black" r="3" /><circle cx="329.0" cy="373.0" fill="black" r="3" /><circle cx="409.0" cy="172.0" fill="black" r="3" /><circle cx="521.0" cy="375.0" fill="black" r="3" /><circle cx="547.0" cy="178.0" fill="black" r="3" /><circle cx="580.0" cy="586.0" fill="black" r="3" /><circle cx="217.0" cy="341.0" fill="black" r="3" /><circle cx="256.0" cy="417.0" fill="black" r="3" /><circle cx="473.0" cy="187.0" fill="black" r="3" /><circle cx="81.0" cy="376.0" fill="black" r="3" /><circle cx="113.0" cy="370.0" fill="black" r="3" /><circle cx="187.0" cy="459.0" fill="black" r="3" /><circle cx="209.0" cy="604.0" fill="black" r="3" /><circle cx="236.0" cy="463.0" fill="black" r="3" /><circle cx="266.0" cy="139.0" fill="black" r="3" /><circle cx="319.0" cy="221.0" fill="black" r="3" /><circle cx="449.0" cy="337.0" fill="black" r="3" /><circle cx="451.0" cy="473.0" fill="black" r="3" /><circle cx="381.0" cy="303.0" fill="black" r="3" /><circle cx="212.0" cy="560.0" fill="black" r="3" /><circle cx="266.0" cy="214.0" fill="black" r="3" /><circle cx="314.0" cy="409.0" fill="black" r="3" /><circle cx="319.0" cy="331.0" fill="black" r="3" /><circle cx="379.0" cy="171.0" fill="black" r="3" /><circle cx="386.0" cy="632.0" fill="black" r="3" /><circle cx="608.0" cy="350.0" fill="black" r="3" /><circle cx="614.0" cy="471.0" fill="black" r="3" /><circle cx="221.0" cy="525.0" fill="black" r="3" /><circle cx="250.0" cy="328.0" fill="black" r="3" /><circle cx="207.0" cy="261.0" fill="black" r="3" /><circle cx="124.0" cy="299.0" fill="black" r="3" /><circle cx="148.0" cy="494.0" fill="black" r="3" /><circle cx="149.0" cy="200.0" fill="black" r="3" /><circle cx="175.0" cy="262.0" fill="black" r="3" /><circle cx="644.0" cy="523.0" fill="black" r="3" /><circle cx="331.0" cy="296.0" fill="black" r="3" /><circle cx="286.0" cy="116.0" fill="black" r="3" /><circle cx="191.0" cy="221.0" fill="black" r="3" /><circle cx="352.0" cy="209.0" fill="black" r="3" /><circle cx="389.0" cy="555.0" fill="black" r="3" /><circle cx="437.0" cy="217.0" fill="black" r="3" /><circle cx="493.0" cy="457.0" fill="black" r="3" /><circle cx="515.0" cy="628.0" fill="black" r="3" /><circle cx="538.0" cy="533.0" fill="black" r="3" /><circle cx="620.0" cy="221.0" fill="black" r="3" /><circle cx="626.0" cy="407.0" fill="black" r="3" /><circle cx="458.0" cy="148.0" fill="black" r="3" /><circle cx="664.0" cy="367.0" fill="black" r="3" /><circle cx="152.0" cy="389.0" fill="black" r="3" /><circle cx="418.0" cy="128.0" fill="black" r="3" /><circle cx="490.0" cy="283.0" fill="black" r="3" /><circle cx="566.0" cy="553.0" fill="black" r="3" /><circle cx="335.0" cy="487.0" fill="black" r="3" /><circle cx="215.0" cy="383.0" fill="black" r="3" /><circle cx="233.0" cy="118.0" fill="black" r="3" /><circle cx="333.0" cy="649.0" fill="black" r="3" /><circle cx="353.0" cy="139.0" fill="black" r="3" /><circle cx="440.0" cy="584.0" fill="black" r="3" /><circle cx="475.0" cy="495.0" fill="black" r="3" /><circle cx="614.0" cy="531.0" fill="black" r="3" /><circle cx="265.0" cy="620.0" fill="black" r="3" /><circle cx="310.0" cy="134.0" fill="black" r="3" /><circle cx="494.0" cy="155.0" fill="black" r="3" /><circle cx="545.0" cy="298.0" fill="black" r="3" /><circle cx="575.0" cy="278.0" fill="black" r="3" /><circle cx="99.0" cy="344.0" fill="black" r="3" /><circle cx="263.0" cy="451.0" fill="black" r="3" /><circle cx="133.0" cy="232.0" fill="black" r="3" /><circle cx="146.0" cy="541.0" fill="black" r="3" /><circle cx="475.0" cy="619.0" fill="black" r="3" /><circle cx="591.0" cy="208.0" fill="black" r="3" /><circle cx="323.0" cy="613.0" fill="black" r="3" /><circle cx="532.0" cy="567.0" fill="black" r="3" /><circle cx="185.0" cy="517.0" fill="black" r="3" /><circle cx="511.0" cy="255.0" fill="black" r="3" /><circle cx="539.0" cy="608.0" fill="black" r="3" /><circle cx="551.0" cy="209.0" fill="black" r="3" /><circle cx="565.0" cy="245.0" fill="black" r="3" /><circle cx="106.0" cy="401.0" fill="black" r="3" /><circle cx="374.0" cy="95.0" fill="black" r="3" /><circle cx="418.0" cy="644.0" fill="black" r="3" /><circle cx="215.0" cy="142.0" fill="black" r="3" /><circle cx="248.0" cy="500.0" fill="black" r="3" /><circle cx="97.0" cy="461.0" fill="black" r="3" /><circle cx="137.0" cy="343.0" fill="black" r="3" /><circle cx="211.0" cy="182.0" fill="black" r="3" /><circle cx="251.0" cy="589.0" fill="black" r="3" /><circle cx="478.0" cy="574.0" fill="black" r="3" /><circle cx="572.0" cy="502.0" fill="black" r="3" /><circle cx="233.0" cy="622.0" fill="black" r="3" /><circle cx="322.0" cy="255.0" fill="black" r="3" /><circle cx="577.0" cy="181.0" fill="black" r="3" /><circle cx="117.0" cy="433.0" fill="black" r="3" /><circle cx="344.0" cy="401.0" fill="black" r="3" /><circle cx="608.0" cy="285.0" fill="black" r="3" /><circle cx="187.0" cy="164.0" fill="black" r="3" /><circle cx="487.0" cy="427.0" fill="black" r="3" /><circle cx="661.0" cy="289.0" fill="black" r="3" /><circle cx="515.0" cy="303.0" fill="black" r="3" /><circle cx="605.0" cy="380.0" fill="black" r="3" /><circle cx="436.0" cy="101.0" fill="black" r="3" /><circle cx="189.0" cy="722.0" fill="black" r="3" /><circle cx="381.0" cy="237.0" fill="black" r="3" /><circle cx="172.0" cy="293.0" fill="black" r="3" /><circle cx="523.0" cy="472.0" fill="black" r="3" /><circle cx="514.0" cy="179.0" fill="black" r="3" /><circle cx="353.0" cy="623.0" fill="black" r="3" /><circle cx="503.0" cy="556.0" fill="black" r="3" /><circle cx="88.0" cy="307.0" fill="black" r="3" /><circle cx="142.0" cy="275.0" fill="black" r="3" /><circle cx="599.0" cy="559.0" fill="black" r="3" /><circle cx="443.0" cy="178.0" fill="black" r="3" /><circle cx="363.0" cy="447.0" fill="black" r="3" /><circle cx="437.0" cy="620.0" fill="black" r="3" /><circle cx="272.0" cy="559.0" fill="black" r="3" /><circle cx="131.0" cy="571.0" fill="black" r="3" /><circle cx="184.0" cy="389.0" fill="black" r="3" /><circle cx="427.0" cy="448.0" fill="black" r="3" /><circle cx="434.0" cy="272.0" fill="black" r="3" /><circle cx="644.0" cy="340.0" fill="black" r="3" /><circle cx="73.0" cy="536.0" fill="black" r="3" /><circle cx="509.0" cy="124.0" fill="black" r="3" /><circle cx="110.0" cy="635.0" fill="black" r="3" /><circle cx="488.0" cy="217.0" fill="black" r="3" /><circle cx="583.0" cy="469.0" fill="black" r="3" /><circle cx="409.0" cy="598.0" fill="black" r="3" /><circle cx="70.0" cy="405.0" fill="black" r="3" /><circle cx="332.0" cy="581.0" fill="black" r="3" /><circle cx="167.0" cy="697.0" fill="black" r="3" /><circle cx="329.0" cy="110.0" fill="black" r="3" /><circle cx="153.0" cy="604.0" fill="black" r="3" /><circle cx="281.0" cy="399.0" fill="black" r="3" /><circle cx="151.0" cy="154.0" fill="black" r="3" /><circle cx="349.0" cy="701.0" fill="black" r="3" /><circle cx="561.0" cy="437.0" fill="black" r="3" /><circle cx="103.0" cy="580.0" fill="black" r="3" /><circle cx="550.0" cy="385.0" fill="black" r="3" /><circle cx="188.0" cy="628.0" fill="black" r="3" /><circle cx="291.0" cy="603.0" fill="black" r="3" /><circle cx="260.0" cy="664.0" fill="black" r="3" /><circle cx="113.0" cy="206.0" fill="black" r="3" /><circle cx="35.0" cy="495.0" fill="black" r="3" /><circle cx="615.0" cy="254.0" fill="black" r="3" /><circle cx="649.0" cy="472.0" fill="black" r="3" /><circle cx="207.0" cy="751.0" fill="black" r="3" /><circle cx="381.0" cy="759.0" fill="black" r="3" /><circle cx="611.0" cy="501.0" fill="black" r="3" /><circle cx="23.0" cy="523.0" fill="black" r="3" /><circle cx="113.0" cy="527.0" fill="black" r="3" /><circle cx="389.0" cy="662.0" fill="black" r="3" /><circle cx="479.0" cy="649.0" fill="black" r="3" /><circle cx="383.0" cy="715.0" fill="black" r="3" /><circle cx="43.0" cy="343.0" fill="black" r="3" /><circle cx="595.0" cy="620.0" fill="black" r="3" /><circle cx="358.0" cy="62.0" fill="black" r="3" /><circle cx="315.0" cy="693.0" fill="black" r="3" /><circle cx="128.0" cy="694.0" fill="black" r="3" /><circle cx="632.0" cy="437.0" fill="black" r="3" /><circle cx="199.0" cy="69.0" fill="black" r="3" /><circle cx="464.0" cy="113.0" fill="black" r="3" /><circle cx="143.0" cy="667.0" fill="black" r="3" /><circle cx="698.0" cy="499.0" fill="black" r="3" /><circle cx="39.0" cy="376.0" fill="black" r="3" /><circle cx="229.0" cy="87.0" fill="black" r="3" /><circle cx="418.0" cy="688.0" fill="black" r="3" /><circle cx="201.0" cy="100.0" fill="black" r="3" /><circle cx="223.0" cy="710.0" fill="black" r="3" /></svg>