<?xml version="1.0" encoding="utf-8" ?>
<svg baseProfile="tiny" height="100%" version="1.2" viewBox="0,0,500,500" width="100%" xmlns="http://www.w3.org/2000/svg" xmlns:ev="http://www.w3.org/2001/xml-events" xmlns:xlink="http://www.w3.org/1999/xlink"><defs /><circle cx="292.0" cy="460.0" fill="black" r="3" /><circle cx="350.0" cy="170.0" fill="black" r="3" /><circle cx="199.0" cy="277.0" fill="black" r="3" /><circle cx="217.0" cy="236.0" fill="black" r="3" /><circle cx="275.0" cy="302.0" fill="black" r="3" /><circle cx="328.0" cy="127.0" fill="black" r="3" /><circle cx="334.0" cy="370.0" fill="black" r="3" /><circle cx="549.0" cy="201.0" fill="black" r="3" /><circle cx="143.0" cy="277.0" fill="black" r="3" /><circle cx="370.0" cy="364.0" fill="black" r="3" /><circle cx="413.0" cy="254.0" fill="black" r="3" /><circle cx="220.0" cy="503.0" fill="black" r="3" /><circle cx="346.0" cy="206.0" fill="black" r="3" /><circle cx="374.0" cy="143.0" fill="black" r="3" /><circle cx="188.0" cy="425.0" fill="black" r="3" /><circle cx="242.0" cy="272.0" fill="black" r="3" /><circle cx="284.0" cy="347.0" fill="black" r="3" /><circle cx="296.0" cy="199.0" fill="black" r="3" /><circle cx="401.0" cy="199.0" fill="black" r="3" /><circle cx="416.0" cy="295.0" fill="black" r="3" /><circle cx="482.0" cy="172.0" fill="black" r="3" /><circle cx="525.0" cy="286.0" fill="black" r="3" /><circle cx="95.0" cy="353.0" fill="black" r="3" /><circle cx="109.0" cy="308.0" fill="black" r="3" /><circle cx="212.0" cy="106.0" fill="black" r="3" /><circle cx="407.0" cy="371.0" fill="black" r="3" /><circle cx="418.0" cy="103.0" fill="black" r="3" /><circle cx="127.0" cy="250.0" fill="black" r="3" /><circle cx="241.0" cy="309.0" fill="black" r="3" /><circle cx="467.0" cy="143.0" fill="black" r="3" /><circle cx="199.0" cy="139.0" fill="black" r="3" /><circle cx="422.0" cy="489.0" fill="black" r="3" /><circle cx="454.0" cy="289.0" fill="black" r="3" /><circle cx="238.0" cy="203.0" fill="black" r="3" /><circle cx="128.0" cy="369.0" fill="black" r="3" /><circle cx="169.0" cy="313.0" fill="black" r="3" /><circle cx="283.0" cy="103.0" fill="black" r="3" /><circle cx="322.0" cy="325.0" fill="black" r="3" /><circle cx="322.0" cy="409.0" fill="black" r="3" /><circle cx="328.0" cy="461.0" fill="black" r="3" /><circle cx="151.0" cy="431.0" fill="black" r="3" /><circle cx="406.0" cy="326.0" fill="black" r="3" /><circle cx="119.0" cy="187.0" fill="black" r="3" /><circle cx="254.0" cy="371.0" fill="black" r="3" /><circle cx="277.0" cy="427.0" fill="black" r="3" /><circle cx="326.0" cy="260.0" fill="black" r="3" /><circle cx="347.0" cy="93.0" fill="black" r="3" /><circle cx="427.0" cy="161.0" fill="black" r="3" /><circle cx="461.0" cy="398.0" fill="black" r="3" /><circle cx="224.0" cy="169.0" fill="black" r="3" /><circle cx="509.0" cy="236.0" fill="black" r="3" /><circle cx="171.0" cy="475.0" fill="black" r="3" /><circle cx="284.0" cy="382.0" fill="black" r="3" /><circle cx="571.0" cy="379.0" fill="black" r="3" /><circle cx="266.0" cy="191.0" fill="black" r="3" /><circle cx="308.0" cy="169.0" fill="black" r="3" /><circle cx="379.0" cy="281.0" fill="black" r="3" /><circle cx="380.0" cy="104.0" fill="black" r="3" /><circle cx="485.0" cy="274.0" fill="black" r="3" /><circle cx="122.0" cy="220.0" fill="black" r="3" /><circle cx="292.0" cy="271.0" fill="black" r="3" /><circle cx="343.0" cy="295.0" fill="black" r="3" /><circle cx="415.0" cy="404.0" fill="black" r="3" /><circle cx="488.0" cy="367.0" fill="black" r="3" /><circle cx="91.0" cy="232.0" fill="black" r="3" /><circle cx="181.0" cy="343.0" fill="black" r="3" /><circle cx="376.0" cy="218.0" fill="black" r="3" /><circle cx="405.0" cy="459.0" fill="black" r="3" /><circle cx="351.0" cy="339.0" fill="black" r="3" /><circle cx="165.0" cy="380.0" fill="black" r="3" /><circle cx="302.0" cy="242.0" fill="black" r="3" /><circle cx="352.0" cy="413.0" fill="black" r="3" /><circle cx="358.0" cy="247.0" fill="black" r="3" /><circle cx="460.0" cy="352.0" fill="black" r="3" /><circle cx="471.0" cy="430.0" fill="black" r="3" /><circle cx="239.0" cy="407.0" fill="black" r="3" /><circle cx="475.0" cy="323.0" fill="black" r="3" /><circle cx="218.0" cy="349.0" fill="black" r="3" /><circle cx="239.0" cy="130.0" fill="black" r="3" /><circle cx="245.0" cy="98.0" fill="black" r="3" /><circle cx="247.0" cy="340.0" fill="black" r="3" /><circle cx="376.0" cy="320.0" fill="black" r="3" /><circle cx="437.0" cy="327.0" fill="black" r="3" /><circle cx="548.0" cy="308.0" fill="black" r="3" /><circle cx="425.0" cy="218.0" fill="black" r="3" /><circle cx="523.0" cy="373.0" fill="black" r="3" /><circle cx="206.0" cy="458.0" fill="black" r="3" /><circle cx="262.0" cy="227.0" fill="black" r="3" /><circle cx="310.0" cy="490.0" fill="black" r="3" /><circle cx="459.0" cy="207.0" fill="black" r="3" /><circle cx="485.0" cy="119.0" fill="black" r="3" /><circle cx="521.0" cy="140.0" fill="black" r="3" /><circle cx="548.0" cy="245.0" fill="black" r="3" /><circle cx="113.0" cy="400.0" fill="black" r="3" /><circle cx="185.0" cy="166.0" fill="black" r="3" /><circle cx="367.0" cy="67.0" fill="black" r="3" /><circle cx="515.0" cy="175.0" fill="black" r="3" /><circle cx="302.0" cy="79.0" fill="black" r="3" /><circle cx="199.0" cy="395.0" fill="black" r="3" /><circle cx="499.0" cy="395.0" fill="black" r="3" /><circle cx="157.0" cy="248.0" fill="black" r="3" /><circle cx="268.0" cy="513.0" fill="black" r="3" /><circle cx="291.0" cy="567.0" fill="black" r="3" /><circle cx="376.0" cy="473.0" fill="black" r="3" /><circle cx="453.0" cy="115.0" fill="black" r="3" /><circle cx="470.0" cy="244.0" fill="black" r="3" /><circle cx="508.0" cy="328.0" fill="black" r="3" /><circle cx="101.0" cy="272.0" fill="black" r="3" /><circle cx="395.0" cy="166.0" fill="black" r="3" /><circle cx="458.0" cy="461.0" fill="black" r="3" /><circle cx="199.0" cy="202.0" fill="black" r="3" /><circle cx="383.0" cy="428.0" fill="black" r="3" /><circle cx="155.0" cy="170.0" fill="black" r="3" /><circle cx="549.0" cy="357.0" fill="black" r="3" /><circle cx="59.0" cy="298.0" fill="black" r="3" /><circle cx="182.0" cy="230.0" fill="black" r="3" /><circle cx="256.0" cy="481.0" fill="black" r="3" /><circle cx="531.0" cy="433.0" fill="black" r="3" /><circle cx="202.0" cy="321.0" fill="black" r="3" /><circle cx="169.0" cy="100.0" fill="black" r="3" /><circle cx="153.0" cy="201.0" fill="black" r="3" /><circle cx="321.0" cy="592.0" fill="black" r="3" /><circle cx="50.0" cy="249.0" fill="black" r="3" /><circle cx="298.0" cy="529.0" fill="black" r="3" /><circle cx="439.0" cy="427.0" fill="black" r="3" /><circle cx="381.0" cy="393.0" fill="black" r="3" /><circle cx="544.0" cy="493.0" fill="black" r="3" /><circle cx="560.0" cy="275.0" fill="black" r="3" /><circle cx="139.0" cy="316.0" fill="black" r="3" /><circle cx="350.0" cy="491.0" fill="black" r="3" /><circle cx="157.0" cy="135.0" fill="black" r="3" /><circle cx="223.0" cy="433.0" fill="black" r="3" /><circle cx="89.0" cy="183.0" fill="black" r="3" /><circle cx="285.0" cy="148.0" fill="black" r="3" /><circle cx="333.0" cy="67.0" fill="black" r="3" /><circle cx="547.0" cy="398.0" fill="black" r="3" /><circle cx="85.0" cy="478.0" fill="black" r="3" /><circle cx="269.0" cy="73.0" fill="black" r="3" /><circle cx="619.0" cy="296.0" fill="black" r="3" /><circle cx="395.0" cy="509.0" fill="black" r="3" /><circle cx="491.0" cy="203.0" fill="black" r="3" /><circle cx="493.0" cy="481.0" fill="black" r="3" /><circle cx="578.0" cy="325.0" fill="black" r="3" /><circle cx="339.0" cy="28.0" fill="black" r="3" /><circle cx="103.0" cy="448.0" fill="black" r="3" /><circle cx="117.0" cy="487.0" fill="black" r="3" /><circle cx="137.0" cy="463.0" fill="black" r="3" /><circle cx="137.0" cy="80.0" fill="black" r="3" /><circle cx="151.0" cy="349.0" fill="black" r="3" /><circle cx="253.0" cy="446.0" fill="black" r="3" /><circle cx="410.0" cy="133.0" fill="black" r="3" /><circle cx="365.0" cy="533.0" fill="black" r="3" /><circle cx="356.0" cy="447.0" fill="black" r="3" /><circle cx="581.0" cy="254.0" fill="black" r="3" /><circle cx="191.0" cy="535.0" fill="black" r="3" /><circle cx="253.0" cy="160.0" fill="black" r="3" /><circle cx="533.0" cy="111.0" fill="black" r="3" /><circle cx="22.0" cy="263.0" fill="black" r="3" /><circle cx="69.0" cy="339.0" fill="black" r="3" /><circle cx="437.0" cy="380.0" fill="black" r="3" /><circle cx="232.0" cy="538.0" fill="black" r="3" /><circle cx="307.0" cy="297.0" fill="black" r="3" /><circle cx="350.0" cy="560.0" fill="black" r="3" /><circle cx="85.0" cy="383.0" fill="black" r="3" /><circle cx="163.0" cy="547.0" fill="black" r="3" /><circle cx="569.0" cy="177.0" fill="black" r="3" /><circle cx="591.0" cy="283.0" fill="black" r="3" /><circle cx="235.0" cy="65.0" fill="black" r="3" /><circle cx="441.0" cy="75.0" fill="black" r="3" /><circle cx="101.0" cy="541.0" fill="black" r="3" /><circle cx="527.0" cy="465.0" fill="black" r="3" /><circle cx="335.0" cy="533.0" fill="black" r="3" /><circle cx="433.0" cy="519.0" fill="black" r="3" /><circle cx="403.0" cy="73.0" fill="black" r="3" /><circle cx="610.0" cy="329.0" fill="black" r="3" /></svg>