<?xml version="1.0" encoding="utf-8" ?>
<svg baseProfile="tiny" height="100%" version="1.2" viewBox="0,0,500,500" width="100%" xmlns="http://www.w3.org/2000/svg" xmlns:ev="http://www.w3.org/2001/xml-events" xmlns:xlink="http://www.w3.org/1999/xlink"><defs /><circle cx="40.0" cy="166.0" fill="black" r="3" /><circle cx="105.0" cy="104.0" fill="black" r="3" /><circle cx="106.0" cy="142.0" fill="black" r="3" /><circle cx="136.0" cy="178.0" fill="black" r="3" /><circle cx="137.0" cy="106.0" fill="black" r="3" /><circle cx="196.0" cy="134.0" fill="black" r="3" /><circle cx="71.0" cy="65.0" fill="black" r="3" /><circle cx="175.0" cy="164.0" fill="black" r="3" /><circle cx="20.0" cy="99.0" fill="black" r="3" /><circle cx="71.0" cy="188.0" fill="black" r="3" /><circle cx="80.0" cy="125.0" fill="black" r="3" /><circle cx="196.0" cy="95.0" fill="black" r="3" /><circle cx="37.0" cy="67.0" fill="black" r="3" /><circle cx="53.0" cy="98.0" fill="black" r="3" /><circle cx="31.0" cy="131.0" fill="black" r="3" /><circle cx="160.0" cy="130.0" fill="black" r="3" /><circle cx="158.0" cy="63.0" fill="black" r="3" /><circle cx="103.0" cy="44.0" fill="black" r="3" /><circle cx="127.0" cy="71.0" fill="black" r="3" /><circle cx="100.0" cy="173.0" fill="black" r="3" /><circle cx="101.0" cy="205.0" fill="black" r="3" /><circle cx="191.0" cy="43.0" fill="black" r="3" /><circle cx="133.0" cy="40.0" fill="black" r="3" /><circle cx="53.0" cy="41.0" fill="black" r="3" /><circle cx="166.0" cy="94.0" fill="black" r="3" /><circle cx="17.0" cy="43.0" fill="black" r="3" /><circle cx="163.0" cy="193.0" fill="black" r="3" /><circle cx="29.0" cy="13.0" fill="black" r="3" /><circle cx="77.0" cy="10.0" fill="black" r="3" /><circle cx="13.0" cy="202.0" fill="black" r="3" /><circle cx="224.0" cy="118.0" fill="black" r="3" /><circle cx="3.0" cy="153.0" fill="black" r="3" /><circle cx="167.0" cy="23.0" fill="black" r="3" /><circle cx="212.0" cy="165.0" fill="black" r="3" /><circle cx="203.0" cy="7.0" fill="black" r="3" /><circle cx="131.0" cy="209.0" fill="black" r="3" /><circle cx="142.0" cy="7.0" fill="black" r="3" /><circle cx="221.0" cy="43.0" fill="black" r="3" /></svg>