<?xml version="1.0" encoding="utf-8" ?>
<svg baseProfile="tiny" height="100%" version="1.2" viewBox="0,0,500,500" width="100%" xmlns="http://www.w3.org/2000/svg" xmlns:ev="http://www.w3.org/2001/xml-events" xmlns:xlink="http://www.w3.org/1999/xlink"><defs /><circle cx="104.0" cy="197.0" fill="black" r="3" /><circle cx="212.0" cy="51.0" fill="black" r="3" /><circle cx="124.0" cy="111.0" fill="black" r="3" /><circle cx="131.0" cy="178.0" fill="black" r="3" /><circle cx="169.0" cy="183.0" fill="black" r="3" /><circle cx="233.0" cy="158.0" fill="black" r="3" /><circle cx="109.0" cy="142.0" fill="black" r="3" /><circle cx="147.0" cy="38.0" fill="black" r="3" /><circle cx="196.0" cy="157.0" fill="black" r="3" /><circle cx="182.0" cy="103.0" fill="black" r="3" /><circle cx="161.0" cy="217.0" fill="black" r="3" /><circle cx="86.0" cy="119.0" fill="black" r="3" /><circle cx="109.0" cy="259.0" fill="black" r="3" /><circle cx="191.0" cy="249.0" fill="black" r="3" /><circle cx="106.0" cy="87.0" fill="black" r="3" /><circle cx="147.0" cy="74.0" fill="black" r="3" /><circle cx="250.0" cy="79.0" fill="black" r="3" /><circle cx="44.0" cy="107.0" fill="black" r="3" /><circle cx="58.0" cy="237.0" fill="black" r="3" /><circle cx="112.0" cy="23.0" fill="black" r="3" /><circle cx="182.0" cy="44.0" fill="black" r="3" /><circle cx="281.0" cy="148.0" fill="black" r="3" /><circle cx="183.0" cy="297.0" fill="black" r="3" /><circle cx="253.0" cy="248.0" fill="black" r="3" /><circle cx="67.0" cy="71.0" fill="black" r="3" /><circle cx="86.0" cy="163.0" fill="black" r="3" /><circle cx="215.0" cy="92.0" fill="black" r="3" /><circle cx="20.0" cy="145.0" fill="black" r="3" /><circle cx="202.0" cy="205.0" fill="black" r="3" /><circle cx="206.0" cy="123.0" fill="black" r="3" /><circle cx="223.0" cy="261.0" fill="black" r="3" /><circle cx="73.0" cy="207.0" fill="black" r="3" /><circle cx="273.0" cy="117.0" fill="black" r="3" /><circle cx="26.0" cy="187.0" fill="black" r="3" /><circle cx="158.0" cy="260.0" fill="black" r="3" /><circle cx="291.0" cy="81.0" fill="black" r="3" /><circle cx="159.0" cy="123.0" fill="black" r="3" /><circle cx="38.0" cy="55.0" fill="black" r="3" /><circle cx="254.0" cy="211.0" fill="black" r="3" /><circle cx="230.0" cy="188.0" fill="black" r="3" /><circle cx="95.0" cy="56.0" fill="black" r="3" /><circle cx="145.0" cy="298.0" fill="black" r="3" /><circle cx="223.0" cy="230.0" fill="black" r="3" /><circle cx="238.0" cy="121.0" fill="black" r="3" /><circle cx="46.0" cy="161.0" fill="black" r="3" /><circle cx="149.0" cy="152.0" fill="black" r="3" /><circle cx="20.0" cy="85.0" fill="black" r="3" /><circle cx="62.0" cy="26.0" fill="black" r="3" /><circle cx="25.0" cy="25.0" fill="black" r="3" /><circle cx="261.0" cy="172.0" fill="black" r="3" /><circle cx="129.0" cy="218.0" fill="black" r="3" /><circle cx="285.0" cy="199.0" fill="black" r="3" /><circle cx="297.0" cy="295.0" fill="black" r="3" /><circle cx="285.0" cy="46.0" fill="black" r="3" /><circle cx="303.0" cy="123.0" fill="black" r="3" /><circle cx="103.0" cy="290.0" fill="black" r="3" /><circle cx="22.0" cy="293.0" fill="black" r="3" /><circle cx="215.0" cy="293.0" fill="black" r="3" /><circle cx="236.0" cy="23.0" fill="black" r="3" /><circle cx="171.0" cy="4.0" fill="black" r="3" /><circle cx="256.0" cy="295.0" fill="black" r="3" /><circle cx="141.0" cy="7.0" fill="black" r="3" /><circle cx="97.0" cy="230.0" fill="black" r="3" /><circle cx="206.0" cy="17.0" fill="black" r="3" /><circle cx="315.0" cy="158.0" fill="black" r="3" /><circle cx="74.0" cy="265.0" fill="black" r="3" /><circle cx="23.0" cy="259.0" fill="black" r="3" /><circle cx="301.0" cy="255.0" fill="black" r="3" /><circle cx="298.0" cy="17.0" fill="black" r="3" /><circle cx="190.0" cy="74.0" fill="black" r="3" /><circle cx="315.0" cy="57.0" fill="black" r="3" /><circle cx="59.0" cy="134.0" fill="black" r="3" /></svg>